<?xml version="1.0" encoding="utf-8"?>
<!-- Generator: Adobe Illustrator 19.0.0, SVG Export Plug-In . SVG Version: 6.00 Build 0)  -->
<svg version="1.1" id="Capa_1" xmlns="http://www.w3.org/2000/svg" xmlns:xlink="http://www.w3.org/1999/xlink" x="0px" y="0px"
	 viewBox="0 0 279 105" style="enable-background:new 0 0 279 105;" xml:space="preserve">
<style type="text/css">
	.st0{fill:#838382;}
	.st1{fill:#00AEC3;}
</style>
<path class="st0" d="M91.1,41v4.2c-0.8,0.1-1.5,0.2-2.2,0.2c-1.7,0-3-0.4-3.8-1.1c-0.8-0.7-1.3-1.9-1.3-3.4c0-1.5,0.4-2.7,1.3-3.4
	c0.9-0.8,2.1-1.2,3.8-1.2c0.7,0,1.4,0.1,2,0.2v1.6c-0.6-0.1-1.2-0.2-1.8-0.2c-0.7,0-1.3,0.1-1.8,0.3c-0.5,0.2-0.8,0.5-1,1
	c-0.2,0.4-0.3,1-0.3,1.7c0,1,0.2,1.7,0.7,2.2c0.5,0.5,1.2,0.7,2.2,0.7c0.1,0,0.3,0,0.5,0V41H91.1z"/>
<path class="st0" d="M94.4,44.9c-0.6-0.3-1.1-0.8-1.5-1.5c-0.3-0.7-0.5-1.5-0.5-2.5c0-1,0.2-1.9,0.5-2.5c0.3-0.7,0.8-1.2,1.5-1.5
	c0.6-0.3,1.4-0.5,2.2-0.5c0.9,0,1.6,0.2,2.2,0.5c0.6,0.3,1.1,0.8,1.5,1.5c0.3,0.7,0.5,1.5,0.5,2.5s-0.2,1.8-0.5,2.5
	c-0.3,0.7-0.8,1.2-1.5,1.5c-0.6,0.3-1.4,0.5-2.2,0.5C95.7,45.4,95,45.2,94.4,44.9 M98.2,43.1c0.4-0.5,0.6-1.2,0.6-2.2
	c0-1.1-0.2-1.8-0.6-2.3c-0.4-0.5-0.9-0.7-1.6-0.7c-0.7,0-1.3,0.2-1.6,0.7c-0.4,0.5-0.6,1.2-0.6,2.2c0,1.1,0.2,1.8,0.6,2.3
	c0.4,0.5,0.9,0.7,1.6,0.7C97.3,43.8,97.9,43.6,98.2,43.1"/>
<path class="st0" d="M108.6,41.4c0.3,0.4,0.4,0.8,0.4,1.4c0,0.6-0.1,1-0.4,1.4c-0.3,0.4-0.8,0.7-1.4,0.9c-0.6,0.2-1.5,0.3-2.5,0.3
	c-0.4,0-0.8,0-1.3,0s-0.9-0.1-1.3-0.1v-8.6c0.4-0.1,0.9-0.2,1.4-0.2c0.5-0.1,1-0.1,1.5-0.1c1.3,0,2.3,0.2,2.9,0.6
	c0.6,0.4,0.9,1,0.9,1.9c0,0.5-0.1,0.9-0.4,1.2c-0.2,0.3-0.6,0.6-1,0.7C107.9,40.8,108.3,41,108.6,41.4 M104,37.8V40h1.3
	c0.6,0,1-0.1,1.3-0.3c0.3-0.2,0.4-0.5,0.4-0.9c0-0.3-0.1-0.5-0.2-0.7c-0.1-0.2-0.3-0.3-0.5-0.4c-0.2-0.1-0.6-0.1-1-0.1
	C104.8,37.7,104.4,37.7,104,37.8 M106.3,43.8c0.3-0.1,0.5-0.2,0.6-0.4c0.1-0.2,0.2-0.4,0.2-0.7c0-0.4-0.1-0.7-0.4-0.9
	c-0.3-0.2-0.7-0.3-1.3-0.3H104v2.4c0.3,0,0.7,0,1.1,0C105.6,43.9,106,43.9,106.3,43.8"/>
<rect x="110.1" y="36.4" class="st0" width="2" height="8.9"/>
<polygon class="st0" points="115.6,43.7 120,43.7 120,45.3 113.7,45.3 113.7,36.4 119.9,36.4 119.9,38 115.6,38 115.6,40 119.3,40 
	119.3,41.5 115.6,41.5 "/>
<path class="st0" d="M126.5,45.3l-2.3-3.3h-0.1c-0.3,0-0.6,0-0.9,0v3.3h-1.9v-8.7c0.4-0.1,0.9-0.2,1.4-0.2c0.5-0.1,1-0.1,1.4-0.1
	c1.3,0,2.3,0.2,2.9,0.7c0.6,0.5,1,1.2,1,2.1c0,0.6-0.2,1.2-0.5,1.6c-0.3,0.4-0.7,0.8-1.3,1l2.5,3.6H126.5z M123.1,40.5
	c0.3,0,0.7,0.1,1,0.1c0.6,0,1.1-0.1,1.4-0.3c0.3-0.2,0.5-0.6,0.5-1.1c0-0.5-0.1-0.9-0.4-1.1c-0.3-0.2-0.8-0.3-1.4-0.3
	c-0.4,0-0.7,0-1.1,0.1V40.5z"/>
<polygon class="st0" points="135.3,36.4 137.2,36.4 137.2,45.3 135.2,45.3 131.4,39.3 131.4,45.3 129.5,45.3 129.5,36.4 131.5,36.4 
	135.3,42.3 "/>
<path class="st0" d="M140.5,44.9c-0.6-0.3-1.1-0.8-1.5-1.5c-0.3-0.7-0.5-1.5-0.5-2.5c0-1,0.2-1.9,0.5-2.5c0.3-0.7,0.8-1.2,1.5-1.5
	c0.6-0.3,1.4-0.5,2.2-0.5c0.9,0,1.6,0.2,2.2,0.5s1.1,0.8,1.5,1.5c0.3,0.7,0.5,1.5,0.5,2.5s-0.2,1.8-0.5,2.5
	c-0.3,0.7-0.8,1.2-1.5,1.5c-0.6,0.3-1.4,0.5-2.2,0.5C141.8,45.4,141.1,45.2,140.5,44.9 M144.3,43.1c0.4-0.5,0.6-1.2,0.6-2.2
	c0-1.1-0.2-1.8-0.6-2.3c-0.4-0.5-0.9-0.7-1.6-0.7c-0.7,0-1.3,0.2-1.6,0.7c-0.4,0.5-0.6,1.2-0.6,2.2c0,1.1,0.2,1.8,0.6,2.3
	c0.4,0.5,0.9,0.7,1.6,0.7C143.4,43.8,143.9,43.6,144.3,43.1"/>
<path class="st0" d="M151.2,45.2v-8.6c0.4-0.1,0.9-0.2,1.4-0.2c0.5-0.1,1-0.1,1.5-0.1c1.6,0,2.9,0.4,3.7,1.1
	c0.8,0.7,1.2,1.9,1.2,3.4c0,1.1-0.2,1.9-0.6,2.6c-0.4,0.7-1,1.2-1.8,1.5c-0.8,0.3-1.8,0.5-3,0.5C152.8,45.4,152,45.3,151.2,45.2
	 M155.7,43.5c0.4-0.2,0.7-0.5,0.9-0.9s0.3-1,0.3-1.7c0-0.7-0.1-1.3-0.3-1.7c-0.2-0.4-0.5-0.8-0.9-0.9c-0.4-0.2-0.9-0.3-1.5-0.3
	c-0.3,0-0.6,0-1,0.1v5.8c0.3,0,0.6,0,1,0C154.8,43.8,155.3,43.7,155.7,43.5"/>
<polygon class="st0" points="162.2,43.7 166.6,43.7 166.6,45.3 160.2,45.3 160.2,36.4 166.5,36.4 166.5,38 162.2,38 162.2,40 
	165.9,40 165.9,41.5 162.2,41.5 "/>
<polygon class="st0" points="170.8,45.3 170.8,36.4 172.8,36.4 172.8,43.6 176.8,43.6 176.8,45.3 "/>
<path class="st0" d="M183.7,45.3l-0.7-2.4h-3.3l-0.7,2.4H177l2.9-8.9h2.9l2.9,8.9H183.7z M180.1,41.4h2.3l-1.2-3.8L180.1,41.4z"/>
<path class="st0" d="M189.5,36.6c0.9-0.2,1.8-0.3,2.7-0.3c1.3,0,2.3,0.3,3,0.8c0.7,0.5,1,1.3,1,2.4c0,1.1-0.3,1.9-1,2.4
	c-0.7,0.5-1.6,0.8-2.9,0.8c-0.2,0-0.5,0-0.9,0v2.6h-2V36.6z M193.8,40.8c0.3-0.3,0.5-0.7,0.5-1.3c0-0.6-0.2-1.1-0.5-1.3
	c-0.3-0.3-0.8-0.4-1.4-0.4c-0.3,0-0.6,0-0.9,0.1v3.4c0.3,0,0.6,0.1,0.9,0.1C193,41.2,193.5,41.1,193.8,40.8"/>
<path class="st0" d="M202.7,45.3l-2.3-3.3h-0.1c-0.3,0-0.6,0-0.9,0v3.3h-1.9v-8.7c0.4-0.1,0.9-0.2,1.4-0.2c0.5-0.1,1-0.1,1.4-0.1
	c1.3,0,2.3,0.2,2.9,0.7c0.6,0.5,1,1.2,1,2.1c0,0.6-0.2,1.2-0.5,1.6c-0.3,0.4-0.7,0.8-1.3,1l2.5,3.6H202.7z M199.4,40.5
	c0.3,0,0.7,0.1,1,0.1c0.6,0,1.1-0.1,1.4-0.3c0.3-0.2,0.5-0.6,0.5-1.1c0-0.5-0.1-0.9-0.4-1.1c-0.3-0.2-0.8-0.3-1.4-0.3
	c-0.4,0-0.7,0-1.1,0.1V40.5z"/>
<path class="st0" d="M207,44.9c-0.6-0.3-1.1-0.8-1.5-1.5c-0.3-0.7-0.5-1.5-0.5-2.5c0-1,0.2-1.9,0.5-2.5c0.3-0.7,0.8-1.2,1.5-1.5
	c0.6-0.3,1.4-0.5,2.2-0.5s1.6,0.2,2.2,0.5c0.6,0.3,1.1,0.8,1.5,1.5c0.3,0.7,0.5,1.5,0.5,2.5s-0.2,1.8-0.5,2.5
	c-0.3,0.7-0.8,1.2-1.5,1.5c-0.6,0.3-1.4,0.5-2.2,0.5C208.3,45.4,207.6,45.2,207,44.9 M210.8,43.1c0.4-0.5,0.6-1.2,0.6-2.2
	c0-1.1-0.2-1.8-0.6-2.3c-0.4-0.5-0.9-0.7-1.6-0.7c-0.7,0-1.3,0.2-1.6,0.7c-0.4,0.5-0.6,1.2-0.6,2.2c0,1.1,0.2,1.8,0.6,2.3
	c0.4,0.5,0.9,0.7,1.6,0.7C209.9,43.8,210.5,43.6,210.8,43.1"/>
<polygon class="st0" points="220.3,36.4 222.3,36.4 219.4,45.3 216.5,45.3 213.6,36.4 215.7,36.4 218,43.8 "/>
<rect x="223.1" y="36.4" class="st0" width="2" height="8.9"/>
<polygon class="st0" points="232.5,36.4 234.3,36.4 234.3,45.3 232.3,45.3 228.5,39.3 228.5,45.3 226.6,45.3 226.6,36.4 228.6,36.4 
	232.5,42.3 "/>
<path class="st0" d="M236.8,44.3c-0.8-0.7-1.2-1.9-1.2-3.4c0-1.5,0.4-2.7,1.2-3.4c0.8-0.8,2-1.2,3.5-1.2c0.7,0,1.3,0.1,1.9,0.2v1.6
	c-0.6-0.1-1.2-0.2-1.8-0.2c-0.7,0-1.2,0.1-1.6,0.3c-0.4,0.2-0.7,0.5-0.9,0.9c-0.2,0.4-0.3,1-0.3,1.7c0,0.7,0.1,1.3,0.3,1.7
	c0.2,0.4,0.5,0.7,0.9,0.9c0.4,0.2,0.9,0.3,1.6,0.3c0.6,0,1.2-0.1,1.8-0.3v1.6c-0.3,0.1-0.6,0.2-1,0.2c-0.3,0.1-0.7,0.1-1,0.1
	C238.7,45.4,237.6,45,236.8,44.3"/>
<rect x="243.3" y="36.4" class="st0" width="2" height="8.9"/>
<path class="st0" d="M252.9,45.3l-0.7-2.4h-3.3l-0.7,2.4h-1.9l2.9-8.9h2.9l2.9,8.9H252.9z M249.3,41.4h2.3l-1.2-3.8L249.3,41.4z"/>
<path class="st0" d="M258.7,45.2v-8.6c0.4-0.1,0.9-0.2,1.4-0.2c0.5-0.1,1-0.1,1.5-0.1c1.6,0,2.9,0.4,3.7,1.1
	c0.8,0.7,1.2,1.9,1.2,3.4c0,1.1-0.2,1.9-0.6,2.6c-0.4,0.7-1,1.2-1.8,1.5s-1.8,0.5-3,0.5C260.3,45.4,259.5,45.3,258.7,45.2
	 M263.2,43.5c0.4-0.2,0.7-0.5,0.9-0.9c0.2-0.4,0.3-1,0.3-1.7c0-0.7-0.1-1.3-0.3-1.7c-0.2-0.4-0.5-0.8-0.9-0.9
	c-0.4-0.2-0.9-0.3-1.5-0.3c-0.3,0-0.7,0-1,0.1v5.8c0.3,0,0.6,0,1,0C262.3,43.8,262.8,43.7,263.2,43.5"/>
<polygon class="st0" points="269.7,43.7 274.1,43.7 274.1,45.3 267.7,45.3 267.7,36.4 274,36.4 274,38 269.7,38 269.7,40 273.4,40 
	273.4,41.5 269.7,41.5 "/>
<path class="st1" d="M98.4,61c0.6,0.8,1,1.8,1,3.1c0,1.2-0.3,2.3-1,3.1c-0.6,0.8-1.7,1.5-3.1,1.9c-1.4,0.4-3.3,0.7-5.6,0.7
	c-0.8,0-1.7,0-2.7-0.1c-1-0.1-1.9-0.2-2.7-0.3V50.5c0.9-0.2,1.9-0.4,3-0.5c1.1-0.1,2.2-0.2,3.2-0.2c2.9,0,5,0.4,6.3,1.3
	c1.3,0.9,2,2.2,2,4.1c0,1-0.3,1.9-0.8,2.7c-0.5,0.8-1.3,1.3-2.3,1.6C96.8,59.7,97.7,60.2,98.4,61 M88.4,53.2V58h2.8
	c1.3,0,2.2-0.2,2.7-0.6c0.5-0.4,0.8-1,0.8-1.9c0-0.6-0.1-1.1-0.4-1.4c-0.2-0.4-0.6-0.6-1.2-0.8C92.7,53,91.9,53,91,53
	C90.1,53,89.3,53,88.4,53.2 M93.5,66.3c0.7-0.2,1.1-0.5,1.4-0.9c0.3-0.4,0.4-0.9,0.4-1.5c0-0.9-0.3-1.6-0.9-2.1
	c-0.6-0.4-1.5-0.6-2.9-0.6h-3.2v5.3c0.7,0.1,1.5,0.1,2.4,0.1C92,66.6,92.9,66.5,93.5,66.3"/>
<path class="st1" d="M103.7,67.7c-1.3-1.4-2-3.5-2-6.3V50.1h4.3v11.8c0,1.5,0.3,2.6,1,3.3c0.6,0.7,1.6,1.1,3,1.1
	c1.3,0,2.3-0.3,3-1.1c0.6-0.7,1-1.8,1-3.3V50.1h4.2v11.4c0,2.8-0.7,4.9-2,6.3c-1.3,1.4-3.4,2-6.2,2C107.1,69.8,105,69.1,103.7,67.7"
	/>
<polygon class="st1" points="125.7,66.1 135.3,66.1 135.3,69.5 121.5,69.5 121.5,50.1 135.2,50.1 135.2,53.5 125.7,53.5 125.7,57.9 
	133.8,57.9 133.8,61.3 125.7,61.3 "/>
<polygon class="st1" points="150.8,50.1 154.8,50.1 154.8,69.5 150.5,69.5 142,56.5 142,69.5 138,69.5 138,50.1 142.3,50.1 
	150.8,63.1 "/>
<path class="st1" d="M162,68.7c-1.4-0.7-2.4-1.8-3.2-3.3c-0.8-1.5-1.1-3.3-1.1-5.5c0-2.2,0.4-4.1,1.1-5.5c0.8-1.5,1.8-2.6,3.2-3.3
	c1.4-0.7,3-1.1,4.9-1.1c1.9,0,3.5,0.4,4.9,1.1c1.4,0.7,2.4,1.8,3.2,3.3c0.7,1.5,1.1,3.3,1.1,5.5c0,2.2-0.4,4-1.1,5.5
	c-0.8,1.5-1.8,2.6-3.2,3.3c-1.4,0.7-3,1.1-4.9,1.1C165,69.8,163.3,69.4,162,68.7 M170.4,64.8c0.8-1,1.2-2.7,1.2-4.9
	c0-2.3-0.4-4-1.2-5c-0.8-1-2-1.6-3.5-1.6c-1.6,0-2.7,0.5-3.6,1.5c-0.8,1-1.2,2.7-1.2,4.9c0,2.3,0.4,4,1.2,5c0.8,1,2,1.6,3.6,1.6
	C168.4,66.3,169.6,65.8,170.4,64.8"/>
<path class="st1" d="M180.9,69.5c-0.9-0.1-1.8-0.3-2.6-0.6v-3.5c0.8,0.3,1.7,0.5,2.7,0.6c1,0.2,1.9,0.2,2.7,0.2
	c1.3,0,2.2-0.2,2.7-0.6c0.6-0.4,0.8-0.9,0.8-1.7c0-0.4-0.1-0.8-0.3-1c-0.2-0.3-0.5-0.5-0.9-0.7c-0.4-0.2-1-0.4-1.7-0.6l-1.5-0.4
	c-1.7-0.4-3-1.1-3.9-2c-0.9-0.9-1.3-2.1-1.3-3.6c0-1.9,0.7-3.3,2.1-4.4c1.4-1,3.4-1.5,6.1-1.5c0.9,0,1.7,0.1,2.5,0.2
	c0.8,0.1,1.5,0.2,2.2,0.4v3.5c-0.6-0.2-1.3-0.3-2.1-0.4c-0.8-0.1-1.5-0.2-2.3-0.2c-1.5,0-2.5,0.2-3.1,0.6c-0.6,0.4-0.9,0.9-0.9,1.7
	c0,0.4,0.1,0.7,0.2,1c0.1,0.3,0.4,0.5,0.8,0.7c0.4,0.2,0.9,0.4,1.5,0.6l1.5,0.4c1.9,0.5,3.3,1.2,4.2,2.1c0.9,0.9,1.3,2.1,1.3,3.6
	c0,1.2-0.3,2.3-0.9,3.2c-0.6,0.9-1.5,1.6-2.7,2.1c-1.2,0.5-2.6,0.7-4.2,0.7C182.8,69.8,181.9,69.7,180.9,69.5"/>
<path class="st1" d="M213.8,69.5l-1.6-5.2h-7.2l-1.6,5.2h-4.2l6.3-19.4h6.3l6.3,19.4H213.8z M206,60.9h5.1l-2.6-8.3L206,60.9z"/>
<rect x="219.9" y="50.1" class="st1" width="4.3" height="19.4"/>
<path class="st1" d="M239.2,69.5l-5-7.1H234c-0.6,0-1.3,0-2-0.1v7.2h-4.2v-19c0.9-0.2,1.9-0.4,3-0.5c1.1-0.1,2.1-0.2,3.1-0.2
	c2.8,0,4.9,0.5,6.3,1.5c1.4,1,2.1,2.6,2.1,4.7c0,1.4-0.3,2.5-1,3.5c-0.7,0.9-1.6,1.7-2.9,2.1l5.5,7.8H239.2z M231.9,59.1
	c0.7,0.1,1.4,0.1,2.1,0.1c1.4,0,2.5-0.2,3.1-0.7c0.7-0.5,1-1.3,1-2.4c0-1.1-0.3-1.9-1-2.4c-0.6-0.5-1.6-0.7-3-0.7
	c-0.8,0-1.5,0.1-2.3,0.2V59.1z"/>
<polygon class="st1" points="250.1,66.1 259.7,66.1 259.7,69.5 245.8,69.5 245.8,50.1 259.5,50.1 259.5,53.5 250.1,53.5 250.1,57.9 
	258.2,57.9 258.2,61.3 250.1,61.3 "/>
<path class="st1" d="M264.4,69.5c-0.9-0.1-1.8-0.3-2.6-0.6v-3.5c0.8,0.3,1.7,0.5,2.7,0.6c1,0.2,1.9,0.2,2.7,0.2
	c1.3,0,2.2-0.2,2.7-0.6c0.6-0.4,0.8-0.9,0.8-1.7c0-0.4-0.1-0.8-0.3-1c-0.2-0.3-0.5-0.5-0.9-0.7c-0.4-0.2-1-0.4-1.7-0.6l-1.5-0.4
	c-1.7-0.4-3-1.1-3.9-2c-0.9-0.9-1.3-2.1-1.3-3.6c0-1.9,0.7-3.3,2.1-4.4c1.4-1,3.4-1.5,6.1-1.5c0.9,0,1.7,0.1,2.5,0.2
	c0.8,0.1,1.5,0.2,2.2,0.4v3.5c-0.6-0.2-1.3-0.3-2.1-0.4c-0.8-0.1-1.5-0.2-2.3-0.2c-1.5,0-2.5,0.2-3.1,0.6c-0.6,0.4-0.9,0.9-0.9,1.7
	c0,0.4,0.1,0.7,0.2,1c0.1,0.3,0.4,0.5,0.8,0.7c0.4,0.2,0.9,0.4,1.5,0.6l1.5,0.4c1.9,0.5,3.3,1.2,4.2,2.1c0.9,0.9,1.3,2.1,1.3,3.6
	c0,1.2-0.3,2.3-0.9,3.2c-0.6,0.9-1.5,1.6-2.7,2.1c-1.2,0.5-2.6,0.7-4.2,0.7C266.3,69.8,265.4,69.7,264.4,69.5"/>
<rect x="20.9" y="18.5" class="st1" width="0.8" height="3.4"/>
<rect x="23" y="18.5" class="st1" width="0.8" height="3.4"/>
<path class="st1" d="M23.2,16.9h-3.7c-0.3,0-0.5,0.2-0.5,0.5V18h-1.8c-0.7,0-1.2,0.5-1.2,1.2l-0.2,2l-0.4,0.4
	c-0.3,0.3-0.3,0.8-0.3,0.9v2.2c0,0.3,0.2,0.5,0.5,0.5h0.4c0.2,0.6,0.8,1.1,1.5,1.1c0.9,0,1.6-0.7,1.6-1.6c0-0.9-0.7-1.6-1.6-1.6
	c-0.6,0-1.1,0.3-1.4,0.9v-0.7h0.2c0.3,0,0.5-0.2,0.5-0.5c0-0.3-0.2-0.5-0.5-0.5H16c0-0.1,0-0.1,0-0.1l0.4-0.4H19v2.9
	c0,0.3,0.2,0.5,0.5,0.5H20c0.5-0.3,0.9-0.6,1.4-0.9c0,0,0,0,0,0h-1.6v-0.9h3.6c1.1-0.4,2.2-0.7,3.4-0.9h-7v-4.6h4.7
	C24.2,17.5,23.7,17.2,23.2,16.9 M17.4,24.1c0.4,0,0.7,0.3,0.7,0.7c0,0.4-0.3,0.7-0.7,0.7c-0.4,0-0.7-0.3-0.7-0.7
	C16.7,24.4,17,24.1,17.4,24.1 M19,21h-2.3l0.1-1.7l0,0c0-0.2,0.1-0.3,0.3-0.3H19V21z"/>
<path class="st1" d="M25.6,18.5h-0.5l0,3.4l0.8,0l0-3.2C25.8,18.6,25.7,18.6,25.6,18.5"/>
<path class="st1" d="M27.2,19.6l0,2.2l0.8,0l0-1.6C27.8,20.1,27.5,19.9,27.2,19.6"/>
<path class="st1" d="M4.7,32.6v-3.8L7,31.1l0.9-0.4V20l2.3-1.3c-0.3,0.5-0.5,1.1-0.6,1.6c-0.7,3,0.9,5.4,1,5.5l0,0
	c0,0.7,0.3,1.3,0.8,1.8l0.3,0.4c0.2,0.2,0.4,0.2,0.6,0l0.3-0.3l0.5,0.6c0.2,0.2,0.4,0.2,0.6,0c0.3-0.3,0.8-0.3,1.1,0
	c0.3,0.3,0.3,0.8-0.1,1.1c-0.3,0.3-0.8,0.3-1.1,0c-0.2-0.2-0.4-0.2-0.6,0c-0.2,0.2-0.2,0.4,0,0.6c0.6,0.6,1.6,0.7,2.3,0.1
	c0.7-0.6,0.7-1.6,0.1-2.3c-0.5-0.5-1.3-0.7-1.9-0.3l-0.3-0.3l0.3-0.3c0.2-0.2,0.2-0.4,0-0.6l-0.3-0.4c-0.4-0.5-0.9-0.8-1.5-0.9l0,0
	c-0.1-0.2-2.9-4.7,1.8-8.2l1.3-0.7l-0.3-1l-6.7,0.1v-1.6l-0.5-0.5H4.2l-0.5,0.5v19.6l0.6-0.5L4.7,32.6z M12.6,26.7L12.6,26.7
	l-0.5,0.6L12,27.2c-0.3-0.4-0.5-0.8-0.6-1.2C11.9,26.1,12.3,26.3,12.6,26.7 M12.1,16.3c-0.1,0.1-0.3,0.3-0.4,0.4l-1.3,0.7L9,16.4
	L12.1,16.3z M7.9,16.9L9.4,18l-1.5,0.8V16.9z M6.8,29.5L5,27.6l1.9-1.8V29.5z M6.8,23.6l-1.8-1.3l1.8-1.4V23.6z M6.8,15.9v2.7
	L5,17.1l1.8-1.8V15.9z M4.7,14.3h1.6l-1.6,1.6V14.3z M4.7,18.2l1.8,1.5l-1.8,1.5V18.2z M4.7,23.3l1.8,1.3l-1.8,1.7V23.3z"/>
<path class="st1" d="M11.4,46.5c1.4,0,2.6-1,2.7-2.4c0.1-0.7-0.1-1.5-0.5-2c-0.4-0.6-1.1-1-1.8-1.1c-0.7-0.1-1.5,0.1-2.1,0.6
	c-0.6,0.4-1,1.1-1,1.8c-0.2,1.5,0.9,2.9,2.4,3.1C11.1,46.5,11.3,46.5,11.4,46.5 M10.5,44.4c-0.2-0.2-0.2-0.5-0.2-0.8
	c0.1-0.5,0.5-0.9,1-0.9c0,0,0.1,0,0.1,0c0.3,0,0.5,0.2,0.7,0.4c0.2,0.2,0.2,0.5,0.2,0.8c0,0.3-0.2,0.5-0.4,0.7
	c-0.2,0.2-0.5,0.2-0.8,0.2h0C11,44.8,10.7,44.6,10.5,44.4"/>
<path class="st1" d="M74.2,45.3c-0.1,0.1-0.2,0.2-0.2,0.3c-0.2,0.3-0.7,0.8-1,1l-0.1,0.1c-0.3,0.2-0.6,0.4-1,0.5
	c-0.9,0.3-1.5,1-1.7,2c-0.1-0.5-0.2-1-0.2-1.4c0.1-0.9,0.6-1.6,1.1-2.4c0.1-0.2,0.2-0.4,0.4-0.6c0.1-0.2,0.1-0.4,0-0.5
	c-0.1-0.2-0.3-0.2-0.5-0.2c-1.1,0.1-2.1,0.6-3,1.1c0.2-0.6,0.6-1.1,1-1.6c0.1-0.1,0.1-0.1,0.2-0.2c0.2-0.2,0.2-0.4,0-0.6
	c-0.1-0.2-0.4-0.2-0.6-0.1c-0.7,0.4-1.4,0.7-2,1c-0.6,0.3-1.2,0.5-1.7,0.7c-0.4,0.2-0.9,0.4-1.2,0.6c0.1-0.2,0.2-0.4,0.4-0.6
	c0.3-0.4,0.6-0.7,1-1c0.2-0.2,0.3-0.3,0.5-0.5c0.7-0.7,1.3-1.4,1.8-2.2c0.1-0.1,0.1-0.3,0-0.4c-0.1-0.1-0.2-0.3-0.3-0.3
	c-0.5-0.2-1-0.2-1.6-0.2c-0.3,0-0.5,0.2-0.7,0.3l0,0c0,0,0,0,0,0c0,0,0-0.1,0-0.1c0.1-0.3,0.3-0.6,0.6-0.9c0,0,0.1-0.1,0.1-0.1
	c0.2-0.3,0.1-0.5,0.1-0.6c0-0.1-0.2-0.3-0.5-0.3c-0.1,0-0.1,0-0.2,0c-0.4,0.1-0.8,0.1-1.2,0c-0.8-0.2-1.6-0.2-2.5-0.1
	c0,0,0.1-0.1,0.1-0.1c0.5-0.5,1.2-0.8,2-1c0.5-0.1,1-0.4,1.4-0.6c0.2-0.1,0.3-0.2,0.5-0.2c0.4-0.2,0.4-0.4,0.4-0.6
	c0-0.2-0.1-0.4-0.4-0.6c-0.5-0.2-0.9-0.3-1.4-0.2c0.2-0.1,0.4-0.3,0.6-0.6c0.1-0.2,0.4-0.3,0.9-0.4l0.1,0c0.2-0.1,0.3-0.2,0.3-0.4
	c0-0.2-0.1-0.4-0.2-0.5c-0.1-0.1-0.2-0.1-0.2-0.1c-0.1-0.1-0.3-0.2-0.4-0.3c-0.6-0.5-1-0.9-1.3-1.5c-0.2-0.5-0.7-0.7-1-0.9
	c-0.3-0.1-0.6-0.3-0.9-0.3c0.6-0.1,1.3-0.1,1.9,0.1c0.8,0.3,1.6,0.7,2.4,1.2l0,0c0.1,0.1,0.3,0.2,0.6,0.2c0.2,0,0.4-0.2,0.4-0.4
	c0.2-1.3-0.3-2.2-1-3c0.6,0.2,1.3,0.5,2.1,1c0.2,0.1,0.5,0.1,0.6-0.1c0.2-0.2,0.2-0.4,0.1-0.6c-0.2-0.4-0.3-0.4-0.3-0.6
	c0-0.1-0.1-0.2-0.1-0.4c-0.1-0.2-0.1-0.4,0-0.7c0-0.1,0-0.3,0-0.4c0-0.5,0.2-0.9,0.4-1.4c-0.2-0.2-0.5-0.4-0.8-0.7
	c-0.3,0.7-0.6,1.4-0.6,2.1c0,0.1,0,0.2,0,0.3c0,0.3,0,0.5,0,0.8c-0.9-0.4-1.8-0.6-2.7-0.6c-0.2,0-0.4,0.1-0.5,0.3
	c-0.1,0.2,0,0.4,0.1,0.5c0.9,0.8,1.5,1.5,1.7,2.4c-0.6-0.4-1.3-0.7-2-0.9c-1.6-0.6-3-0.1-4.4,0.5C59.1,29.6,59,29.8,59,30
	c0,0.2,0.1,0.4,0.3,0.5c0.2,0.1,0.3,0.1,0.5,0.1c0.7,0.1,1.5,0.2,2.1,0.5c0.3,0.1,0.4,0.2,0.5,0.4c0.3,0.7,0.8,1.3,1.5,1.8
	c-0.2,0.1-0.4,0.3-0.5,0.5c-0.2,0.3-0.4,0.3-0.8,0.3c-0.4-0.1-0.6,0.1-0.7,0.2c-0.1,0.1-0.2,0.4,0,0.7l0,0c0.4,0.6,0.9,0.9,1.6,0.8
	c-0.2,0.1-0.5,0.2-0.7,0.3c-0.8,0.2-1.7,0.5-2.5,1.2c-0.1,0.1-0.4,0.2-0.6,0.3c0,0,0,0,0,0c-0.5-0.1-0.7,0.2-0.8,0.4
	c-0.2,0.4,0.1,0.8,0.3,0.9c0.2,0.2,0.4,0.3,0.7,0.4c0.3,0,0.6,0,0.8-0.1c0.9-0.2,1.7-0.2,2.4,0c0.2,0,0.4,0.1,0.5,0.1
	c-0.1,0.1-0.1,0.3-0.2,0.5c-0.1,0.4-0.3,0.7-0.6,0.7c-0.4,0.1-0.4,0.4-0.5,0.5c0,0.1,0,0.4,0.3,0.6c0.5,0.3,0.9,0.1,1.2,0
	c0.4-0.2,0.6-0.4,0.9-0.6c0.1-0.1,0.1-0.1,0.2-0.2l0.1,0c0,0,0.1-0.1,0.1-0.1c0.2,0,0.4,0,0.6,0c-0.4,0.5-0.8,1-1.2,1.5
	c-0.2,0.2-0.3,0.3-0.5,0.5c-0.4,0.3-0.7,0.7-1.1,1.1c-0.5,0.7-0.8,1.4-0.8,2.2c0,0.1,0.1,0.3,0.2,0.4c0.1,0.1,0.3,0.1,0.4,0.1
	c0.2,0,0.4-0.1,0.5-0.2l0.1-0.1c0.5-0.4,1.1-0.7,1.6-0.9c0.6-0.2,1.2-0.5,1.8-0.7c0.1,0,0.1-0.1,0.2-0.1c-0.2,0.5-0.4,1.1-0.2,1.8
	c0,0.2,0.1,0.3,0.3,0.4c0.2,0.1,0.3,0,0.5-0.1c0.8-0.6,1.5-1,2.3-1.3c-0.4,0.7-0.8,1.5-0.9,2.4c-0.1,1.1,0.6,3.3,1.1,3.7
	c0.1,0.1,0.3,0.2,0.5,0.1c0.2-0.1,0.3-0.2,0.3-0.4c0-0.5,0.1-1,0.1-1.5c0.1-0.8,0.5-1.2,1.1-1.5c0.4-0.2,0.9-0.4,1.3-0.7l0.1-0.1
	c0.2-0.2,0.4-0.4,0.6-0.6c0.1-0.1,0.2-0.2,0.3-0.3C74.5,46.1,74.4,45.7,74.2,45.3"/>
<rect x="30.2" y="8.2" class="st1" width="1.1" height="1.1"/>
<rect x="34.3" y="8.2" class="st1" width="1.1" height="1.1"/>
<path class="st1" d="M29.1,6.8l3.3-2.4v2.1c0,0.1,0.1,0.3,0.2,0.3l0,0l0,0C32.7,7,32.9,7,33,6.9l0.2-0.1v0l3.3-2.4v1.7v0.5
	c0,0.1,0.1,0.3,0.2,0.3l0,0l0,0C36.8,7,37,7,37.2,6.9l0.2-0.1v0l3.3-2.4v1.1h0.9V3.6c0-0.1-0.1-0.3-0.2-0.3l0,0l0,0
	c-0.1-0.1-0.4-0.1-0.5,0l-0.2,0.1v0l-3.3,2.4V4V3.6c0-0.1-0.1-0.3-0.2-0.3l0,0l0,0c-0.1-0.1-0.3-0.1-0.5,0l-0.2,0.1v0l-3.3,2.4V4
	V3.6c0-0.1-0.1-0.3-0.2-0.3l0,0l0,0c-0.1-0.1-0.4-0.1-0.5,0l-4.1,3c-0.1,0.1-0.2,0.2-0.2,0.3v4.8c0.3,0.2,0.6,0.4,0.9,0.6V6.8z"/>
<path class="st1" d="M25.1,14.3l0.5,0.3l0.5-0.9l-0.5-0.3c-0.5-0.3-1-0.5-1.5-0.8l-0.5-0.2l-0.5,1l0.5,0.2
	C24.2,13.8,24.6,14.1,25.1,14.3"/>
<path class="st1" d="M44.8,22.5l0.5-0.1l-0.2-1.1l-0.5,0.1c-0.5,0.1-1,0.2-1.5,0.2l-0.5,0l0.1,1.1l0.5,0
	C43.7,22.7,44.2,22.6,44.8,22.5"/>
<path class="st1" d="M32.6,19.6l0.6-0.9L32,17.8c0,0-0.2-0.1-0.5-0.4L31,17.2L30.4,18l0.4,0.3c0.3,0.2,0.5,0.4,0.5,0.4L32.6,19.6z"
	/>
<path class="st1" d="M27.9,16.2c0.2,0.1,0.4,0.3,0.7,0.6l0.4,0.3l0.6-0.9l-0.4-0.3c-0.3-0.2-0.6-0.4-0.7-0.5
	c-0.2-0.1-0.4-0.3-0.6-0.4l-0.4-0.3l-0.6,0.9l0.4,0.3C27.5,15.9,27.7,16.1,27.9,16.2"/>
<path class="st1" d="M40.8,22.8l0.1-1.1l-0.5,0c-0.5,0-1-0.1-1.5-0.3l-0.5-0.1l-0.3,1.1l0.5,0.1c0.6,0.1,1.1,0.2,1.7,0.3L40.8,22.8z
	"/>
<path class="st1" d="M36.5,21.8l0.4-1l-0.5-0.2c-0.5-0.2-1-0.5-1.4-0.7l-0.5-0.3L34,20.5l0.5,0.3c0.5,0.3,1,0.5,1.5,0.8L36.5,21.8z"
	/>
<path class="st1" d="M67.6,37.1c0.8,4.3,5,6.8,5.3,7c0.1,0,0.5,0.3,1.2,0.6c-0.3-0.6-0.6-1.2-0.8-1.8c-0.9-0.5-3.8-2.7-4.4-6
	c-0.4-2.2,0.3-4.5,2.2-6.9c0-0.2,0-0.3,0-0.5c0-0.4,0-0.8-0.1-1.2c-0.2,0.2-0.3,0.3-0.3,0.3c0,0,0,0,0,0
	C68.1,31.5,67.1,34.3,67.6,37.1"/>
<path class="st1" d="M63.9,64.3c-0.1,0-0.2,0-0.2,0c-0.3-0.3-1-1.4-1.6-2.4c-0.8-1.2-1.6-2.4-2.3-3.4c0.5-0.4,0.8-1.1,0.7-2.1
	c0,0-0.2-2.2-1.1-2.3c-0.3,0-0.6,0.1-0.7,0.5l0,0c-0.2,0.5-0.4,1.3-1,1.7c-0.2-0.1-0.3-0.1-0.5-0.2c0.4-0.7,0.4-1.7-0.3-2.6
	c0,0,0,0,0,0c-0.2-0.3-0.4-0.3-0.5-0.3c-0.2,0-0.4,0.1-0.5,0.3c-0.1,0.1-0.1,0.2-0.2,0.4c-0.2,0.4-0.3,0.9-1.3,1.3
	c-0.8,0.4-1.3,1.1-1.4,1.9c-0.3-0.2-0.7-0.3-1-0.4c-0.6-0.1-1.2,0-1.7,0.4c-0.3,0.3-0.5,0.6-0.6,0.9c0,0.4,0.3,0.9,0.7,1.2
	c-0.5,0.1-1,0.2-1.4,0.2c-0.3,0.4-0.6,0.8-0.9,1.2c1.2-0.1,2.5-0.3,3.8-0.6c0.2-0.1,0.4-0.2,0.4-0.5c0-0.2-0.1-0.4-0.3-0.6
	c-0.5-0.3-1.1-0.7-1.2-1c0.1-0.1,0.5-0.3,0.9-0.3c0.5,0.1,1.2,0.5,1.4,0.9l0,0c0.3,0.5,0.7,0.3,0.8,0.3c0,0,0.4-0.2,0.3-0.7
	c-0.5-1.4,0.4-1.9,0.7-2c0.7-0.3,1.1-0.7,1.4-1.1c-0.1,0.7-0.8,1.3-0.9,1.4c-0.2,0.2-0.3,0.5-0.1,0.8c0.2,0.2,0.5,0.3,0.8,0.1
	c0.1,0,0.6-0.4,1.1-0.1c0.3,0.2,0.5,0.2,0.7,0.1c0.7-0.3,1.1-0.9,1.4-1.5c0.1,0.4,0.2,0.9,0,1.3c-0.1,0.3-0.2,0.4-0.4,0.4
	c-0.1,0-0.4,0.1-0.5,0.5c-0.1,0.2,0,0.4,0.1,0.6c0.7,0.8,1.7,2.4,2.6,3.7c1.2,1.9,1.7,2.5,2,2.7c0.1,0.1,0.3,0.1,0.5,0.2
	c0.1,0,0.2,0,0.2,0.1c0.1,0.4-0.1,1.1-0.3,1.5l-0.1,0c-0.1,0-0.2,0.1-0.3,0.2c-0.3,0.4-0.8,1-0.9,1.1c-0.4,0.3-0.8,0.1-1.5-0.2
	c-0.3-0.1-0.5-0.2-0.8-0.3c-1.1-0.3-2.5-0.5-4.1-0.2c-0.8,0.2-1.5,0.4-2.3,0.8C52.7,69,52.2,71,52,71.9c-0.1,0.3,0.1,0.6,0.4,0.7
	c0,0,0.1,0,0.1,0c0.3,0,0.5-0.2,0.5-0.4c0.2-1.2,0.7-2.4,1-2.6c0.7-0.3,1.4-0.6,2-0.7c1.4-0.3,2.6-0.1,3.6,0.2
	c0.1,0,0.3,0.1,0.6,0.2c0.7,0.3,1.7,0.8,2.7,0c0.3-0.2,0.8-0.9,1-1.2l0.1,0c0.1,0,0.3-0.1,0.3-0.3c0.1-0.2,1-1.9,0.3-3
	C64.6,64.5,64.3,64.4,63.9,64.3"/>
<path class="st1" d="M66,52.2c-1.7,0-3.3,0.7-4.3,1.9c0,0,0,0,0,0l0,0.1c-0.1,0.1-0.2,0.3-0.3,0.4l0.2,0.5c1.4,0.2,2.8,1.6,2.8,1.7
	l0.2,0.2l0.3-0.1c0.3-0.1,0.7,0,1.1,0.2l-1.5,2.8c-0.2,0-0.4,0-0.6,0c-0.1,0-0.2,0-0.4,0c-0.3,0-0.6,0-0.8,0c-0.3,0-0.7,0-1,0l1,1.4
	c0.6,0,1.4,0,1.9,0c0.1,0,0.1,0,0.1,0c0.5,0,1,0.1,1.5,0.2c1.2,0.2,2.4,0.4,3.5,0.8c0.3-0.4,0.5-0.8,0.8-1.1c-1.6-0.6-3.3-0.9-5-1.1
	l1.3-2.4c0.3,0.2,0.5,0.4,0.5,0.6l0.1,0.5l0.5-0.1c0.5-0.1,1.3,0.2,2.1,1c0,0,0,0,0,0l0,0c0.1,0.1,0.2,0.3,0.4,0.4l0.4,0.1
	c0.5-0.8,0.8-1.7,0.8-2.7C71.6,54.5,69.1,52.2,66,52.2 M70.4,58.6c-0.8-0.7-1.7-1.1-2.4-1.1c-0.6-1-2.1-1.7-3.2-1.6
	c-0.3-0.3-1.1-1-2.1-1.4c0.9-0.8,2-1.3,3.3-1.3c2.5,0,4.6,1.9,4.6,4.2C70.6,57.8,70.5,58.2,70.4,58.6"/>
<path class="st1" d="M52.4,66.4c0.4-0.2,0.8-0.2,1-0.1c0.2,0.1,0.5,0,0.7-0.2c0.2-0.2,0.2-0.4,0.1-0.7c-0.1-0.4-0.4-0.6-0.7-0.8
	c-0.3-0.2-0.7-0.3-1.2-0.3c-1-1.1-2.2-2-3-2.1c-0.1,0-0.5-0.1-0.8-0.1c-0.9,0.1-1.7,0.4-2.4,1c-0.7,0.6-1.2,1.4-1.5,2.3h0
	c-0.1,0.2-0.2,0.7-0.2,1c-0.1,0.9,0.1,1.8,0.5,2.7l0.2,0.5c0.5,0.9,1.2,1.8,1.8,2.3c0.5,0.4,0.9,0.5,1.2,0.5c0.2,0,0.3,0,0.4-0.1
	c0.7-0.3,0.9-1.2,0.8-2.6h0c0-0.3-0.2-1.5-0.3-1.9c-0.1-0.4-0.2-0.7-0.2-1c0,0-0.2-1.3,0.5-1.6c0.6-0.2,1.1,0,1.3,0.3
	c-0.1,0.1-0.1,0.3-0.2,0.5c-0.1,0.4,0,1,0.5,1.6c0.2,0.2,0.5,0.3,0.7,0.2c0.2-0.1,0.4-0.3,0.4-0.6C52,66.8,52.1,66.5,52.4,66.4
	 M48.2,71.5c-0.1,0-0.4,0-0.8-0.3c-0.5-0.4-1.1-1-1.5-1.8c0.5-0.5,1.2-1,2.3-0.8c0.1,0.4,0.1,1,0.2,1.1l0,0
	C48.6,70.6,48.4,71.4,48.2,71.5 M46.3,67.3c0.1-0.1,0.3-0.1,0.3-0.2c0.1,0,0.2,0,0.3,0c0,0.1,0,0.4,0,0.8c-0.1,0-0.2,0.1-0.2,0.1
	C46.4,67.7,46.3,67.4,46.3,67.3 M51.2,66.5c0-0.4,0.2-0.7,0.2-0.7c0.1-0.1,0.1-0.3,0-0.4c-0.2-0.4-0.5-0.7-0.9-0.9
	c-0.5-0.2-1-0.2-1.5-0.1c-0.4,0.1-0.7,0.4-0.9,0.7c-0.3,0.6-0.3,1.5-0.1,2.6c-0.1,0-0.2,0-0.2,0c0-0.4,0-0.8,0-0.9
	c-0.1-0.2-0.2-0.4-0.4-0.4c-0.5-0.2-1-0.1-1,0c-0.1,0-0.6,0.2-0.9,0.5c-0.3,0.4,0,0.9,0.2,1.1c0,0.1,0.1,0.2,0.2,0.3
	c0,0.1,0.1,0.1,0.1,0.2c-0.1,0.1-0.2,0.2-0.4,0.2c-0.2-0.6-0.4-1.3-0.3-2.1l0,0c0-0.2,0.1-0.5,0.1-0.7l0-0.1c0,0,0,0,0,0
	c0.2-0.8,0.6-1.5,1.2-1.9c0.5-0.4,1.1-0.7,2-0.8c1.1-0.2,2.7,1.4,3.2,2c0.1,0.1,0.2,0.2,0.4,0.2c0.5-0.1,0.8,0.1,1,0.2h0
	c-0.3,0-0.6,0.1-1,0.2C51.7,65.8,51.4,66.1,51.2,66.5"/>
<path class="st1" d="M47.5,69.8c-0.1-0.1-0.3-0.1-0.4-0.1c-0.1,0-0.3,0.1-0.3,0.3c-0.1,0.1-0.1,0.3-0.1,0.4c0,0.1,0.1,0.3,0.3,0.3
	c0.1,0,0.2,0.1,0.3,0.1c0,0,0.1,0,0.1,0c0.1,0,0.3-0.1,0.3-0.3c0.1-0.1,0.1-0.3,0.1-0.4C47.8,70,47.7,69.9,47.5,69.8"/>
<rect x="35.8" y="13.2" class="st1" width="2.9" height="1.1"/>
<rect x="35.8" y="15" class="st1" width="2.9" height="1.1"/>
<path class="st1" d="M44.1,8.3H43c-0.1,0-0.1,0.1-0.1,0.1v1h-1c-0.1,0-0.1,0.1-0.1,0.1v1.1c0,0.1,0.1,0.1,0.1,0.1h1v1
	c0,0.1,0.1,0.1,0.1,0.1h1.1c0.1,0,0.1-0.1,0.1-0.1v-1h1c0.1,0,0.1-0.1,0.1-0.1V9.6c0-0.1-0.1-0.1-0.1-0.1h-1v-1
	C44.3,8.4,44.2,8.3,44.1,8.3"/>
<path class="st1" d="M45.1,17.9v-2.3h0.6v-0.6h-0.9h-2.5h-0.9v0.6H42v2.9c0.2,0,0.4,0,0.6,0v-2.8h1.9v2.5
	C44.7,18,44.9,17.9,45.1,17.9"/>
<path class="st1" d="M39.4,6.5v4.8h-4.8c-0.3,0-0.5,0.2-0.5,0.5v3.9c0.3,0.2,0.6,0.4,0.9,0.6v-4h4.4v5.9c0.3,0.1,0.6,0.1,0.9,0.2V7
	h6.4v9.9l0.9-0.7v-3.9H52v1.9l0.2,0.1c0.2-0.2,0.4-0.4,0.7-0.4v-2c0-0.3-0.2-0.5-0.5-0.5h-4.8V6.5c0-0.3-0.2-0.5-0.5-0.5h-7.3
	C39.6,6.1,39.4,6.3,39.4,6.5"/>
<path class="st1" d="M43.1,50L43,53.5c0.2,0,0.4,0,0.5,0.1c0.2,0,0.4,0.1,0.5,0.2l1.6-3.1C45.7,50.7,44.7,49.6,43.1,50"/>
<path class="st1" d="M42.2,53.6l-1.1-3.3c0,0-1.5-0.1-2.3,1.4l2.4,2.5C41.6,53.9,41.9,53.7,42.2,53.6"/>
<path class="st1" d="M37.1,55.8l3.5,0.1c0-0.2,0-0.4,0.1-0.6c0-0.2,0.1-0.3,0.2-0.5l-3.1-1.6C37.7,53.2,36.6,54.2,37.1,55.8"/>
<path class="st1" d="M38.7,60.1l2.5-2.4c-0.3-0.3-0.5-0.6-0.6-0.9l-3.3,1.1C37.3,57.8,37.3,59.2,38.7,60.1"/>
<path class="st1" d="M40.3,61.2C40.3,61.2,40.3,61.2,40.3,61.2C40.3,61.2,40.3,61.2,40.3,61.2C40.3,61.3,40.3,61.3,40.3,61.2
	C40.3,61.3,40.3,61.3,40.3,61.2c0.1,0.1,0.1,0.1,0.1,0.1c0,0,0,0,0,0c0,0,0,0,0.1,0c0,0,0,0,0,0c0,0,0,0,0.1,0.1c0,0,0,0,0,0
	c0,0,0.1,0,0.1,0.1c0,0,0,0,0,0c0,0,0.1,0,0.1,0.1c0,0,0,0,0,0c0,0,0.1,0,0.1,0.1c0,0,0,0,0,0c0,0,0.1,0,0.1,0.1c0,0,0,0,0,0
	c0,0,0.1,0,0.1,0.1c0,0,0,0,0,0c0,0,0.1,0,0.1,0.1l0,0c0.1,0,0.1,0,0.2,0c0,0,0,0,0,0c0.1,0,0.1,0,0.2,0c0,0,0,0,0,0
	c0.1,0,0.1,0,0.2,0h0c0.1,0,0.1,0,0.2,0c0,0,0,0,0,0c0.1,0,0.1,0,0.2,0h0c0.1,0,0.1,0,0.2,0l0,0c0,0,0.1,0,0.1,0c0,0,0,0,0.1,0
	c0.1,0,0.1,0,0.2,0h0l0-0.1l0.1-3.4c-0.2,0-0.4,0-0.6-0.1c-0.2,0-0.3-0.1-0.5-0.2l-1.3,2.6L40.3,61.2C40.3,61.2,40.3,61.2,40.3,61.2
	C40.3,61.2,40.3,61.2,40.3,61.2"/>
<path class="st1" d="M47.1,60.2l-2.4-2.5c-0.3,0.3-0.6,0.4-0.9,0.6l1.1,3.3C44.8,61.6,46.3,61.7,47.1,60.2"/>
<path class="st1" d="M48.9,56.1L45.4,56c0,0.2,0,0.4-0.1,0.5c0,0.2-0.1,0.4-0.2,0.5l3.1,1.6C48.3,58.7,49.4,57.7,48.9,56.1"/>
<path class="st1" d="M48.6,54.1c0,0,0.1-1.5-1.4-2.3l-2.5,2.4c0.3,0.3,0.4,0.6,0.6,1L48.6,54.1z"/>
<path class="st1" d="M44.7,55.9c0-1-0.8-1.8-1.8-1.8c-1,0-1.8,0.8-1.8,1.8c0,1,0.8,1.8,1.8,1.8C44,57.7,44.7,56.9,44.7,55.9"/>
<rect x="43.1" y="36.5" class="st1" width="1.1" height="1.1"/>
<rect x="43.1" y="38.3" class="st1" width="1.1" height="1.1"/>
<rect x="54.8" y="36.5" class="st1" width="1.1" height="1.1"/>
<rect x="54.8" y="38.3" class="st1" width="1.1" height="1.1"/>
<rect x="57.1" y="20.7" class="st1" width="1.1" height="1.1"/>
<rect x="50.6" y="17.3" class="st1" width="1.1" height="1.1"/>
<path class="st1" d="M14.9,51.4c3.6,0.8,7.3,2.8,9.3,5l1.2-0.4c-2.1-2.6-6.2-4.9-10.2-5.8c-3.6-0.9-7.9-0.6-11.5,1v1.4
	C7.2,50.6,11.5,50.5,14.9,51.4"/>
<path class="st1" d="M16.5,49.2L16.5,49.2c3.7,0.8,8.2,3.7,10.2,6.1l1.2-0.4l0,0c-1.8-2.5-6.2-5.4-10.2-6.6c0.2-0.1,0.6-0.4,0.7-0.4
	c0.2-0.2,0.4-0.3,0.5-0.5c3.8,1.1,8.4,4.5,10.1,7c0,0,0,0,0,0l1.2-0.4c-0.1-0.1-0.1-0.2-0.2-0.3c-0.4-0.6-0.9-1.2-1.5-1.8
	c0.3-0.2,1.1-0.7,1.3-0.9c2.9-1.7,10.5-4,14.4-3c0.1,0.1,0.2,0.1,0.2,0.1c1.1,0.8,2.7,1.3,4.3,1.4c0.1,0,0.2,0,0.3,0
	c0.3,0,0.5,0,0.7,0c0,0.1,1.8-0.3,2.3-0.5c0.1,0,0.1-0.1,0.2-0.1c0.7-0.3,1.4-0.3,2.2-0.1c0.3,0.1,0.7,0.3,1,0.5
	c0,0,0.1,0.1,0.1,0.1c0.1,0.1,0.3,0.2,0.4,0.3c1.3,1,2.7,1.9,4.4,2.1c1,0.1,2.1,0,3.1-0.2c0.2,0,0.4-0.1,0.5-0.1
	c0.6-0.2,1.1-0.5,1.7-0.6c0.9-0.1,2.2-0.3,3.1,0.1c-0.2-0.5-0.4-0.9-0.5-1.4c-0.7,0,0,0-0.9,0c-1.3-0.1-2.1,0-3.5,0.6
	c0,0-0.2,0.1-0.6,0.2c-0.6,0.2-1.5,0.4-2.2,0.3c-0.1,0-0.1,0-0.1,0c-1.2-0.1-2.7-0.7-3.8-1.4c-0.1-0.1-0.2-0.1-0.3-0.2
	c-0.4-0.3-0.8-0.6-1.2-0.9c-0.2-0.1-0.5-0.3-0.7-0.4c-1.2-0.4-2.4-0.4-3.4,0.1c-0.8,0.4-1.8,0.5-2.8,0.4c-1.9-0.1-4.2-1.6-4.2-1.6
	c-1.4-1.2-3.1-2.2-4.9-2.9c0,0,0,0,0,0c0,0,0,0,0,0c1.7-0.9,3.6-1.6,5.7-2c0.4-0.1,0.7-0.1,1.1-0.2c0.4-0.1,0.9-0.1,1.3-0.1
	c0.6,0,2.5,0,2.5,0c0.6,0,1.1,0,1.7,0c3.7,0.2,7.1,1.5,9.7,3.4c0.1-0.5,0.5-1,0.8-1.3c-1.3-1-3-1.8-4.8-2.4l0-6.1
	c0-0.1-0.1-0.3-0.2-0.4s-0.2-0.2-0.4-0.2l-2.9,0l0-0.3c0-0.2-0.1-0.4-0.3-0.5L50,31.3l0-0.6l2.9,0c0.1,0,0.3-0.1,0.4-0.2
	c0.1-0.1,0.2-0.2,0.2-0.4l0-1.7c0-0.1-0.1-0.3-0.2-0.4c-0.1-0.1-0.2-0.2-0.4-0.2h0l-3.5,0c-0.1,0-0.3,0.1-0.4,0.2
	c-0.1,0.1-0.2,0.2-0.2,0.4l0,2.9l-3.8,2.4c-0.2,0.1-0.3,0.3-0.3,0.5l0,0.3l-2.9,0c-0.1,0-0.3,0.1-0.4,0.2c-0.1,0.1-0.2,0.2-0.2,0.4
	l0,6.3c-0.1,0-0.1,0-0.2,0.1c-0.3,0.1-0.6,0.2-0.9,0.4c-0.1,0-0.1,0.1-0.2,0.1c-0.4-0.5-0.8-1.1-1-1.6c-0.2-0.4-0.4-0.9-0.5-1.3
	c-0.1-0.5-0.2-0.9-0.1-1.4c0-0.5,0.1-1,0.2-1.4c0-0.1,0.5-1.5,0.5-1.5c-0.6-0.1-1.2-0.1-1.7-0.1c0-0.2,0-0.5,0-0.7
	c0-0.2,0-0.4,0-0.5c0-0.1,0-0.2,0-0.3c0,0,0-0.1,0-0.1c0-0.1,0-0.1,0-0.2c0-0.2,0.1-0.4,0.1-0.5c0-0.1,0-0.1,0.1-0.2
	c0,0,0-0.1,0-0.1c0,0,0-0.1,0-0.1c0.1-0.2,0.2-0.3,0.3-0.5c0,0,0.1-0.1,0.1-0.1c0,0,0-0.1,0.1-0.1c0.1-0.1,0.1-0.1,0.2-0.2
	c0.1-0.1,0.2-0.3,0.4-0.4c0.1-0.1,0.1-0.1,0.2-0.2c0,0,0,0,0.1-0.1c0,0,0.1,0,0.1,0c0.1-0.1,0.3-0.2,0.4-0.3c0.1,0,0.1-0.1,0.2-0.1
	c0,0,0.1,0,0.1-0.1c0,0,0.1,0,0.1,0c0.3-0.1,0.5-0.2,0.8-0.2c0.1,0,0.1,0,0.2,0c0,0,0,0,0,0c0,0,0.1,0,0.1,0c0.1,0,0.3,0,0.4,0
	c0.1,0,0.3,0,0.4,0c0.1,0,0.1,0,0.2,0c0,0,0.1,0,0.1,0c0,0,0,0,0,0c0.3,0.1,0.7,0.1,1,0.2c0.1,0,0.1,0,0.2,0.1c0,0,0.1,0,0.1,0
	c0,0,0,0-0.1,0c0,0,0,0,0.1,0c0.1,0,0.2,0.1,0.3,0.1c0.2,0.1,0.4,0.2,0.6,0.3c1.1,0.3,2.2-0.1,3.3-0.3c0.2,0,0.4-0.1,0.6-0.1v-1.1
	c-0.2,0-0.3,0.1-0.5,0.1c-0.4,0.1-0.9,0.2-1.3,0.3c-0.1,0-0.3,0.1-0.4,0.1c0,0-0.1,0-0.1,0c0,0-0.1,0-0.1,0c-0.1,0-0.2,0-0.3,0
	c-0.2,0-0.4,0-0.5,0c0,0-0.1,0-0.1,0h0c0,0,0,0,0,0c-0.1,0-0.1,0-0.2,0c-0.1,0-0.1,0-0.2,0c0,0,0,0,0,0c-0.1,0-0.2-0.1-0.2-0.1
	c-0.2-0.1-0.5-0.2-0.7-0.3c-0.6-0.2-1.3-0.4-2-0.4c-1.4,0-2.7,0.5-3.7,1.5c-0.6,0.6-1.2,1.4-1.4,2.3c-0.2,0.7-0.2,1.5-0.2,2.2
	c-0.5,0-1,0-1.5,0c0.1-1.2,0.2-2.3,0.5-3.5c0.1-0.3,0.2-0.5,0.3-0.8c0.1-0.1,0.1-0.3,0.2-0.4c0-0.1,0.1-0.1,0.1-0.2
	c0,0,0-0.1,0.1-0.1c0,0,0,0,0-0.1c0.2-0.2,0.4-0.4,0.6-0.6c0.1,0,0.1-0.1,0.2-0.1c0,0,0.1,0,0.1-0.1c0,0-0.1,0.1,0,0
	c0.1-0.1,0.2-0.2,0.3-0.2c0.2-0.2,0.5-0.3,0.7-0.4c0.1,0,0.1-0.1,0.2-0.1c0,0,0.1,0,0.1,0c0.1-0.1,0.3-0.1,0.4-0.2
	c0.6-0.2,1.1-0.3,1.7-0.4c0.6-0.1,1.3-0.3,1.8-0.7c0.5-0.4,0.8-0.9,1.2-1.3c0.1-0.1,0.2-0.1,0.3-0.2c0.1-0.1,0.3-0.2,0.4-0.2
	c0.1-0.1,0.3-0.1,0.4-0.2c0,0,0,0,0.1,0c0,0,0,0,0,0c0,0,0,0,0,0c0.1,0,0.2-0.1,0.3-0.1c0.5-0.2,1.1-0.4,1.6-0.5l0.2,0
	c0.9-0.2,1.9-0.3,3-0.2c2.1,0.1,4.1,0.5,6.1,1c1.8,0.4,3.6,0.9,5.5,1c0.2,0,0.4,0,0.5,0c1.9,0,4-0.8,5.4-2c-0.3-0.2-0.5-0.4-0.9-0.7
	c-1.2,1-3,1.7-4.4,1.6v-3.7c0-0.1-0.1-0.3-0.2-0.3l-0.8-0.6v-2.1c0-0.2-0.2-0.4-0.4-0.4h-1.3c-0.2,0-0.4,0.2-0.4,0.4v0.5l-1.2-0.8
	c-0.1-0.1-0.3-0.1-0.5,0l-1.6,1.2V18c0-0.1-0.1-0.3-0.2-0.3L54.8,17v-2c0-0.2-0.2-0.4-0.4-0.4h-1.3c-0.2,0-0.4,0.2-0.4,0.4v0.5
	l-1.2-0.8c-0.1-0.1-0.3-0.1-0.5,0l-4.1,3c-0.1,0.1-0.1,0.2-0.2,0.3c-3,1.1-5.6,1.4-7.9,0.7c-2.9-0.8-5.3-2.5-7.6-4.3l-0.1-0.1
	c-2-1.6-3.9-3.1-6.2-4.2c-0.3,0.3-0.6,0.5-0.9,0.7l0,0c2.3,1,4.3,2.6,6.3,4.1c2.4,1.9,5,3.8,8,4.7c2.5,0.8,5.3,0.6,8.4-0.5V22
	l0.9-0.3v-3.5l3.7-2.7l1.6,1.1c0.1,0.1,0.3,0.1,0.4,0c0.1-0.1,0.2-0.2,0.2-0.4v-0.9H54v1.8c0,0.1,0.1,0.3,0.2,0.3l0.8,0.6v1.5
	l-1.7,1.2c-0.1,0.1-0.2,0.2-0.2,0.3v2c-2-0.3-4.2-0.5-6.2-0.1c0,0-0.1,0-0.1,0c-0.7,0.2-1.4,0.4-2.1,0.7c-3.1,0.9-6.3,0.5-9.2-0.8
	c-3-1.4-5.5-3.7-8.2-5.6c-3-2.2-6.3-4.2-10.1-4.3c-2.6-0.1-5.2,0.1-7.8,0.1v1.1c2.4,0,4.9-0.1,7.3-0.1c1.4,0,2.8,0.2,4.2,0.7
	c2.1,0.8,4.2,2.2,6,3.5c2.1,1.5,4.2,3.3,6.4,4.6c-1.7-0.1-3.3-0.1-5,0.1c-2.2,0.3-4.4,0.9-6.4,1.9c-1.1,0.6-2,1.3-2.9,2.1l0.8,0.8
	c0.2-0.2,0.4-0.3,0.5-0.5c0.1-0.1,0.2-0.2,0.3-0.2c0,0,0.1-0.1,0.2-0.1c0,0,0,0,0,0c0,0,0.1-0.1,0.1-0.1c0.4-0.3,0.8-0.6,1.3-0.8
	c0.4-0.3,0.9-0.5,1.4-0.7c0.1,0,0.1,0,0.2-0.1c0,0,0.1,0,0.1,0c0.1-0.1,0.3-0.1,0.4-0.2c0.2-0.1,0.5-0.2,0.7-0.3
	c2.2-0.7,4.4-0.9,6.7-0.9c1.4,0,2.7,0.1,4.1,0.2c0,0,0.1,0,0.1,0c2.1,0.8,4.4,1.2,6.6,1c-0.1,0.2-0.3,0.3-0.4,0.5
	c-0.1,0.1-0.2,0.2-0.3,0.3l0,0c0,0-0.1,0-0.1,0.1c-0.1,0-0.1,0.1-0.2,0.1c0,0,0,0-0.1,0c0,0-0.1,0-0.1,0c-0.1,0-0.1,0-0.2,0.1
	c-0.2,0-0.3,0.1-0.5,0.1c-0.6,0.1-1.2,0.2-1.8,0.4c-0.6,0.2-1.2,0.4-1.7,0.7c-1.1,0.7-2,1.7-2.5,2.9c-0.6,1.3-0.7,2.8-0.8,4.2
	c-0.3,0-0.4,0-0.4,0c-0.4,0-0.8,0.1-1.3,0.1c0,0,0.4,1.4,0.4,1.5c0.1,0.4,0.1,0.9,0.1,1.3c0,0.9-0.3,1.7-0.7,2.6
	c-0.2,0.5-0.5,0.9-0.9,1.3c-0.2,0.2-0.4,0.5-0.6,0.7c-0.1,0-0.1,0-0.2,0c-0.1,0-0.2,0-0.4,0c-0.3,0-0.6,0-1,0c-0.2,0-0.4,0-0.6,0.1
	c-0.2,0-0.4,0-0.7,0.1v-2.3H29c0.2,0,0.8-0.1,1.1-0.3c0.2-0.1,0.4-0.4,0.4-0.4c0.5-0.5,0.8-1.2,0.8-1.9c0-0.2-0.2-0.4-0.4-0.4h-1.5
	c-0.6,0-1.2,0.2-1.6,0.6v-0.9c0.4,0.1,0.8,0.1,1.2-0.1c0.4-0.2,0.6-0.5,0.8-0.9c0.5,0.1,1.1,0,1.4-0.4c0.4-0.4,0.5-0.9,0.4-1.4
	c0.5-0.2,0.9-0.6,1-1.1c0.1-0.5,0-1.1-0.4-1.5c0.4-0.4,0.5-0.9,0.4-1.5c-0.1-0.5-0.5-0.9-1-1.1c0.1-0.5,0-1.1-0.4-1.4
	s-0.9-0.5-1.4-0.4c-0.2-0.5-0.6-0.9-1.1-1c-0.5-0.1-1.1,0-1.5,0.4c-0.4-0.4-0.9-0.5-1.5-0.4c-0.5,0.1-0.9,0.5-1.1,1
	c-0.5-0.1-1.1,0-1.4,0.4c-0.4,0.4-0.5,0.9-0.4,1.4c-0.5,0.2-0.9,0.6-1,1.1c-0.1,0.5,0,1.1,0.4,1.5c-0.4,0.4-0.5,0.9-0.4,1.5
	c0.1,0.5,0.5,0.9,1,1.1c-0.1,0.5,0,1.1,0.4,1.4s0.9,0.5,1.4,0.4c0.1,0.4,0.4,0.8,0.8,0.9c0.4,0.2,0.8,0.2,1.2,0v1
	c-0.5-0.4-1-0.6-1.7-0.6h-1.5c-0.2,0-0.4,0.2-0.4,0.4c0,0.7,0.3,1.4,0.8,1.9c0,0,0.4,0.5,1,0.6c0.4,0.1,1.4,0.1,1.8,0v2.4
	c-2.2,0.4-4.3,1.1-6.1,2.1c0-0.1,0-0.1,0-0.1v0c0-0.1,0-0.2,0-0.4c0.2-0.1,0.4-0.1,0.6-0.2c0.6-0.2,1.2-0.5,1.4-0.6
	c0.3-0.1,0.5-0.3,0.7-0.5l0,0c0.1-0.3,0.2-0.6,0.1-0.8l0-0.1c0,0,0-0.1-0.1-0.3l0,0c0,0,0-0.1,0-0.2c0-0.1-0.1-0.3-0.1-0.5
	c0-0.2-0.1-0.3-0.1-0.5c0-0.1,0-0.1,0-0.1l-0.1-0.3l0,0c-0.1-0.2-0.2-0.4-0.4-0.6c0,0-0.1-0.1-0.2-0.1l0,0c0,0-0.1,0-0.1-0.1
	c0,0,0,0,0,0c-0.2-0.1-0.5-0.1-0.7-0.1c-0.2,0-0.8,0.1-1.5,0.2c-0.2,0-0.5,0.1-0.7,0.1c0-0.1-0.1-0.1-0.1-0.2c0-0.1-0.1-0.1-0.1-0.1
	c0,0,0,0,0-0.1l0,0c0,0-0.1-0.2-0.2-0.3c0.1-0.2,0.3-0.4,0.4-0.6c0.3-0.5,0.7-1.1,0.8-1.3c0.2-0.2,0.3-0.5,0.2-0.8l0,0
	c0-0.3-0.2-0.5-0.4-0.8l0,0c0,0-0.1-0.1-0.2-0.2l0,0c0,0-0.1-0.1-0.1-0.1c-0.1-0.1-0.2-0.2-0.4-0.3l-0.7-0.5l0,0
	c-0.3-0.2-0.7-0.3-1-0.2c-0.3,0.1-0.5,0.2-0.6,0.4c-0.2,0.1-0.6,0.6-1.1,1c-0.2,0.2-0.3,0.3-0.5,0.5c-0.1,0-0.1-0.1-0.2-0.1
	c-0.1,0-0.2-0.1-0.2-0.1l-0.2-0.1c0,0-0.1,0-0.1,0l-0.1,0c0-0.2,0-0.4,0-0.7c0-0.3,0-0.7-0.1-1.1l0-0.4c0-0.2-0.1-0.5-0.2-0.7
	c-0.2-0.3-0.5-0.5-0.9-0.5c-0.1,0-0.2,0-0.4,0l-0.1,0c-0.2,0-0.3,0-0.5,0c-0.3,0-0.5,0-0.7,0L11,32c-0.4,0-0.7,0.2-0.9,0.4
	c-0.2,0.2-0.3,0.4-0.3,0.7c0,0.1-0.1,0.2-0.1,0.4c-0.1,0.3-0.1,0.7-0.2,1.1c0,0.2-0.1,0.5-0.1,0.7c0,0,0,0-0.1,0c0,0-0.1,0-0.1,0
	L9,35.3c-0.1,0-0.2,0-0.3,0.1c0,0-0.1,0-0.2,0.1c-0.1-0.2-0.3-0.3-0.4-0.5c-0.4-0.5-0.8-1-1-1.1c-0.1-0.2-0.4-0.4-0.6-0.4
	c-0.3-0.1-0.7-0.1-1,0.1L4.7,34l-0.8,0.6c-0.1,0.1-0.2,0.1-0.3,0.2v1.7c0.1,0.3,0.3,0.7,0.5,1c0.1,0.2,0.2,0.4,0.3,0.6
	c0,0-0.1,0.1-0.1,0.1c-0.1,0.1-0.1,0.2-0.2,0.3l0,0L4,38.7c0,0,0,0.1-0.1,0.1l0,0c0,0,0,0,0,0c-0.1,0-0.2-0.1-0.3-0.1v1.6
	c0.1,0,0.3,0.1,0.3,0.1l0.6,0.2L4.9,40c0.1-0.1,0.1-0.2,0.2-0.3c0-0.1,0.1-0.1,0.1-0.1l0.1-0.2c0,0,0,0,0,0c0,0,0,0,0.1-0.1l0,0
	c0.1-0.1,0.2-0.3,0.4-0.4l0.5-0.5l-0.3-0.5L6,37.8c0,0,0-0.1-0.1-0.1c-0.2-0.3-0.3-0.6-0.5-0.9c-0.2-0.5-0.5-0.9-0.6-1.2l0.6-0.4
	l0.6-0.3c0.2,0.2,0.5,0.6,0.9,1c0.3,0.3,0.5,0.6,0.6,0.8l0,0c0,0,0.1,0.1,0.1,0.1L8,37.3l0.5-0.2c0,0,0.1,0,0.1,0l0,0
	c0.2-0.1,0.4-0.1,0.6-0.2l0,0c0.1,0,0.1,0,0.1,0l0.2-0.1c0,0,0.1,0,0.2,0l0,0c0.1,0,0.2-0.1,0.3-0.1l0.7-0.1l0-0.6
	c0-0.1,0-0.6,0.1-1.2c0-0.3,0.1-0.7,0.2-1c0-0.1,0-0.2,0.1-0.3l0.1,0c0.1,0,0.4,0,0.5,0c0.2,0,0.4,0,0.5,0l0.1,0c0,0,0.1,0,0.1,0
	l0,0.3c0,0.4,0.1,0.7,0.1,1c0,0.5,0,0.9,0,1.2l0,0.6l0.8,0.2c0.1,0,0.1,0,0.2,0l0.1,0c0,0,0.1,0,0.1,0l0.2,0.1c0,0,0.1,0,0.2,0.1
	c0.1,0,0.2,0.1,0.3,0.1c0.1,0,0.1,0.1,0.2,0.1c0,0,0.1,0,0.1,0l0.5,0.3l0.4-0.5c0,0,0.1-0.1,0.1-0.1c0.2-0.2,0.4-0.5,0.7-0.7
	c0.4-0.4,0.8-0.7,0.9-0.9l0.6,0.4c0.1,0.1,0.2,0.1,0.3,0.2c0,0,0.1,0.1,0.1,0.1c0,0,0.1,0,0.1,0.1c-0.1,0.2-0.4,0.7-0.7,1.1
	c-0.2,0.4-0.5,0.7-0.7,1l-0.4,0.5l0.4,0.5c0,0,0,0,0.1,0.1l0,0c0.2,0.3,0.3,0.5,0.4,0.6h0c0,0,0,0,0,0c0,0,0,0,0,0l0,0c0,0,0,0,0,0
	c0.1,0.1,0.2,0.3,0.3,0.6c0,0,0,0,0,0.1c0,0,0,0,0,0c0,0,0,0,0,0l0.3,0.5l0.6-0.1c0.2-0.1,0.7-0.2,1.2-0.2c0.5-0.1,1-0.1,1.3-0.2
	c0,0,0,0.1,0,0.1l0.2,0.6c0,0.2,0.1,0.4,0.1,0.6c0,0,0,0.1,0,0.1c-0.3,0.1-0.7,0.3-1.2,0.5c-0.4,0.2-0.8,0.3-1.1,0.4L19,43.1l0,0.6
	c0,0,0,0.1,0,0.1l0,0c0,0.3,0,0.6,0,0.7h0c0,0,0,0.3-0.1,0.8l0,0c0,0,0,0.1,0,0.1l-0.1,0.4c-0.4,0.3-0.8,0.6-1.2,0.9
	c0,0-1,0.6-2.2,1.1c-3.1-0.6-7.3-0.6-10.7,0.6l0.1-0.1c-0.1-0.1-0.2-0.3-0.3-0.6l0,0c0,0,0-0.1,0-0.1l-0.3-0.5l-0.6,0.1v2.9
	C7.5,48.2,13.1,48.4,16.5,49.2 M56.4,35.6l0,5.2c-0.8-0.2-1.6-0.4-2.3-0.5l0-4.7L56.4,35.6z M49.9,40c-0.4,0-0.9,0-1.3,0l0-1.7
	c0-0.5,0.4-1,1-1c0.5,0,1,0.4,1,1l0,1.7C50.3,40,50.1,40,49.9,40 M52.3,29l0,0.6l-2.3,0l0-0.6L52.3,29z M49.5,32.3l3.5,2.2l0,5.7
	c-0.3,0-0.6-0.1-0.9-0.1c-0.3,0-0.6,0-0.9,0l0-1.7c0-0.9-0.7-1.6-1.7-1.6c-0.9,0-1.6,0.7-1.6,1.7l0,1.8c-0.1,0-0.1,0-0.2,0
	c-0.6,0-1.1,0.1-1.6,0.2l0-5.7L49.5,32.3z M44.9,35.7l0,4.8c-0.1,0-0.1,0-0.2,0c-0.8,0.2-1.5,0.4-2.1,0.6l0-5.4L44.9,35.7z M54,21.5
	l3.7-2.7l1.6,1.1c0.1,0.1,0.3,0.1,0.4,0c0.1-0.1,0.2-0.2,0.2-0.4v-0.9h0.4v1.8c0,0.1,0.1,0.3,0.2,0.3l0.8,0.6v3.4
	c-1.8-0.2-3.5-0.6-5.1-0.9c-0.7-0.2-1.5-0.3-2.3-0.5V21.5z M25.6,49.4c-0.4-0.3-0.9-0.6-1.3-0.9c0.2-0.2,0.5-0.4,0.8-0.6
	c2.6-1.7,7.6-3.4,11.1-3.8c0.1,0,0.3,0.1,0.4,0.1c0.6,0.1,1.1,0.3,1.6,0.5c0,0,0.1,0,0.1,0c-3.9,0.4-9.1,2.2-11.7,3.9
	c-0.3,0.2-0.6,0.4-0.8,0.6C25.8,49.2,25.7,49.3,25.6,49.4 M40.8,45.7c0.6,0.3,1.1,0.6,1.7,1c-3.9-0.2-10.4,1.6-13.5,3.4
	c-0.3,0.2-0.6,0.4-0.8,0.6c0,0-0.3,0.2-0.5,0.4c-0.3-0.3-0.7-0.6-1.1-0.9c0,0,0.1,0,0.1-0.1c0.3-0.2,0.6-0.4,0.9-0.7
	C30.4,47.7,37.1,45.6,40.8,45.7 M32.8,41.7c0.3-0.4,0.5-0.9,0.7-1.3c0.4-0.8,0.6-1.7,0.6-2.6c0-0.6,0-1.1-0.2-1.7
	c0.9-0.1,1.9-0.1,2.9-0.1c0.2,0,0.4,0,0.7,0c-0.1,0.5-0.2,1.1-0.2,1.7c0,0.7,0.1,1.4,0.3,2.1c0.1,0.4,0.3,0.9,0.5,1.3
	c0,0.1,0.1,0.1,0.1,0.2c0.2,0.4,0.5,0.9,0.9,1.3c-0.3,0.2-0.6,0.3-0.9,0.5c0,0-0.1,0-0.1,0.1c-0.2,0-0.3-0.1-0.5-0.1
	c-0.8-0.2-1.7-0.4-2.5-0.5c-0.5-0.1-1.1-0.1-1.6-0.2c-0.3,0-0.7,0-1,0C32.5,42.1,32.7,41.9,32.8,41.7 M29.3,38.1h1
	c-0.2,0.8-0.9,1.3-1.7,1.3h-0.9v-0.2C28,38.5,28.6,38.1,29.3,38.1 M28.7,35.6c-0.1,0.2-0.2,0.3-0.4,0.3l0,0c-0.2,0-0.3,0-0.5-0.1
	c-0.1-0.1-0.2-0.3-0.2-0.4v-0.9c0.2,0,0.4-0.1,0.6-0.2l0.5,0.8C28.8,35.3,28.8,35.5,28.7,35.6 M30.4,34.8L30.4,34.8
	c-0.1,0.1-0.3,0.2-0.5,0.2c-0.2,0-0.3-0.1-0.4-0.3l-0.5-0.8c0.2-0.1,0.3-0.3,0.4-0.4l0.8,0.5c0.2,0.1,0.3,0.2,0.3,0.4
	C30.6,34.5,30.6,34.6,30.4,34.8 M31.6,32.7L31.6,32.7c-0.1,0.2-0.2,0.3-0.3,0.4c-0.2,0.1-0.3,0.1-0.5,0L30,32.6
	c0.1-0.2,0.1-0.4,0.2-0.6h0.9c0.2,0,0.3,0.1,0.4,0.2C31.6,32.3,31.7,32.5,31.6,32.7 M30.8,29.9L30.8,29.9c0.2-0.1,0.3-0.1,0.5,0
	c0.2,0.1,0.3,0.2,0.3,0.4l0,0c0,0.2,0,0.3-0.1,0.5c-0.1,0.1-0.3,0.2-0.4,0.2h-0.9c0-0.2-0.1-0.4-0.2-0.6L30.8,29.9L30.8,29.9z
	 M29.6,28.3c0.1-0.2,0.2-0.3,0.4-0.3c0.2,0,0.3,0,0.5,0.2l0,0c0.1,0.1,0.2,0.3,0.2,0.5c0,0.2-0.1,0.3-0.3,0.4l-0.8,0.5
	c-0.1-0.2-0.3-0.3-0.4-0.4L29.6,28.3z M27.6,27.5c0-0.2,0.1-0.3,0.2-0.4c0.1-0.1,0.3-0.1,0.5-0.1l0,0c0.2,0,0.3,0.2,0.4,0.3
	c0.1,0.2,0.1,0.3,0,0.5l-0.5,0.8c-0.2-0.1-0.4-0.1-0.6-0.2V27.5z M25.6,27.3c0.1-0.2,0.2-0.3,0.4-0.3l0,0c0.2,0,0.3,0,0.5,0.1
	c0.1,0.1,0.2,0.3,0.2,0.4v0.9c-0.2,0-0.4,0.1-0.6,0.2l-0.5-0.8C25.5,27.6,25.5,27.5,25.6,27.3 M23.8,28.2L23.8,28.2
	C24,28,24.1,28,24.3,28c0.2,0,0.3,0.1,0.4,0.3l0.5,0.8c-0.2,0.1-0.3,0.3-0.4,0.4L24,29.1c-0.2-0.1-0.2-0.2-0.3-0.4
	C23.7,28.5,23.7,28.3,23.8,28.2 M22.6,30.3L22.6,30.3c0.1-0.2,0.2-0.3,0.3-0.4c0.2-0.1,0.3-0.1,0.5,0l0.8,0.5
	c-0.1,0.2-0.1,0.4-0.2,0.6h-0.9c-0.2,0-0.3-0.1-0.4-0.2C22.6,30.6,22.6,30.4,22.6,30.3 M23.5,33c-0.2,0.1-0.3,0.1-0.5,0
	c-0.2-0.1-0.3-0.2-0.3-0.4l0,0c0-0.2,0-0.3,0.1-0.5C22.8,32,23,32,23.2,32h0.9c0,0.2,0.1,0.4,0.2,0.6L23.5,33L23.5,33z M24.7,34.7
	c-0.1,0.2-0.2,0.3-0.4,0.3c-0.2,0-0.3,0-0.5-0.2l0,0c-0.1-0.1-0.2-0.3-0.2-0.5c0-0.2,0.1-0.3,0.3-0.4l0.8-0.5
	c0.1,0.2,0.3,0.3,0.4,0.4L24.7,34.7z M25.1,31.5c0-1.1,0.9-2.1,2.1-2.1c1.1,0,2.1,0.9,2.1,2.1c0,1.1-0.9,2.1-2.1,2.1
	C26,33.5,25.1,32.6,25.1,31.5 M26.4,35.9C26.3,36,26.1,36,25.9,36l0,0c-0.2,0-0.3-0.2-0.4-0.3c-0.1-0.2-0.1-0.3,0-0.5l0.5-0.8
	c0.2,0.1,0.4,0.1,0.6,0.2v0.9C26.6,35.6,26.6,35.8,26.4,35.9 M25.7,39.4c-0.8,0-1.5-0.5-1.7-1.3h1c0.8,0,1.4,0.5,1.7,1.2v0.1H25.7z
	 M21.7,45.7c1.8-0.9,3.8-1.5,5.9-1.8c0.5-0.1,1-0.1,1.5-0.2c0,0,0.1,0,0.1,0c0.5,0,1.3,0,1.9,0c0.3,0,0.5,0,0.5,0c0.2,0,0.5,0,0.7,0
	c-3.1,0.8-6.3,2.1-8.2,3.5c-0.3,0.2-0.6,0.4-0.8,0.7c0,0-0.1,0.1-0.1,0.1c-1-0.6-2-1-3-1.4C20.7,46.2,21.2,45.9,21.7,45.7"/>
<path class="st1" d="M15.1,96.1l-0.6,0.7c-0.6-0.2-1.2-0.5-1.6-0.8l0.9-1.1l0.5-0.7c-0.1-0.1-0.6-0.5-0.7-0.5
	c-1.8-1.4-5.3-3.4-7.9-3.8c0,0,0,0,0,0c-0.3,0-1.6-0.2-1.9-0.2l0,1.4l-0.1,0.6v0.9l0-0.1c0.4,0,0.8,0.1,1.2,0.2
	c2.7,0.5,5.2,1.8,6.7,3.5c0.1,0.1,0.3,0.3,0.3,0.3c0.6,0.5,1.5,1,2.4,1.2c-0.3,1.1-0.6,1.5-1.1,2c-0.2-0.2-0.4-0.4-0.6-0.6
	c-0.7-0.4-1.5-0.6-2.2-0.5c0,0-1.2,0-1.9-0.3C7.8,98,7,97.3,6.5,96.7c-0.3-0.4-0.6-0.9-1.1-1.3c-0.5-0.4-1.2-0.6-1.8-0.7v0.8
	c0.4,0,0.8,0.1,1.2,0.4c0.3,0.2,1,1.2,1.3,1.7c0,0,1.1,1,1.7,1.3c0.7,0.3,2.3,0.6,2.7,0.5c0,0,0,0,0,0v0c0,0,0.1,0,0.1,0v0
	c0.5-0.1,0.9,0,1.4,0.3c0.1,0.1,0.3,0.3,0.5,0.5c0,0,0,0,0,0l0.5,0.7c0,0,0.1-0.1,0.1-0.1c0,0,0,0,0,0l0,0c0,0,0.1-0.1,0.1-0.1
	c0.2-0.1,0.4-0.2,0.5-0.4c0,0-0.1-0.1-0.1-0.1c0.7-0.7,1.2-1.6,1.4-2.5c0,0,0.1-0.3,0.1-0.3c0-0.1,0.1-0.6,0.1-0.6
	c-0.2,0-0.3,0-0.5-0.1l0.4-0.6l0.4-0.5l0.4-0.5L14.1,95L15.1,96.1z M5.2,91.9c-0.3-0.1-0.6-0.1-0.9-0.2l0.9-1.1c0.2,0,0.3,0,0.5,0.1
	c0.4,0.1,0.7,0.1,1.1,0.3l-0.9,1.1C5.6,92,5.4,92,5.2,91.9 M6.6,92.3l0.9-1.1c0.6,0.2,1.3,0.5,1.9,0.8l-0.8,1
	C7.9,92.7,7.2,92.5,6.6,92.3 M9.1,93.4l0.8-1c0.4,0.2,0.9,0.5,1.3,0.7l-0.8,1C10,93.8,9.6,93.6,9.1,93.4 M11,94.5l0.9-1.1
	c0.5,0.3,0.9,0.6,1.3,0.9l-0.9,1.2C11.8,95.2,11.4,94.8,11,94.5"/>
<path class="st1" d="M12.5,83.7c2,0.3,3.6,1.4,4.4,2.1l0.6-1.1c-0.9-0.8-2.1-1.9-4.5-2.2L12.5,83.7z"/>
<path class="st1" d="M10.1,88c2,0.3,3.6,1.5,4.5,2.2l0.6-1.1c-0.9-0.8-2.1-1.9-4.4-2.2L10.1,88z"/>
<path class="st1" d="M11.3,85.8c2,0.3,3.6,1.5,4.5,2.2l0.6-1.1c-0.9-0.8-2.1-1.8-4.5-2.1L11.3,85.8z"/>
<path class="st1" d="M9.4,83.3c-0.5-0.4-1.5-1.1-2.7-1.6c0,0,0,0,0,0C6.8,81.6,7.1,81.1,7,81c-0.2-0.1-0.5,0-0.7,0.2
	c0-0.2-0.1-0.5-0.3-0.5c-0.2-0.1-0.4,0.5-0.4,0.7c0,0,0,0,0,0.1C5,81.2,4.3,81,3.7,81l0,0.7v0.6c2,0.3,4.3,1.5,5.1,2.2L9.4,83.3z"/>
<path class="st1" d="M3.7,84.9c0,0,0.2,0,0.2,0c1.6,0.5,3,1.4,3.6,1.9l0.6-1.1c-0.8-0.6-2.5-1.6-4.4-2.2C3.7,83.9,3.7,84.7,3.7,84.9
	"/>
<path class="st1" d="M10.8,80.8c-0.1,0-0.1-0.1-0.2-0.1c-0.2-0.1-0.5-0.3-0.7-0.4c0.1,0,0.2-0.1,0.3-0.2c0.1-0.1,0.5-0.6,0.3-0.7
	c-0.2-0.1-0.5,0-0.7,0.2c0-0.2-0.1-0.5-0.3-0.5c-0.2-0.1-0.4,0.5-0.4,0.7c0,0.1,0,0.2,0,0.2c-1.2-0.5-2.4-0.9-3.7-1.2
	c0.1-0.1,0.1-0.2,0.2-0.3c0.1-0.2,0.1-0.7,0-0.8c-0.2,0-0.4,0.3-0.6,0.5c-0.1-0.2-0.4-0.6-0.6-0.5c-0.2,0-0.1,0.6,0,0.8
	c0,0,0,0.1,0,0.1c-0.3,0-0.6-0.1-0.8-0.1v1.3c2.4,0.4,4.6,1.2,6.5,2.3L10.8,80.8z"/>
<path class="st1" d="M12.4,101c-0.2-0.3-0.4-0.5-0.7-0.7c-0.7-0.4-1.5-0.6-2.2-0.5c0,0-1.2,0-1.9-0.3c-0.7-0.3-1.5-0.9-2.1-1.6
	c-0.3-0.4-0.6-0.9-1.1-1.3c-0.3-0.2-0.5-0.3-0.8-0.5V97c0.1,0,0.2,0.1,0.2,0.1c0.3,0.2,1,1.2,1.3,1.7c0,0,1.1,1,1.7,1.3
	c0.7,0.3,2.3,0.6,2.7,0.5c0,0,0,0,0,0v0c0,0,0.1,0,0.1,0l0,0c0.5,0,0.9,0,1.4,0.3c0.1,0.1,0.3,0.3,0.6,0.5c0,0,0,0,0,0l0.5,0.7
	c0,0,0.1-0.1,0.1-0.1c0.2-0.1,0.5-0.3,0.7-0.4c0,0-0.1-0.1-0.1-0.1C12.7,101.3,12.6,101.2,12.4,101"/>
<path class="st1" d="M20.1,66.7c0-0.3-0.3-0.6-0.6-0.6c-0.3,0-0.6,0.3-0.6,0.6c0,0.3,0.3,0.6,0.6,0.6C19.9,67.3,20.1,67.1,20.1,66.7
	"/>
<path class="st1" d="M17.8,66.6c0.3,0,0.6-0.3,0.6-0.6s-0.3-0.6-0.6-0.6c-0.3,0-0.6,0.3-0.6,0.6S17.5,66.6,17.8,66.6"/>
<rect x="26" y="64.9" transform="matrix(-0.4786 0.878 -0.878 -0.4786 98.2612 72.2675)" class="st1" width="3.4" height="0.8"/>
<rect x="27.8" y="65.9" transform="matrix(-0.4784 0.8781 -0.8781 -0.4784 101.8694 72.1155)" class="st1" width="3.4" height="0.8"/>
<rect x="29.7" y="66.9" transform="matrix(-0.4784 0.8781 -0.8781 -0.4784 105.4746 71.9819)" class="st1" width="3.4" height="0.8"/>
<path class="st1" d="M40.1,74.5c-0.4-0.2-0.9-0.2-1.4-0.1c-0.8,0.1-1.6,0.4-2.4,0.6c-0.5,0.1-1.1,0.3-1.6,0.5
	c-0.6,0.2-1,0.2-1.5,0.2c-0.1,0-0.3,0-0.4,0c-0.1,0-0.1,0-0.2,0c0,0,0,0-0.1,0c0,0,0,0,0,0c-0.3,0-0.5-0.1-0.8-0.2
	c-0.5-0.2-0.9-0.3-1.4-0.6c-0.5-0.2-0.9-0.5-1.3-0.8c-0.4-0.3-0.9-0.6-1.4-0.8c-0.5-0.2-1.1-0.4-1.7-0.4c-0.6,0-1.2,0.1-1.7,0.2
	c-0.5,0.1-0.9,0.3-1.4,0.4c-0.2,0-0.4,0.1-0.6,0.1c-0.1,0-0.2,0-0.3,0c0,0-0.1,0-0.1,0c0,0,0,0,0,0c0,0,0,0,0,0
	c-0.4,0-0.7,0.1-1.1,0.1c-0.2,0-0.4,0-0.6,0c0,0,0,0,0,0c0,0,0,0,0,0c0,0-0.1,0-0.1,0c-0.1,0-0.2,0-0.3-0.1
	c-0.4-0.1-0.8-0.2-1.2-0.4c0,0-0.1,0-0.1,0c0,0-0.1,0-0.1-0.1c-0.1-0.1-0.2-0.1-0.3-0.2c-0.2-0.1-0.4-0.2-0.7-0.4
	c-0.2-0.1-0.3-0.2-0.4-0.3c0,0,0,0,0,0c-0.1-0.1-0.2-0.1-0.3-0.2c-1.9-1.5-4-2.7-6.3-3.4c-1.8-0.6-3.7-0.9-5.6-1c-0.4,0-0.7,0-1.1,0
	v1.1c0.3,0,0.5,0,0.8,0c0.4,0,0.7,0,1.1,0.1c0.2,0,0.4,0,0.6,0.1c0,0,0.1,0,0.1,0c-0.1,0,0,0,0.1,0c0.1,0,0.2,0,0.3,0.1
	c1,0.1,1.9,0.4,2.8,0.6c0.5,0.2,1,0.3,1.5,0.5c0.1,0,0.3,0.1,0.4,0.2c0,0,0.1,0,0.2,0.1c0,0,0,0,0,0c0,0,0.1,0,0.1,0.1
	c0.3,0.1,0.5,0.2,0.8,0.4c0.6,0.3,1.2,0.6,1.7,1c0.6,0.4,1.1,0.8,1.7,1.2c0,0,0,0,0,0c0,0,0,0,0,0c-0.4,0.4-0.8,0.7-1.2,1.1
	c-0.5-0.3-0.9-0.5-1.4-0.7c0.2,0.1,0.3,0,0.4-0.2c0.1-0.1,0.5-0.6,0.3-0.7c-0.2-0.1-0.5,0-0.7,0.2c0-0.2-0.1-0.5-0.3-0.5
	c-0.2-0.1-0.4,0.5-0.4,0.7c0,0.1,0,0.2,0,0.3c-1.2-0.5-2.5-0.9-3.9-1.2c0.1,0,0.1-0.1,0.2-0.2C9.2,71.6,9.5,71,9.3,71
	c-0.2-0.1-0.5,0.1-0.6,0.3c-0.1-0.2-0.2-0.5-0.4-0.5c-0.2,0-0.3,0.6-0.3,0.7c0,0.1,0,0.1,0,0.2c-0.9-0.2-1.7-0.3-2.6-0.3
	c0-0.1,0.1-0.1,0.1-0.2c0.1-0.2,0.2-0.7,0-0.8c-0.2,0-0.4,0.3-0.6,0.5c-0.1-0.2-0.4-0.6-0.6-0.5c-0.2,0-0.1,0.6,0,0.8
	c0,0,0,0.1,0.1,0.1c0,0-0.1,0-0.1,0c-0.1,0-0.4,0-0.5,0l0,1.5l0.1,0c0.1,0,0.3,0,0.4,0c3.5,0.1,6.9,1,9.7,2.5
	c-0.3,0.4-0.6,0.9-0.8,1.4c-0.5-0.3-1-0.5-1.5-0.7c0,0,0.1-0.1,0.1-0.1c0.1-0.1,0.5-0.6,0.3-0.7c-0.2-0.1-0.5,0-0.7,0.2
	c0-0.2-0.1-0.5-0.3-0.5c-0.2-0.1-0.4,0.5-0.4,0.7c0,0.1,0,0.1,0,0.2c-0.8-0.3-1.7-0.5-2.5-0.7c0,0,0,0,0,0c0.1-0.1,0.4-0.7,0.2-0.8
	c-0.2-0.1-0.5,0.1-0.6,0.3c-0.1-0.2-0.2-0.5-0.4-0.5c-0.2,0-0.3,0.6-0.3,0.7c0,0,0,0,0,0.1c-0.6-0.1-1.2-0.2-1.7-0.2
	c0,0,0.1-0.1,0.1-0.2c0.1-0.2,0.2-0.7,0-0.8c-0.2,0-0.4,0.3-0.6,0.5c-0.1-0.2-0.4-0.6-0.6-0.5c-0.2,0-0.1,0.6,0,0.8c0,0,0,0.1,0,0.1
	c-0.1,0-0.3,0-0.4,0l0,1.4c0.1,0,0.4,0,0.5,0c5.1,0.2,9.8,2.2,12.4,5.3c-1.5-0.7-3.5-1.4-3.6-1.4l-0.5-0.2l-4.9,8.7
	c-0.8-0.7-2.1-1.4-3.9-1.7c0,0,0,0-0.1,0.1v0.6c0,0.2,0,0.3,0,0.3c1.5,0.3,2.6,0.9,3.5,1.9l0,0l0,0c0,0,0,0,0,0l0,0l0.6,0.2
	c0,0,2.7,1,3.4,1.5c0.8,0.4,3,1.9,3,2l0.6,0.4l5.3-9.9l-0.4-0.3c0,0,0,0-0.4-0.4l-0.1-0.3c-0.7-1.4-1.7-2.7-2.9-3.8
	c0.5-0.8,1.2-1.6,1.9-2.3l0-1.7c-1.2,1-2.2,1.9-3,3.1c-0.3-0.2-0.7-0.5-1-0.7c0,0,0.1-0.1,0.1-0.2c0.1-0.2,0.5-1,0.7-1.2
	c0.3-0.4,0.6-0.8,1-1.2c0.4-0.4,0.8-0.8,1.2-1.1c1.2,0.6,2.5,1.1,3.9,1c0.8,0,1.6-0.2,2.3-0.4c0.5-0.1,1-0.3,1.6-0.4
	c0.1,0,0.1,0,0.2,0c0,0,0,0,0,0c0,0,0.1,0,0.1,0c0.1,0,0.3,0,0.4,0c0.3,0,0.5,0,0.7,0.1c1,0.2,1.8,1,2.7,1.5c0.9,0.6,1.9,1,3,1.2
	c0.5,0.1,1.1,0.1,1.6,0.1c0.6-0.1,1.1-0.2,1.7-0.4c0.5-0.1,1-0.3,1.4-0.4c0.4-0.1,0.8-0.2,1.1-0.3c0.2-0.1,0.4-0.1,0.6-0.1
	c0,0,0,0,0,0h0c0,0,0,0,0.1,0c0,0,0.1,0,0.1,0c0.1,0,0.2,0,0.3,0c0.1,0,0.1,0,0.2,0h0c0,0,0,0,0,0c0.1,0,0.2,0,0.3,0.1c0,0,0,0,0,0
	c0,0,0,0,0,0c0,0,0.1,0,0.1,0.1c0.1,0,0.1,0.1,0.2,0.1c0.1,0,0.1,0.1,0.2,0.1c0.6,0,1.2-0.1,1.8-0.1c-0.4-0.2-0.7-0.5-1.1-0.7
	C40.9,74.9,40.5,74.6,40.1,74.5 M13.2,73.3C13.3,73.3,13.3,73.3,13.2,73.3c0.1,0,0.1,0,0.1,0.1C13.3,73.3,13.3,73.3,13.2,73.3
	 M17.5,82.6c0.6,0.4,1.2,0.9,1.6,1.2l-4.4,8.5c-0.7-0.5-2.3-1.5-2.9-1.9c-0.6-0.3-2.5-1.1-3.4-1.4l4.7-8.3c0.7,0.2,2.1,0.8,3.2,1.2
	C16.6,82,17,82.3,17.5,82.6"/>
<path class="st1" d="M48.5,73.2c-0.4,0.1-0.7,0.2-1.1,0.3c-0.3,0.1-0.5,0.1-0.8,0.2h0c0,0-0.1,0-0.1,0c-0.1,0-0.1,0-0.2,0
	c-0.1,0-0.3,0-0.4,0c0.1,0-0.1,0-0.2,0c-0.1,0-0.2,0-0.3,0c-0.2,0-0.4-0.1-0.6-0.2c-0.4-0.1-0.7-0.2-1-0.3c-0.2-0.1-0.3-0.1-0.5-0.2
	c0,0-0.1,0-0.1,0c0,0,0,0,0,0c0,0,0,0,0,0c-0.1,0-0.2-0.1-0.3-0.1c-0.2-0.1-0.3-0.1-0.5-0.2l0.6-10c-0.3,0.1-0.6,0.1-0.9,0.1
	c-0.1,0-0.1,0-0.2,0l-0.3,4.6L40.7,67l1.1-4.4c-0.4,0-0.7-0.1-1-0.3l-1.1,4.4l-0.9-0.2l1.9-4.2c-0.5-0.2-0.8-0.5-0.9-0.6l-4.9,10.6
	c-0.1,0.2-0.2,0.4-0.3,0.5c0,0,0,0,0,0c-0.1,0-0.2,0-0.3,0c-0.2,0-0.4,0-0.6,0c-0.1,0-0.2,0-0.2,0c-0.1,0-0.2,0-0.4-0.1
	c-0.5-0.1-0.9-0.2-1.3-0.4c0,0,0,0,0,0c0,0,0,0,0,0c0,0-0.1,0-0.1,0c-0.1,0-0.2-0.1-0.3-0.2c-0.2-0.1-0.4-0.2-0.6-0.3
	c-0.4-0.2-0.8-0.5-1.2-0.8c-0.8-0.6-1.7-1-2.7-1c-1,0-1.9,0.3-2.8,0.5c-0.3,0.1-0.7,0.1-1,0.2c-0.1,0-0.2,0-0.2,0c0,0,0,0,0,0
	c0,0,0,0,0,0c0,0-0.1,0-0.1,0c-0.2,0-0.3,0-0.5,0c-0.4,0-0.7,0-1.1,0c0,0,0,0,0,0c0,0,0,0,0,0c-0.1,0-0.1,0-0.2,0c0,0,0,0,0,0
	c1.3-1.5,2-3.3,2.2-5.1c0,0,0-0.4,0-0.4c0-0.2,0-0.4,0-0.5h0v-0.4c-0.3,0-0.6,0-1,0c-0.6,0-1.2-0.2-1.8-0.5l14.4-7.8l-1.2,2.3
	c-0.1,0.2,0,0.5,0.2,0.6h0l0.2,0.1c0.5,0.3,0.7,0.9,0.4,1.4c-0.3,0.5-0.9,0.7-1.4,0.4c-0.5-0.3-0.7-0.9-0.4-1.4l-0.7-0.4
	c-0.3,0.5-0.3,1.1-0.1,1.6l-4.1,0.6l-0.3-0.2c-0.2-0.1-0.5,0-0.6,0.2l-2.8,5.2c-0.1,0.2,0,0.5,0.2,0.6l7.9,4.3
	c0.2,0.1,0.5,0,0.6-0.2l2.8-5.2c0.1-0.2,0-0.5-0.2-0.6l-0.6-0.4l-1.1-3.3c1,0,1.9-0.9,1.8-1.9c0-0.6-0.3-1.1-0.8-1.5l1.8-3.2l0,0
	l-0.5-1.8L17.1,60l0-0.1l0.7-1.2c-0.2-0.1-0.3-0.2-0.3-0.2c-0.3-0.2-0.5-0.4-0.8-0.6c-0.8-0.5-1.7-1-2.6-1.4l0.7-1.3l0.6-1.2
	l0.8-1.3l-4.6-0.3l2.5,2.2l-0.9,1.6c-2.2-0.9-4.7-1.3-7.3-1.4c0,0,0,0,0,0c-0.5,0-1,0-1.5,0l-0.8,1.4l0,0v3.2c0.9-0.1,1.8,0,2.7,0
	c4.1,0.3,8.1,1.9,10.8,4.3c0.1,0.1,0.5,0.4,0.5,0.4c1,0.7,2.4,1.3,3.9,1.4c-0.3,2.4-0.9,3.3-2.2,4.7c-0.2-0.1-0.4-0.2-0.6-0.3
	c-0.5-0.2-1-0.5-1.4-0.8c-1.9-1.5-4-2.7-6.3-3.4c-1.8-0.6-3.7-0.9-5.6-1c-0.6,0-1.2-0.1-1.8-0.1V66c0.5,0,1,0,1.5,0
	c0.4,0,0.7,0,1.1,0.1c0.2,0,0.4,0,0.6,0.1c0,0,0.1,0,0.1,0c-0.1,0,0,0,0.1,0c0.1,0,0.2,0,0.3,0.1c1,0.1,1.9,0.4,2.8,0.6
	c0.5,0.2,1,0.3,1.5,0.5c0.1,0,0.3,0.1,0.4,0.2c0.1,0,0.1,0,0.2,0.1c0,0,0,0,0,0c0,0,0.1,0,0.1,0.1c0.3,0.1,0.5,0.2,0.8,0.4
	c0.6,0.3,1.2,0.6,1.7,1c0.6,0.4,1.1,0.8,1.7,1.2c0,0,0,0,0,0c0,0,0.1,0,0.1,0.1c1.4,0.9,2.9,1.6,4.6,1.7c0.7,0,1.4-0.1,2-0.2
	c0.4-0.1,0.7-0.1,1.1-0.2c0.5-0.1,1-0.3,1.4-0.4c0.8-0.2,1.7,0,2.5,0.5c0.4,0.2,0.8,0.5,1.1,0.8c0.4,0.3,0.8,0.5,1.2,0.7
	c0.9,0.4,1.8,0.7,2.8,0.8c0.8,0.1,1.7-0.1,2.5-0.3c0.2,0,0.3-0.1,0.5-0.1c0.4-0.1,0.8-0.2,1.3-0.4l0.3-0.1c0,0,0.1,0,0.1,0
	c0.2-0.1,0.4-0.1,0.6-0.1c0.1,0,0.1,0,0.2,0c0,0,0.1,0,0.1,0c0.1,0,0.1,0,0.2,0c0,0,0.1,0,0.1,0c0.2,0,0.3,0,0.5,0
	c0.1,0,0.2,0,0.3,0c0,0,0.1,0,0.1,0c0.1,0,0.1,0,0.2,0c0.3,0.1,0.6,0.1,0.8,0.2c0,0,0,0,0.1,0c0.2,0.1,0.4,0.1,0.5,0.2
	c0.1,0,0.2,0.1,0.3,0.1c0,0,0.1,0,0.1,0c0,0,0.1,0,0.1,0c0,0,0,0,0,0c0.3,0.1,0.6,0.3,1,0.4c0.7,0.3,1.4,0.5,2.1,0.6
	c0.6,0.1,1.2,0.1,1.8,0c0.3-0.1,0.6-0.2,0.9-0.2c0.2-0.1,0.4-0.1,0.6-0.2c0.1,0,0.1,0,0.2,0c0,0,0.1,0,0.1,0c0.1,0,0.1,0,0.2,0
	c0,0,0,0,0.1,0c0,0,0.1,0,0.1,0c0.2,0,0.3,0.1,0.5,0.1c0.5-0.1,0.9-0.3,1.4-0.4c-0.5-0.4-1.1-0.7-1.7-0.8
	C49.2,73.1,48.8,73.1,48.5,73.2 M32.1,61.6l1.1,2.9l-4.5-2.4L32.1,61.6z M34.3,66l-2.4,4.4l-7.2-3.9l2.4-4.4L34.3,66z M34.1,55.1
	l-5.4,2.9l-1.6-0.5L34.1,55.1z M25.7,58.3l1.6,0.5L25.2,60L25.7,58.3z M24.5,58.5l-0.6,1.8l-2.4-0.8L24.5,58.5z M15.2,60.7L15,60.8
	c-2.6-1.4-5.6-2.3-8.4-2.5c-0.8-0.1-1.6-0.1-2.5,0l1.1-2c0.2,0,0.5,0,0.7,0c3.8,0,7.3,1.1,10.1,2.9L15.2,60.7z M18.5,63
	c-0.4-0.2-0.6-0.3-0.6-0.3c-0.5-0.4-1-0.8-1.6-1.2l0.1-0.1l3-1.1L18.5,63z M20.5,60.3l2.5,0.9L19.6,63L20.5,60.3z M38.4,71.9
	c-0.4,0.1-0.9,0.2-1.3,0.3c-0.4,0.1-0.7,0.2-1.1,0.3l2.3-5.1l1.1,0.3L38.4,71.9z M41.3,72.1c-0.6-0.2-1.2-0.3-1.8-0.3l1-3.8l1.1,0.3
	L41.3,72.1z"/>
<path class="st1" d="M59.4,46.2C59.4,46.1,59.4,46.1,59.4,46.2c-0.1-0.4-0.2-0.6-0.4-0.9c0.1-0.1,0.1-0.2,0.1-0.4
	c0-0.2-0.2-0.3-0.3-0.3c-0.1,0-0.1,0-0.1-0.1c0-0.1-0.1-0.2-0.1-0.2c-0.2-0.2-0.5-0.5-0.7-0.7c-0.1-0.1-0.3-0.1-0.4,0
	c-0.1,0.1-0.1,0.1-0.1,0.2c0,0.1,0,0.2,0.1,0.3l0.1,0.1c0.1,0.2,0.3,0.3,0.4,0.5c0,0,0,0,0,0.1c-0.1,0.1-0.1,0.2-0.1,0.3
	c0,0.1,0,0.2,0.1,0.3c0.1,0.1,0.2,0.1,0.3,0.2c0.1,0.3,0.2,0.5,0.3,0.8c0,0.1,0.1,0.1,0.2,0.1c0.1,0,0.2,0,0.3,0l0.3,0L59.4,46.2z"
	/>
<path class="st1" d="M57.3,48.9c0.2,0.1,0.4,0.2,0.5,0.3c0-0.1,0-0.2,0-0.2c0.2-0.5,0.4-1.1,0.8-1.5c0,0,0.1-0.1,0.1-0.1
	c0,0,0.1,0,0.1,0l2.2,0.1c0,0,0.1,0,0.1,0c0,0,0,0,0.1,0.1c0.3,0.5,0.5,1,0.6,1.6c0.1,0.3,0.1,0.6,0,0.9l0,0.2c0.3,0,0.7-0.1,1-0.2
	l0-0.1c0-0.4,0-0.8,0-1c-0.1-0.7-0.4-1.3-0.8-1.9c-0.1-0.1-0.2-0.3-0.4-0.4c-0.2-0.1-0.4-0.1-0.6-0.1l-2.2-0.1c-0.1,0-0.4,0-0.6,0.1
	c-0.2,0.1-0.3,0.2-0.4,0.3c-0.4,0.5-0.8,1.1-0.9,1.8c0,0,0,0,0.1,0C57.1,48.8,57.2,48.8,57.3,48.9"/>
</svg>
