<?xml version="1.0" encoding="utf-8"?>
<!-- Generator: Adobe Illustrator 19.0.0, SVG Export Plug-In . SVG Version: 6.00 Build 0)  -->
<svg version="1.1"
	 id="svg2" xmlns:inkscape="http://www.inkscape.org/namespaces/inkscape" xmlns:sodipodi="http://sodipodi.sourceforge.net/DTD/sodipodi-0.dtd" xmlns:cc="http://creativecommons.org/ns#" xmlns:rdf="http://www.w3.org/1999/02/22-rdf-syntax-ns#" xmlns:dc="http://purl.org/dc/elements/1.1/" xmlns:svg="http://www.w3.org/2000/svg" sodipodi:docname="logo_gba.svg" inkscape:version="0.48.4 r9939"
	 xmlns="http://www.w3.org/2000/svg" xmlns:xlink="http://www.w3.org/1999/xlink" x="0px" y="0px" viewBox="69 63.1 280 130"
	 style="enable-background:new 69 63.1 280 130;" xml:space="preserve">
<style type="text/css">
	.st0{fill:#FFFFFF;stroke:#FFFFFF;stroke-width:5;stroke-miterlimit:10;}
	.st1{fill:#00b1c7;}
	.st2{fill:#414042;}
</style>
<sodipodi:namedview  id="base" inkscape:cx="131.97189" inkscape:cy="33.298652" borderopacity="1.0" bordercolor="#666666" inkscape:zoom="0.73691406" pagecolor="#ffffff" fit-margin-left="0" fit-margin-top="0" showgrid="false" inkscape:window-maximized="1" inkscape:window-y="-8" inkscape:window-x="-8" inkscape:window-height="706" inkscape:window-width="1366" inkscape:current-layer="layer1" inkscape:document-units="px" inkscape:pageopacity="0.0" fit-margin-right="0" fit-margin-bottom="0" inkscape:pageshadow="2">
	</sodipodi:namedview>
<rect x="69" y="63.1" class="st0" width="280" height="130"/>
<g id="layer1" transform="translate(-130.6498,-70.778354)" inkscape:label="Capa 1" inkscape:groupmode="layer">
	<g id="g3037" transform="matrix(0.5821942,0,0,0.5821942,130.62751,76.770452)">
		<path id="path2988" inkscape:connector-curvature="0" class="st1" d="M267.9,206c0-2.7-1.4-5.1-3.6-6.5l0,0
			c-2.9-1.8-4.8-5-4.8-8.7c0-2.2,0.7-4.3,2-6l0,0c0.9-1.2,1.4-2.8,1.4-4.4c0-2-0.7-3.7-1.9-5.1c-1.5-1.8-12.3-15.5-40.7-32.4
			c-1.6-1-3.4-1.6-5.4-1.6c-2.3,0-4.4,0.7-6.1,2l0,0l-17.2,12.3l0,0l0,0c-1.6,1.1-3.5,1.6-5.5,1.6h-12.8c-4.3,0-7.6,3.4-7.6,7.6
			v103.7c0,1.9,0.7,3.6,1.8,4.9c1.1,1.4,3.9,3.9,6.9,5.6c1.1,0.7,2.6,1.2,4.1,1.2c4.3,0,7.6-3.4,7.6-7.6v-20.5
			c0-4.3,3.4-7.6,7.6-7.6c1.2,0,2.3,0.2,3.4,0.7l0,0c6.2,2.6,13,4,20.1,4c25.1,0,45.9-17.8,50.7-41.6
			C267.8,207.2,267.9,206.6,267.9,206"/>
		<path id="path2990" inkscape:connector-curvature="0" class="st2" d="M298.6,214.3c0-1.1,0.7-1.9,1.9-1.9h9.9
			c6.3,0,10.2,3.9,10.2,9.5s-3.9,9.5-10.2,9.5h-7.2c-0.2,0-0.2,0.1-0.2,0.2v10.5c0,1.4-0.8,2.2-2.1,2.2s-2.1-0.8-2.1-2.2
			L298.6,214.3L298.6,214.3z M316.5,221.9c0-3.4-2.3-5.6-6.2-5.6h-7.1c-0.2,0-0.2,0.1-0.2,0.2v10.7c0,0.2,0.1,0.2,0.2,0.2h7.1
			C314.2,227.5,316.5,225.4,316.5,221.9"/>
		<path id="path2992" inkscape:connector-curvature="0" class="st2" d="M323.7,242.4v-18.6c0-1.3,0.8-2.1,2-2.1s2,0.8,2,2.1v1.1h0.1
			c0.9-2,3-3.4,5.7-3.4c1.6,0,2.5,0.4,3.3,0.8c0.8,0.4,1.1,1.1,1.1,1.7c0,1.1-0.8,2-2,2c-0.2,0-0.7-0.1-1-0.2
			c-0.8-0.3-1.6-0.6-2.5-0.6c-3.4,0-4.8,2.8-4.8,6.6v10.8c0,1.3-0.8,2.1-2,2.1C324.5,244.5,323.7,243.7,323.7,242.4"/>
		<path id="path2994" inkscape:connector-curvature="0" class="st2" d="M340.1,238.7c-0.5-1.6-0.7-3.1-0.7-5.7
			c0-2.5,0.2-4.1,0.7-5.7c1.2-3.9,4.5-6,8.9-6c4.4,0,7.6,2.2,8.9,6c0.5,1.6,0.7,3.1,0.7,5.7c0,2.6-0.2,4.2-0.7,5.7
			c-1.2,3.8-4.5,6-8.9,6C344.5,244.7,341.3,242.5,340.1,238.7 M354,237.6c0.4-1.2,0.5-2.5,0.5-4.6c0-2.1-0.2-3.3-0.5-4.5
			c-0.7-2.2-2.5-3.5-5.1-3.5c-2.5,0-4.3,1.2-5.1,3.5c-0.4,1.2-0.5,2.4-0.5,4.5c0,2.1,0.2,3.4,0.5,4.6c0.7,2.2,2.5,3.5,5.1,3.5
			S353.3,239.8,354,237.6"/>
		<path id="path2996" inkscape:connector-curvature="0" class="st2" d="M367.5,242l-6.8-17.6c-0.2-0.4-0.2-0.7-0.2-1
			c0-1.1,0.7-1.9,1.9-1.9c0.9,0,1.6,0.6,1.9,1.4l5.8,15.6h0.1l5.7-15.6c0.3-0.8,0.9-1.4,1.9-1.4c1.1,0,1.9,0.8,1.9,1.9
			c0,0.3-0.1,0.6-0.2,1l-6.8,17.6c-0.7,1.8-1.3,2.5-2.5,2.5C368.9,244.5,368.3,243.8,367.5,242"/>
		<path id="path2998" inkscape:connector-curvature="0" class="st2" d="M382.7,214.8c0-1.5,1.1-2.5,2.5-2.5c1.4,0,2.5,1.1,2.5,2.5
			s-1.1,2.5-2.5,2.5C383.9,217.3,382.7,216.2,382.7,214.8 M383.4,223.7c0-1.3,0.8-2.1,2-2.1s2,0.8,2,2.1v18.6c0,1.3-0.8,2.1-2,2.1
			s-2-0.8-2-2.1C383.4,242.4,383.4,223.7,383.4,223.7z"/>
		<path id="path3000" inkscape:connector-curvature="0" class="st2" d="M393.1,223.7c0-1.3,0.8-2.1,2-2.1s2,0.8,2,2.1v0.7h0.1
			c1.1-1.7,3.2-3,6.2-3c4.8,0,7.8,3.3,7.8,8.5v12.6c0,1.3-0.8,2.1-2,2.1s-2-0.8-2-2.1v-11.7c0-3.6-1.6-5.7-5-5.7
			c-3,0-5.2,2.1-5.2,5.5v11.9c0,1.3-0.8,2.1-2,2.1c-1.1,0-2-0.8-2-2.1L393.1,223.7L393.1,223.7z"/>
		<path id="path3002" inkscape:connector-curvature="0" class="st2" d="M416.3,238.7c-0.4-1.4-0.7-3.2-0.7-5.7
			c0-2.5,0.2-4.3,0.7-5.7c1.2-3.9,4.5-6,8.9-6c3.4,0,5.7,1.5,7.1,3.3c0.4,0.5,0.6,0.9,0.6,1.5c0,1-0.7,1.7-1.7,1.7
			c-0.7,0-1.2-0.4-1.7-0.9c-1.1-1.1-2.2-1.9-4.3-1.9c-2.5,0-4.3,1.1-5,3.5c-0.4,1.1-0.5,2.5-0.5,4.5s0.2,3.4,0.5,4.6
			c0.7,2.3,2.5,3.5,5,3.5c2,0,3.2-0.7,4.3-1.9c0.5-0.6,1.1-0.9,1.7-0.9c1,0,1.7,0.7,1.7,1.7c0,0.5-0.2,0.9-0.6,1.5
			c-1.4,1.8-3.8,3.3-7.1,3.3C420.8,244.7,417.5,242.6,416.3,238.7"/>
		<path id="path3004" inkscape:connector-curvature="0" class="st2" d="M436.7,214.8c0-1.5,1.1-2.5,2.5-2.5c1.4,0,2.5,1.1,2.5,2.5
			s-1.1,2.5-2.5,2.5C437.9,217.3,436.7,216.2,436.7,214.8 M437.4,223.7c0-1.3,0.8-2.1,2-2.1s2,0.8,2,2.1v18.6c0,1.3-0.8,2.1-2,2.1
			s-2-0.8-2-2.1C437.4,242.4,437.4,223.7,437.4,223.7z"/>
		<path id="path3006" inkscape:connector-curvature="0" class="st2" d="M465.2,242.6c0,1.1-0.8,1.9-2,1.9c-0.7,0-1.2-0.3-1.7-1
			l-0.9-1.4h-0.1c-1.5,1.7-3.6,2.6-6.9,2.6c-5,0-7.9-2.5-7.9-6.7c0-4.6,3.2-6.9,8.8-6.9h5.1c0.2,0,0.2-0.1,0.2-0.2v-1.1
			c0-3.1-1.5-4.9-5.3-4.9c-1.7,0-3.5,0.6-4.6,1.1c-0.4,0.2-0.8,0.3-1.1,0.3c-1.1,0-1.7-0.7-1.7-1.7c0-0.6,0.2-1.2,0.9-1.6
			c1.4-0.9,3.8-1.7,6.8-1.7c6,0,8.8,2.9,8.8,8.4v8c0,1.1,0.1,1.6,0.4,2.3l0.8,1.5C465,241.8,465.2,242.2,465.2,242.6 M459.9,236.9
			v-2.5c0-0.2-0.1-0.2-0.2-0.2h-4.5c-3.9,0-5.6,1.1-5.6,3.6c0,2.3,1.7,3.5,4.7,3.5C457.7,241.4,459.9,239.7,459.9,236.9"/>
		<path id="path3008" inkscape:connector-curvature="0" class="st2" d="M298.6,174.7c0-1.8,1.1-3,3-3h9.9c6.9,0,10.2,3.4,10.2,8.5
			c0,3.4-1.6,5.6-3.7,6.8v0.1c2.1,0.8,4.3,3.4,4.3,7.2c0,6.2-4.2,9.3-11,9.3h-9.5c-1.9,0-3-1.1-3-3L298.6,174.7L298.6,174.7z
			 M310.6,184.6c2.6,0,4.2-1.4,4.2-3.8c0-2.4-1.6-3.7-4.2-3.7h-4.8c-0.2,0-0.2,0.1-0.2,0.2v6.9c0,0.2,0.1,0.2,0.2,0.2L310.6,184.6
			L310.6,184.6z M305.8,197.9h5.2c2.8,0,4.4-1.5,4.4-4c0-2.4-1.6-3.9-4.4-3.9h-5.2c-0.2,0-0.2,0.1-0.2,0.2v7.4
			C305.5,197.8,305.6,197.9,305.8,197.9"/>
		<path id="path3010" inkscape:connector-curvature="0" class="st2" d="M339.3,201.4L339.3,201.4c-1.1,1.5-3.1,2.6-6,2.6
			c-5,0-7.6-3.5-7.6-8.4V184c0-2.1,1.4-3.4,3.3-3.4c1.9,0,3.2,1.3,3.2,3.4v10.3c0,2.5,1.1,4.1,3.4,4.1s3.4-1.6,3.4-4.1V184
			c0-2.1,1.4-3.4,3.3-3.4c1.9,0,3.3,1.3,3.3,3.4v16.3c0,2.1-1.4,3.4-3.3,3.4C340.8,203.8,339.6,202.8,339.3,201.4"/>
		<path id="path3012" inkscape:connector-curvature="0" class="st2" d="M350,197.5c-0.5-1.4-0.7-3-0.7-5.3c0-2.4,0.2-4,0.7-5.4
			c1.4-4.1,4.9-6.4,9.8-6.4c5,0,8.5,2.3,9.8,6.3c0.5,1.6,0.7,3.2,0.7,5.3c0,1.2-0.8,2.1-2.1,2.1h-12c-0.2,0-0.2,0.1-0.2,0.2
			c0,0.5,0.1,0.9,0.2,1.3c0.6,1.9,2.3,3,4.7,3c1.6,0,3-0.5,4.3-1.1c0.8-0.5,1.6-0.7,2.2-0.7c1.4,0,2.4,1.1,2.4,2.5
			c0,1-0.5,1.8-1.3,2.3c-2.1,1.5-4.7,2.5-8.2,2.5C354.9,204,351.4,201.5,350,197.5 M363.5,189.7c0.2,0,0.2-0.1,0.2-0.2
			c0-0.7-0.1-1.2-0.2-1.6c-0.5-1.6-1.9-2.5-3.8-2.5s-3.2,0.9-3.8,2.5c-0.2,0.5-0.2,0.9-0.2,1.6c0,0.2,0.1,0.2,0.2,0.2
			C356,189.7,363.5,189.7,363.5,189.7z"/>
		<path id="path3014" inkscape:connector-curvature="0" class="st2" d="M387.3,200.3V190c0-2.5-1.2-4.1-3.5-4.1s-3.5,1.6-3.5,4.1
			v10.3c0,2.1-1.4,3.4-3.3,3.4c-1.9,0-3.3-1.3-3.3-3.4V184c0-2.1,1.4-3.4,3.3-3.4c1.6,0,2.8,0.9,3.1,2.4h0.1c1.1-1.5,3.1-2.6,6-2.6
			c5,0,7.7,3.5,7.7,8.4v11.6c0,2.1-1.4,3.4-3.3,3.4C388.7,203.8,387.3,202.4,387.3,200.3"/>
		<path id="path3016" inkscape:connector-curvature="0" class="st2" d="M397.9,197.4c-0.5-1.6-0.7-3.1-0.7-5.3s0.2-3.7,0.7-5.3
			c1.4-4.2,4.8-6.5,9.9-6.5c4.9,0,8.5,2.3,9.9,6.5c0.5,1.6,0.7,3.1,0.7,5.3s-0.2,3.7-0.7,5.3c-1.4,4.2-4.8,6.5-9.9,6.5
			C402.8,204,399.3,201.6,397.9,197.4 M411.2,195.9c0.3-1,0.4-2.2,0.4-3.8c0-1.6-0.1-2.8-0.4-3.8c-0.5-1.6-1.6-2.5-3.5-2.5
			c-1.8,0-3,0.9-3.5,2.5c-0.3,1-0.4,2.2-0.4,3.8c0,1.6,0.1,2.8,0.4,3.8c0.5,1.6,1.6,2.5,3.5,2.5
			C409.6,198.4,410.8,197.5,411.2,195.9"/>
		<path id="path3018" inkscape:connector-curvature="0" class="st2" d="M422.4,201.8c-1.1-0.7-1.6-1.6-1.6-2.6
			c0-1.5,1.2-2.6,2.7-2.6c0.6,0,1.1,0.2,1.9,0.6c1.6,0.9,3.4,1.6,5.6,1.6c2.4,0,3.5-0.8,3.5-2.1c0-1.1-0.6-1.6-3.3-1.9l-2.5-0.2
			c-4.9-0.6-7.4-3-7.4-6.9c0-4.4,3.4-7.3,9.4-7.3c2.5,0,4.9,0.5,6.9,1.5c1.2,0.7,1.9,1.5,1.9,2.5c0,1.5-1.1,2.5-2.5,2.5
			c-0.5,0-1-0.2-1.9-0.6c-1.4-0.7-3-1-4.6-1c-2,0-2.9,0.7-2.9,1.8c0,1.1,0.6,1.6,3.1,1.9l2.5,0.2c5.3,0.6,7.6,3.1,7.6,6.9
			c0,4.6-3.7,7.7-10.1,7.7C427.1,204,424.3,203,422.4,201.8"/>
		<path id="path3020" inkscape:connector-curvature="0" class="st2" d="M453.8,199.2l8.6-23.8c0.9-2.5,2.3-4,4.7-4
			c2.5,0,3.9,1.5,4.8,4l8.5,23.8c0.2,0.4,0.2,0.8,0.2,1.3c0,2-1.6,3.2-3.3,3.2c-1.5,0-2.7-0.9-3.2-2.5l-1.3-3.9h-11.3l-1.2,3.9
			c-0.5,1.6-1.7,2.5-3.2,2.5c-1.7,0-3.3-1.2-3.3-3.2C453.5,200.1,453.6,199.6,453.8,199.2 M470.8,191.6l-3.6-11.1H467l-3.7,11.1
			H470.8L470.8,191.6z"/>
		<path id="path3022" inkscape:connector-curvature="0" class="st2" d="M483.1,174.8c0-2.1,1.6-3.7,3.7-3.7s3.7,1.6,3.7,3.7
			s-1.6,3.7-3.7,3.7S483.1,176.9,483.1,174.8 M483.5,200.3V184c0-2.1,1.4-3.4,3.3-3.4c1.9,0,3.3,1.3,3.3,3.4v16.3
			c0,2.1-1.4,3.4-3.3,3.4C484.9,203.8,483.5,202.4,483.5,200.3"/>
		<path id="path3024" inkscape:connector-curvature="0" class="st2" d="M494.9,200.3V184c0-2.1,1.4-3.4,3.3-3.4
			c1.6,0,2.8,0.9,3.2,2.5v0.1h0.1c1.1-1.5,3.1-2.8,5.7-2.8c1.1,0,1.8,0.2,2.4,0.5c1.1,0.6,1.7,1.6,1.7,2.6c0,1.9-1.3,3.3-3.2,3.3
			c-0.5,0-0.9-0.1-1.4-0.2c-0.5-0.2-1.1-0.2-1.6-0.2c-2.5,0-3.4,1.7-3.4,4.8v9.2c0,2.1-1.4,3.4-3.3,3.4
			C496.2,203.8,494.9,202.4,494.9,200.3"/>
		<path id="path3026" inkscape:connector-curvature="0" class="st2" d="M512.4,197.5c-0.5-1.4-0.7-3-0.7-5.3c0-2.4,0.2-4,0.7-5.4
			c1.4-4.1,4.9-6.4,9.8-6.4c5,0,8.5,2.3,9.8,6.3c0.5,1.6,0.7,3.2,0.7,5.3c0,1.2-0.8,2.1-2.1,2.1h-12c-0.2,0-0.2,0.1-0.2,0.2
			c0,0.5,0.1,0.9,0.2,1.3c0.6,1.9,2.3,3,4.7,3c1.6,0,3-0.5,4.3-1.1c0.8-0.5,1.6-0.7,2.2-0.7c1.4,0,2.4,1.1,2.4,2.5
			c0,1-0.5,1.8-1.3,2.3c-2.1,1.5-4.7,2.5-8.2,2.5C517.2,204,513.6,201.5,512.4,197.5 M525.8,189.7c0.2,0,0.2-0.1,0.2-0.2
			c0-0.7-0.1-1.2-0.2-1.6c-0.5-1.6-1.9-2.5-3.8-2.5s-3.2,0.9-3.8,2.5c-0.2,0.5-0.2,0.9-0.2,1.6c0,0.2,0.1,0.2,0.2,0.2H525.8z"/>
		<path id="path3028" inkscape:connector-curvature="0" class="st2" d="M536.7,201.8c-1.1-0.7-1.6-1.6-1.6-2.6
			c0-1.5,1.2-2.6,2.7-2.6c0.6,0,1.1,0.2,1.9,0.6c1.6,0.9,3.4,1.6,5.6,1.6c2.4,0,3.5-0.8,3.5-2.1c0-1.1-0.6-1.6-3.3-1.9l-2.5-0.2
			c-4.9-0.6-7.4-3-7.4-6.9c0-4.4,3.4-7.3,9.4-7.3c2.5,0,4.9,0.5,6.9,1.5c1.2,0.7,1.9,1.5,1.9,2.5c0,1.5-1.1,2.5-2.5,2.5
			c-0.5,0-1-0.2-1.9-0.6c-1.4-0.7-3-1-4.6-1c-2,0-2.9,0.7-2.9,1.8c0,1.1,0.6,1.6,3.1,1.9l2.5,0.2c5.3,0.6,7.6,3.1,7.6,6.9
			c0,4.6-3.7,7.7-10.1,7.7C541.4,204,538.5,203,536.7,201.8"/>
	</g>
</g>
</svg>
