<?xml version="1.0" encoding="utf-8"?>
<!-- Generator: Adobe Illustrator 19.0.0, SVG Export Plug-In . SVG Version: 6.00 Build 0)  -->
<svg version="1.1" id="Capa_1" xmlns="http://www.w3.org/2000/svg" xmlns:xlink="http://www.w3.org/1999/xlink" x="0px" y="0px"
	 viewBox="-189 258.1 221 85.9" style="enable-background:new -189 258.1 221 85.9;" xml:space="preserve">
<style type="text/css">
	.st0{fill:#FFFFFF;}
</style>
<g>
	<g>
		<path class="st0" d="M-117,290.8v3.3c-0.6,0.1-1.2,0.2-1.7,0.2c-1.3,0-2.3-0.3-3-0.9c-0.7-0.6-1-1.5-1-2.7c0-1.2,0.3-2.1,1-2.7
			s1.7-0.9,3-0.9c0.6,0,1.1,0.1,1.6,0.2v1.3c-0.5-0.1-1-0.2-1.4-0.2c-0.6,0-1.1,0.1-1.4,0.2c-0.4,0.2-0.6,0.4-0.8,0.8
			c-0.2,0.3-0.3,0.8-0.3,1.4c0,0.8,0.2,1.4,0.6,1.7c0.4,0.4,0.9,0.5,1.7,0.5c0.1,0,0.2,0,0.4,0v-2.2
			C-118.3,290.8-117,290.8-117,290.8z"/>
		<path class="st0" d="M-114.5,293.9c-0.5-0.3-0.9-0.7-1.1-1.2c-0.3-0.5-0.4-1.2-0.4-2c0-0.8,0.1-1.5,0.4-2s0.7-0.9,1.1-1.2
			c0.5-0.3,1.1-0.4,1.8-0.4c0.7,0,1.3,0.1,1.8,0.4s0.9,0.7,1.1,1.2c0.3,0.5,0.4,1.2,0.4,2c0,0.8-0.1,1.5-0.4,2s-0.7,0.9-1.1,1.2
			c-0.5,0.3-1.1,0.4-1.8,0.4S-114,294.2-114.5,293.9 M-111.4,292.5c0.3-0.4,0.4-1,0.4-1.8s-0.1-1.4-0.4-1.8
			c-0.3-0.4-0.7-0.6-1.3-0.6c-0.6,0-1,0.2-1.3,0.6c-0.3,0.4-0.4,1-0.4,1.8s0.1,1.4,0.4,1.8c0.3,0.4,0.7,0.6,1.3,0.6
			C-112.2,293.1-111.7,292.9-111.4,292.5"/>
		<path class="st0" d="M-103.3,291.2c0.2,0.3,0.3,0.6,0.3,1.1c0,0.4-0.1,0.8-0.3,1.1c-0.2,0.3-0.6,0.5-1.1,0.7
			c-0.5,0.2-1.2,0.2-2,0.2c-0.3,0-0.6,0-1,0s-0.7-0.1-1-0.1v-6.8c0.3-0.1,0.7-0.1,1.1-0.2c0.4,0,0.8-0.1,1.2-0.1
			c1,0,1.8,0.2,2.3,0.5s0.7,0.8,0.7,1.5c0,0.4-0.1,0.7-0.3,1c-0.2,0.3-0.5,0.5-0.8,0.6C-103.8,290.7-103.5,290.9-103.3,291.2
			 M-106.9,288.4v1.7h1c0.5,0,0.8-0.1,1-0.2c0.2-0.1,0.3-0.4,0.3-0.7c0-0.2,0-0.4-0.1-0.5s-0.2-0.2-0.4-0.3
			c-0.2-0.1-0.5-0.1-0.8-0.1C-106.3,288.3-106.6,288.3-106.9,288.4 M-105,293.1c0.2-0.1,0.4-0.2,0.5-0.3c0.1-0.1,0.2-0.3,0.2-0.6
			s-0.1-0.6-0.3-0.7c-0.2-0.2-0.6-0.2-1-0.2h-1.1v1.9c0.2,0,0.5,0,0.9,0C-105.6,293.2-105.3,293.2-105,293.1"/>
		<rect x="-102.1" y="287.2" class="st0" width="1.5" height="7"/>
		<polygon class="st0" points="-97.7,293 -94.3,293 -94.3,294.2 -99.3,294.2 -99.3,287.2 -94.3,287.2 -94.3,288.5 -97.7,288.5 
			-97.7,290 -94.8,290 -94.8,291.3 -97.7,291.3 		"/>
		<path class="st0" d="M-89.2,294.2l-1.8-2.5h-0.1c-0.2,0-0.5,0-0.7,0v2.6h-1.5v-6.8c0.3-0.1,0.7-0.1,1.1-0.2c0.4,0,0.8-0.1,1.1-0.1
			c1,0,1.8,0.2,2.3,0.6c0.5,0.4,0.8,0.9,0.8,1.7c0,0.5-0.1,0.9-0.4,1.3c-0.2,0.3-0.6,0.6-1,0.8l2,2.8h-1.8V294.2z M-91.8,290.5
			c0.3,0,0.5,0,0.8,0c0.5,0,0.9-0.1,1.1-0.3s0.4-0.5,0.4-0.9s-0.1-0.7-0.3-0.8c-0.2-0.2-0.6-0.3-1.1-0.3c-0.3,0-0.6,0-0.8,0.1
			L-91.8,290.5L-91.8,290.5z"/>
		<polygon class="st0" points="-82.2,287.2 -80.7,287.2 -80.7,294.2 -82.3,294.2 -85.3,289.6 -85.3,294.2 -86.8,294.2 -86.8,287.2 
			-85.2,287.2 -82.2,291.9 		"/>
		<path class="st0" d="M-78.2,293.9c-0.5-0.3-0.9-0.7-1.1-1.2c-0.3-0.5-0.4-1.2-0.4-2c0-0.8,0.1-1.5,0.4-2s0.7-0.9,1.1-1.2
			c0.5-0.3,1.1-0.4,1.8-0.4c0.7,0,1.3,0.1,1.8,0.4s0.9,0.7,1.1,1.2c0.3,0.5,0.4,1.2,0.4,2c0,0.8-0.1,1.5-0.4,2s-0.7,0.9-1.1,1.2
			c-0.5,0.3-1.1,0.4-1.8,0.4S-77.7,294.2-78.2,293.9 M-75.1,292.5c0.3-0.4,0.4-1,0.4-1.8s-0.1-1.4-0.4-1.8c-0.3-0.4-0.7-0.6-1.3-0.6
			c-0.6,0-1,0.2-1.3,0.6c-0.3,0.4-0.4,1-0.4,1.8s0.1,1.4,0.4,1.8c0.3,0.4,0.7,0.6,1.3,0.6C-75.8,293.1-75.4,292.9-75.1,292.5"/>
		<path class="st0" d="M-69.7,294.2v-6.8c0.3-0.1,0.7-0.1,1.1-0.2c0.4,0,0.8-0.1,1.1-0.1c1.3,0,2.3,0.3,2.9,0.9s1,1.5,1,2.7
			c0,0.8-0.2,1.5-0.5,2s-0.8,0.9-1.4,1.2c-0.6,0.2-1.4,0.4-2.3,0.4C-68.4,294.3-69.1,294.3-69.7,294.2 M-66.1,292.8
			c0.3-0.2,0.6-0.4,0.7-0.7c0.2-0.3,0.2-0.8,0.2-1.3c0-0.6-0.1-1-0.2-1.3c-0.2-0.3-0.4-0.6-0.7-0.7c-0.3-0.2-0.7-0.2-1.2-0.2
			c-0.2,0-0.5,0-0.8,0.1v4.5c0.2,0,0.5,0,0.8,0C-66.9,293.1-66.4,293-66.1,292.8"/>
		<polygon class="st0" points="-61,293 -57.6,293 -57.6,294.2 -62.6,294.2 -62.6,287.2 -57.6,287.2 -57.6,288.5 -61,288.5 -61,290 
			-58.1,290 -58.1,291.3 -61,291.3 		"/>
		<polygon class="st0" points="-54.2,294.2 -54.2,287.2 -52.7,287.2 -52.7,293 -49.5,293 -49.5,294.2 		"/>
		<path class="st0" d="M-44.1,294.2l-0.6-1.9h-2.6l-0.6,1.9h-1.5l2.3-7h2.3l2.3,7H-44.1z M-46.9,291.1h1.8l-0.9-3L-46.9,291.1z"/>
		<path class="st0" d="M-39.5,287.4c0.7-0.1,1.4-0.2,2.1-0.2c1.1,0,1.8,0.2,2.4,0.6c0.5,0.4,0.8,1,0.8,1.9c0,0.8-0.3,1.5-0.8,1.9
			s-1.3,0.6-2.3,0.6c-0.1,0-0.4,0-0.7,0v2h-1.5V287.4z M-36.1,290.7c0.2-0.2,0.4-0.6,0.4-1c0-0.5-0.1-0.8-0.4-1.1
			c-0.2-0.2-0.6-0.3-1.1-0.3c-0.3,0-0.5,0-0.7,0.1v2.6c0.2,0,0.5,0,0.7,0C-36.7,291.1-36.3,291-36.1,290.7"/>
		<path class="st0" d="M-29.1,294.2l-1.8-2.6H-31c-0.2,0-0.5,0-0.7,0v2.6h-1.5v-6.8c0.3-0.1,0.7-0.1,1.1-0.2c0.4,0,0.8-0.1,1.1-0.1
			c1,0,1.8,0.2,2.3,0.6s0.8,0.9,0.8,1.7c0,0.5-0.1,0.9-0.4,1.3c-0.2,0.3-0.6,0.6-1,0.8l2,2.8L-29.1,294.2L-29.1,294.2z M-31.7,290.5
			c0.3,0,0.5,0,0.8,0c0.5,0,0.9-0.1,1.1-0.3c0.2-0.2,0.4-0.5,0.4-0.9s-0.1-0.7-0.3-0.8c-0.2-0.2-0.6-0.3-1.1-0.3
			c-0.3,0-0.6,0-0.8,0.1L-31.7,290.5L-31.7,290.5z"/>
		<path class="st0" d="M-25.7,293.9c-0.5-0.3-0.9-0.7-1.1-1.2c-0.3-0.5-0.4-1.2-0.4-2c0-0.8,0.1-1.5,0.4-2c0.3-0.5,0.7-0.9,1.1-1.2
			c0.5-0.3,1.1-0.4,1.8-0.4s1.3,0.1,1.8,0.4s0.9,0.7,1.1,1.2c0.3,0.5,0.4,1.2,0.4,2c0,0.8-0.1,1.5-0.4,2c-0.3,0.5-0.7,0.9-1.1,1.2
			c-0.5,0.3-1.1,0.4-1.8,0.4C-24.6,294.3-25.2,294.2-25.7,293.9 M-22.7,292.5c0.3-0.4,0.4-1,0.4-1.8s-0.1-1.4-0.4-1.8
			c-0.3-0.4-0.7-0.6-1.3-0.6s-1,0.2-1.3,0.6c-0.3,0.4-0.4,1-0.4,1.8s0.1,1.4,0.4,1.8c0.3,0.4,0.7,0.6,1.3,0.6S-23,292.9-22.7,292.5"
			/>
		<polygon class="st0" points="-15.2,287.2 -13.7,287.2 -15.9,294.2 -18.2,294.2 -20.5,287.2 -18.8,287.2 -17,293.1 		"/>
		<rect x="-13" y="287.2" class="st0" width="1.5" height="7"/>
		<polygon class="st0" points="-5.6,287.2 -4.2,287.2 -4.2,294.2 -5.7,294.2 -8.8,289.6 -8.8,294.2 -10.2,294.2 -10.2,287.2 
			-8.7,287.2 -5.6,291.9 		"/>
		<path class="st0" d="M-2.2,293.5c-0.6-0.6-0.9-1.5-0.9-2.7c0-1.2,0.3-2.1,1-2.7c0.6-0.6,1.6-0.9,2.8-0.9c0.5,0,1,0.1,1.5,0.2v1.3
			c-0.5-0.1-0.9-0.2-1.4-0.2s-0.9,0.1-1.3,0.2c-0.3,0.2-0.6,0.4-0.7,0.7c-0.2,0.3-0.2,0.8-0.2,1.3c0,0.6,0.1,1,0.2,1.4
			c0.2,0.3,0.4,0.6,0.7,0.7c0.3,0.2,0.7,0.2,1.2,0.2c0.4,0,0.9-0.1,1.4-0.2v1.3c-0.2,0.1-0.5,0.1-0.8,0.2c-0.3,0-0.5,0.1-0.8,0.1
			C-0.7,294.3-1.6,294-2.2,293.5"/>
		<rect x="2.9" y="287.2" class="st0" width="1.5" height="7"/>
		<path class="st0" d="M10.5,294.2l-0.6-1.9H7.3l-0.6,1.9H5.2l2.3-7h2.3l2.3,7H10.5z M7.6,291.1h1.8l-0.9-3L7.6,291.1z"/>
		<path class="st0" d="M15.1,294.2v-6.8c0.3-0.1,0.7-0.1,1.1-0.2c0.4,0,0.8-0.1,1.1-0.1c1.3,0,2.3,0.3,2.9,0.9c0.6,0.6,1,1.5,1,2.7
			c0,0.8-0.2,1.5-0.5,2s-0.8,0.9-1.4,1.2c-0.6,0.2-1.4,0.4-2.3,0.4C16.3,294.3,15.7,294.3,15.1,294.2 M18.6,292.8
			c0.3-0.2,0.6-0.4,0.7-0.7c0.2-0.3,0.2-0.8,0.2-1.3c0-0.6-0.1-1-0.2-1.3c-0.2-0.3-0.4-0.6-0.7-0.7c-0.3-0.2-0.7-0.2-1.2-0.2
			c-0.2,0-0.5,0-0.8,0.1v4.5c0.2,0,0.5,0,0.8,0C17.9,293.1,18.3,293,18.6,292.8"/>
		<polygon class="st0" points="23.7,293 27.1,293 27.1,294.2 22.2,294.2 22.2,287.2 27.1,287.2 27.1,288.5 23.7,288.5 23.7,290 
			26.6,290 26.6,291.3 23.7,291.3 		"/>
		<path class="st0" d="M-111.3,306.6c0.5,0.6,0.8,1.4,0.8,2.4s-0.3,1.8-0.8,2.5c-0.5,0.7-1.3,1.2-2.4,1.5c-1.1,0.3-2.6,0.5-4.4,0.5
			c-0.7,0-1.4,0-2.2-0.1c-0.8-0.1-1.5-0.1-2.2-0.2v-14.8c0.7-0.2,1.5-0.3,2.4-0.4s1.7-0.1,2.5-0.1c2.3,0,3.9,0.4,5,1.1
			c1,0.7,1.6,1.8,1.6,3.2c0,0.8-0.2,1.5-0.6,2.1c-0.4,0.6-1,1-1.8,1.2C-112.5,305.6-111.8,306-111.3,306.6 M-119.2,300.5v3.8h2.2
			c1,0,1.7-0.2,2.2-0.5c0.4-0.3,0.6-0.8,0.6-1.5c0-0.5-0.1-0.8-0.3-1.1c-0.2-0.3-0.5-0.5-0.9-0.6s-1-0.2-1.7-0.2
			C-117.8,300.3-118.5,300.4-119.2,300.5 M-115.1,310.8c0.5-0.2,0.9-0.4,1.1-0.7s0.3-0.7,0.3-1.2c0-0.7-0.2-1.3-0.7-1.6
			c-0.5-0.3-1.2-0.5-2.3-0.5h-2.5v4.2c0.5,0.1,1.2,0.1,1.9,0.1C-116.4,311.1-115.7,311-115.1,310.8"/>
		<path class="st0" d="M-107.1,311.9c-1-1.1-1.6-2.7-1.6-4.9v-9h3.4v9.3c0,1.2,0.3,2.1,0.8,2.6c0.5,0.6,1.3,0.8,2.3,0.8
			c1.1,0,1.8-0.3,2.3-0.8c0.5-0.6,0.8-1.4,0.8-2.6V298h3.3v9c0,2.2-0.5,3.9-1.6,4.9c-1,1.1-2.7,1.6-4.9,1.6
			C-104.5,313.5-106.1,313-107.1,311.9"/>
		<polygon class="st0" points="-89.8,310.7 -82.2,310.7 -82.2,313.3 -93.1,313.3 -93.1,298 -82.3,298 -82.3,300.7 -89.8,300.7 
			-89.8,304.2 -83.4,304.2 -83.4,306.9 -89.8,306.9 		"/>
		<polygon class="st0" points="-70,298 -66.8,298 -66.8,313.3 -70.2,313.3 -76.9,303.1 -76.9,313.3 -80.1,313.3 -80.1,298 
			-76.7,298 -70,308.3 		"/>
		<path class="st0" d="M-61.2,312.7c-1.1-0.6-1.9-1.5-2.5-2.6c-0.6-1.2-0.9-2.6-0.9-4.4c0-1.7,0.3-3.2,0.9-4.4
			c0.6-1.2,1.4-2,2.5-2.6c1.1-0.6,2.4-0.9,3.9-0.9s2.8,0.3,3.9,0.9c1.1,0.6,1.9,1.5,2.5,2.6c0.6,1.2,0.9,2.6,0.9,4.4
			c0,1.8-0.3,3.2-0.9,4.4c-0.6,1.2-1.4,2-2.5,2.6c-1.1,0.6-2.4,0.9-3.8,0.9C-58.8,313.5-60.1,313.3-61.2,312.7 M-54.5,309.6
			c0.6-0.8,1-2.1,1-3.9c0-1.8-0.3-3.1-1-4c-0.6-0.8-1.6-1.2-2.8-1.2s-2.2,0.4-2.8,1.2c-0.6,0.8-1,2.1-1,3.9c0,1.8,0.3,3.2,1,4
			c0.6,0.8,1.6,1.2,2.8,1.2S-55.2,310.4-54.5,309.6"/>
		<path class="st0" d="M-46.3,313.4c-0.7-0.1-1.4-0.3-2.1-0.5v-2.7c0.6,0.2,1.4,0.4,2.1,0.5c0.8,0.1,1.5,0.2,2.2,0.2
			c1,0,1.7-0.2,2.1-0.5c0.4-0.3,0.7-0.7,0.7-1.3c0-0.3-0.1-0.6-0.2-0.8c-0.1-0.2-0.4-0.4-0.7-0.6c-0.3-0.2-0.8-0.3-1.3-0.5l-1.2-0.3
			c-1.4-0.3-2.4-0.9-3.1-1.6c-0.7-0.7-1-1.7-1-2.8c0-1.5,0.5-2.6,1.6-3.4c1.1-0.8,2.7-1.2,4.8-1.2c0.7,0,1.3,0,1.9,0.1
			c0.6,0.1,1.2,0.2,1.7,0.3v2.7c-0.5-0.2-1-0.3-1.6-0.4s-1.2-0.1-1.8-0.1c-1.1,0-2,0.2-2.5,0.5c-0.5,0.3-0.7,0.7-0.7,1.3
			c0,0.3,0.1,0.6,0.2,0.8c0.1,0.2,0.3,0.4,0.6,0.5c0.3,0.2,0.7,0.3,1.2,0.4l1.2,0.3c1.5,0.4,2.6,0.9,3.3,1.6
			c0.7,0.7,1.1,1.7,1.1,2.8c0,1-0.2,1.8-0.7,2.5c-0.5,0.7-1.2,1.3-2.1,1.6c-0.9,0.4-2,0.6-3.3,0.6
			C-44.8,313.5-45.5,313.5-46.3,313.4"/>
		<path class="st0" d="M-20.4,313.3l-1.3-4.1h-5.7l-1.3,4.1H-32l5-15.3h4.9l5,15.3H-20.4z M-26.5,306.6h4l-2-6.5L-26.5,306.6z"/>
		<rect x="-15.5" y="298" class="st0" width="3.4" height="15.3"/>
		<path class="st0" d="M-0.3,313.3l-3.9-5.6h-0.2c-0.5,0-1,0-1.6-0.1v5.7h-3.3v-15c0.7-0.2,1.5-0.3,2.3-0.4c0.8-0.1,1.7-0.1,2.5-0.1
			c2.2,0,3.9,0.4,5,1.2c1.1,0.8,1.7,2,1.7,3.7c0,1.1-0.3,2-0.8,2.8c-0.5,0.7-1.3,1.3-2.3,1.7l4.4,6.2h-3.8V313.3z M-6.1,305.1
			c0.6,0.1,1.1,0.1,1.7,0.1c1.1,0,1.9-0.2,2.5-0.6c0.5-0.4,0.8-1,0.8-1.9c0-0.8-0.3-1.5-0.8-1.9c-0.5-0.4-1.3-0.6-2.4-0.6
			c-0.6,0-1.2,0.1-1.8,0.2V305.1z"/>
		<polygon class="st0" points="8.3,310.7 15.8,310.7 15.8,313.3 4.9,313.3 4.9,298 15.7,298 15.7,300.7 8.3,300.7 8.3,304.2 
			14.7,304.2 14.7,306.9 8.3,306.9 		"/>
		<path class="st0" d="M19.5,313.4c-0.7-0.1-1.4-0.3-2.1-0.5v-2.7c0.6,0.2,1.4,0.4,2.1,0.5c0.8,0.1,1.5,0.2,2.2,0.2
			c1,0,1.7-0.2,2.1-0.5c0.4-0.3,0.7-0.7,0.7-1.3c0-0.3-0.1-0.6-0.2-0.8c-0.1-0.2-0.4-0.4-0.7-0.6c-0.3-0.2-0.8-0.3-1.3-0.5l-1.2-0.3
			c-1.4-0.3-2.4-0.9-3.1-1.6c-0.7-0.7-1-1.7-1-2.8c0-1.5,0.5-2.6,1.6-3.4c1.1-0.8,2.7-1.2,4.8-1.2c0.7,0,1.3,0,1.9,0.1
			c0.6,0.1,1.2,0.2,1.7,0.3v2.7c-0.5-0.2-1-0.3-1.6-0.4s-1.2-0.1-1.8-0.1c-1.1,0-2,0.2-2.5,0.5c-0.5,0.3-0.7,0.7-0.7,1.3
			c0,0.3,0.1,0.6,0.2,0.8c0.1,0.2,0.3,0.4,0.6,0.5c0.3,0.2,0.7,0.3,1.2,0.4l1.2,0.3c1.5,0.4,2.6,0.9,3.3,1.6
			c0.7,0.7,1.1,1.7,1.1,2.8c0,1-0.2,1.8-0.7,2.5c-0.5,0.7-1.2,1.3-2.1,1.6c-0.9,0.4-2,0.6-3.3,0.6C21,313.5,20.3,313.5,19.5,313.4"
			/>
	</g>
	<g>
		<g>
			<rect x="-172.3" y="273.1" class="st0" width="0.7" height="2.7"/>
			<rect x="-170.6" y="273.1" class="st0" width="0.7" height="2.7"/>
			<path class="st0" d="M-170.4,271.9h-3c-0.2,0-0.4,0.2-0.4,0.4v0.5h-1.5c-0.5,0-0.9,0.4-0.9,0.9l-0.1,1.6l-0.3,0.3
				c-0.2,0.2-0.3,0.6-0.3,0.7v1.8c0,0.2,0.2,0.4,0.4,0.4h0.3c0.2,0.5,0.6,0.9,1.2,0.9c0.7,0,1.2-0.6,1.2-1.2c0-0.7-0.6-1.2-1.2-1.2
				c-0.5,0-0.9,0.3-1.1,0.7v-0.5h0.1c0.2,0,0.4-0.2,0.4-0.4c0-0.2-0.2-0.4-0.4-0.4h-0.1v-0.1l0.3-0.3h2v2.1c0,0.2,0.2,0.4,0.4,0.4
				h0.4c0.4-0.3,0.7-0.5,1.1-0.7l0,0h-1.1v-0.7h2.9c0.8-0.3,1.7-0.6,2.7-0.7h-5.6v-3.7h3.8C-169.7,272.3-170,272.1-170.4,271.9z
				 M-175.1,277.5c0.3,0,0.5,0.2,0.5,0.5c0,0.3-0.2,0.5-0.5,0.5c-0.3,0-0.5-0.2-0.5-0.5C-175.6,277.7-175.4,277.5-175.1,277.5z
				 M-173.8,275.1h-1.8l0.1-1.4l0,0c0-0.1,0.1-0.2,0.2-0.2h1.5V275.1z"/>
			<path class="st0" d="M-168.5,273.1h-0.4v2.7h0.7v-2.5C-168.4,273.2-168.4,273.2-168.5,273.1z"/>
			<path class="st0" d="M-167.3,274v1.8h0.7v-1.2C-166.8,274.3-167.1,274.2-167.3,274z"/>
			<path class="st0" d="M-185.1,284.3v-3l1.8,1.8l0.7-0.3v-8.5l1.8-1c-0.2,0.4-0.4,0.8-0.5,1.3c-0.5,2.3,0.7,4.3,0.8,4.4l0,0
				c0,0.5,0.2,1,0.6,1.4l0.3,0.3c0.1,0.1,0.3,0.1,0.4,0l0.2-0.2l0.4,0.5c0.1,0.1,0.3,0.1,0.4,0c0.3-0.2,0.7-0.2,0.9,0
				c0.2,0.3,0.2,0.7-0.1,0.9c-0.3,0.2-0.7,0.2-0.9,0c-0.1-0.1-0.3-0.1-0.4,0c-0.1,0.1-0.2,0.3,0,0.4c0.5,0.5,1.3,0.5,1.8,0.1
				s0.6-1.3,0.1-1.8c-0.4-0.4-1-0.5-1.5-0.3l-0.1-0.2l0.2-0.2c0.1-0.1,0.2-0.3,0-0.4l-0.2-0.4c-0.3-0.4-0.7-0.6-1.2-0.7l0,0
				c-0.1-0.2-2.3-3.7,1.4-6.5l1.1-0.6l-0.2-0.8l-5.3,0.1v-1.2l-0.4-0.5h-2.5l-0.4,0.4v15.5l0.5-0.4L-185.1,284.3z M-178.8,279.6
				L-178.8,279.6l-0.4,0.5l0,0c-0.3-0.3-0.4-0.6-0.5-1C-179.4,279.1-179.1,279.3-178.8,279.6z M-179.2,271.4
				c-0.1,0.1-0.2,0.2-0.3,0.3l-1,0.5l-1.2-0.8H-179.2z M-182.6,271.8l1.2,0.9l-1.2,0.6C-182.6,273.3-182.6,271.8-182.6,271.8z
				 M-183.4,281.8l-1.5-1.5l1.5-1.4V281.8z M-183.4,277.1l-1.4-1l1.4-1.1V277.1z M-183.4,271v2.1l-1.5-1.2l1.5-1.4V271z
				 M-185.1,269.8h1.2l-1.2,1.2C-185.1,271-185.1,269.8-185.1,269.8z M-185.1,272.9l1.4,1.2l-1.4,1.2V272.9z M-185.1,276.9l1.4,1.1
				l-1.4,1.4V276.9z"/>
			<path class="st0" d="M-179.8,295.3c1.1,0,2-0.8,2.2-1.9l0,0c0.1-0.6-0.1-1.2-0.4-1.6c-0.4-0.5-0.9-0.8-1.4-0.8
				c-0.6-0.1-1.2,0.1-1.6,0.4c-0.5,0.4-0.8,0.9-0.8,1.4C-182,294-181.1,295.1-179.8,295.3C-180,295.3-179.9,295.3-179.8,295.3z
				 M-180.5,293.6c-0.1-0.2-0.2-0.4-0.2-0.6c0.1-0.4,0.4-0.7,0.8-0.7h0.1c0.2,0,0.4,0.1,0.6,0.3c0.1,0.2,0.2,0.4,0.2,0.6
				c0,0.2-0.1,0.4-0.3,0.6c-0.2,0.1-0.4,0.2-0.6,0.2l0,0C-180.1,293.9-180.3,293.8-180.5,293.6z"/>
			<path class="st0" d="M-130.1,294.3c-0.1,0.1-0.1,0.2-0.2,0.2c-0.2,0.2-0.6,0.6-0.8,0.8l-0.1,0.1c-0.2,0.2-0.5,0.3-0.8,0.4
				c-0.7,0.3-1.2,0.8-1.4,1.6c-0.1-0.4-0.2-0.8-0.1-1.1c0.1-0.7,0.5-1.3,0.8-1.9c0.1-0.2,0.2-0.3,0.3-0.5c0.1-0.1,0.1-0.3,0-0.4
				c-0.1-0.1-0.2-0.2-0.4-0.2c-0.9,0.1-1.7,0.5-2.4,0.9c0.1-0.5,0.5-0.8,0.8-1.3c0-0.1,0.1-0.1,0.1-0.2c0.1-0.1,0.1-0.4,0-0.5
				c-0.1-0.1-0.3-0.2-0.5-0.1c-0.5,0.3-1.1,0.6-1.6,0.8c-0.4,0.2-0.9,0.4-1.4,0.6c-0.4,0.1-0.7,0.3-1,0.5c0.1-0.2,0.2-0.3,0.3-0.5
				c0.2-0.3,0.5-0.5,0.8-0.8c0.1-0.1,0.3-0.2,0.4-0.4c0.6-0.6,1-1.1,1.4-1.8c0.1-0.1,0.1-0.2,0-0.3c0-0.1-0.1-0.2-0.2-0.2
				c-0.4-0.1-0.8-0.2-1.3-0.2c-0.2,0-0.4,0.1-0.5,0.2l0,0l0,0v-0.1c0.1-0.3,0.2-0.5,0.5-0.7c0,0,0,0,0.1-0.1
				c0.2-0.2,0.1-0.4,0.1-0.5s-0.1-0.2-0.4-0.3h-0.1c-0.3,0.1-0.6,0.1-1,0c-0.6-0.1-1.3-0.2-2,0l0.1-0.1c0.4-0.4,0.9-0.6,1.6-0.8
				c0.4-0.1,0.8-0.3,1.1-0.5c0.1-0.1,0.2-0.1,0.4-0.2c0.3-0.1,0.3-0.3,0.3-0.5c0-0.1-0.1-0.3-0.3-0.5c-0.3,0.4-0.6,0.4-1,0.4
				c0.2-0.1,0.3-0.2,0.5-0.4c0.1-0.2,0.3-0.2,0.7-0.4l0,0c0.1,0,0.3-0.2,0.3-0.3c0-0.2,0-0.3-0.2-0.4c-0.1,0-0.1-0.1-0.2-0.1
				c-0.1-0.1-0.2-0.1-0.3-0.2c-0.5-0.4-0.8-0.7-1-1.2c-0.2-0.4-0.5-0.6-0.8-0.7c-0.2-0.1-0.5-0.2-0.7-0.3c0.5-0.1,1-0.1,1.5,0.1
				c0.7,0.2,1.3,0.6,1.9,0.9l0,0c0.1,0,0.2,0.2,0.4,0.1c0.2,0,0.3-0.2,0.3-0.3c0.1-1-0.2-1.7-0.8-2.4c0.5,0.1,1,0.4,1.6,0.8
				c0.2,0.1,0.4,0.1,0.5-0.1c0.1-0.1,0.2-0.3,0.1-0.5c-0.2-0.3-0.2-0.3-0.3-0.5c0-0.1-0.1-0.2-0.1-0.3c-0.1-0.2,0-0.3,0-0.6
				c0-0.1,0-0.2,0-0.3c0-0.4,0.2-0.8,0.3-1.1c-0.2-0.2-0.4-0.3-0.6-0.5c-0.3,0.5-0.5,1.1-0.5,1.6c0,0.1,0,0.2,0,0.3
				c0,0.2,0,0.4,0,0.7c-0.7-0.3-1.4-0.5-2.1-0.5c-0.2,0-0.3,0.1-0.4,0.3c-0.1,0.2,0,0.3,0.1,0.4c0.7,0.6,1.2,1.2,1.3,1.9
				c-0.5-0.3-1-0.5-1.6-0.7c-1.3-0.5-2.4-0.1-3.4,0.4c-0.1,0.1-0.2,0.2-0.2,0.4c0,0.2,0.1,0.3,0.2,0.4s0.3,0.1,0.4,0.1
				c0.6,0.1,1.2,0.2,1.7,0.4c0.2,0.1,0.3,0.2,0.4,0.3c0.2,0.5,0.6,1,1.2,1.4c-0.2,0.1-0.3,0.2-0.4,0.4c-0.1,0.2-0.3,0.3-0.6,0.3
				c-0.3-0.1-0.5,0.1-0.5,0.2c-0.1,0.1-0.1,0.3,0,0.6l0,0c0.3,0.5,0.7,0.7,1.3,0.7c-0.2,0.1-0.4,0.2-0.6,0.2c-0.6,0.2-1.4,0.4-1.9,1
				c-0.1,0.1-0.3,0.2-0.5,0.2l0,0c-0.4,0-0.5,0.2-0.6,0.3c-0.1,0.3,0.1,0.6,0.2,0.7c0.2,0.2,0.3,0.3,0.6,0.3c0.2,0,0.5,0,0.7,0
				c0.7-0.1,1.3-0.1,1.9,0c0.1,0,0.3,0,0.4,0.1c-0.1,0.1-0.1,0.2-0.1,0.4c-0.1,0.4-0.2,0.5-0.5,0.6c-0.3,0.1-0.4,0.3-0.4,0.4
				c0,0.1,0,0.3,0.2,0.5c0.4,0.3,0.7,0.1,0.9,0c0.3-0.1,0.5-0.3,0.7-0.5c0.1,0,0.1-0.1,0.2-0.1l0,0l0.1-0.1c0.2,0,0.3,0,0.4,0
				c-0.3,0.4-0.6,0.8-1,1.2c-0.1,0.1-0.2,0.2-0.4,0.4c-0.3,0.3-0.6,0.5-0.8,0.9c-0.4,0.5-0.6,1.1-0.6,1.8c0,0.1,0.1,0.2,0.1,0.3
				c0.1,0.1,0.2,0.1,0.3,0.1c0.2,0,0.3-0.1,0.4-0.2h0.1c0.4-0.3,0.8-0.6,1.3-0.7c0.5-0.2,1-0.4,1.4-0.6c0,0,0.1,0,0.1-0.1
				c0,0-0.1,0.5,0,1c0,0.1,0.1,0.2,0.2,0.3c0.1,0.1,0.3,0,0.4,0c0.6-0.4,1.2-0.8,1.8-1c-0.3,0.6-0.7,1.2-0.7,1.9
				c-0.1,0.9,0.5,2.6,0.9,3c0.1,0.1,0.3,0.1,0.4,0.1c0.1-0.1,0.2-0.2,0.2-0.3c0-0.4,0.1-0.8,0.1-1.2c0.1-0.6,0.4-1,0.9-1.2
				c0.4-0.1,0.7-0.3,1-0.6l0.1-0.1c0.2-0.1,0.3-0.3,0.5-0.5c0.1-0.1,0.2-0.2,0.2-0.2C-129.9,294.9-130,294.6-130.1,294.3z"/>
			<rect x="-164.9" y="264.9" class="st0" width="0.9" height="0.9"/>
			<rect x="-161.7" y="264.9" class="st0" width="0.9" height="0.9"/>
			<path class="st0" d="M-165.8,263.8l2.6-1.9v1.7c0,0.1,0.1,0.2,0.1,0.3l0,0l0,0c0.1,0.1,0.3,0.1,0.4,0l0.1-0.1l0,0l2.6-1.8l0,0
				v1.3v0.4c0,0.1,0.1,0.2,0.1,0.3l0,0l0,0c0.1,0.1,0.3,0.1,0.4,0l0.1-0.1l0,0l2.6-1.9v0.9h0.8v-1.6c0-0.1-0.1-0.2-0.1-0.3l0,0l0,0
				c-0.1-0.1-0.3-0.1-0.4,0l-0.2,0.1l0,0l-2.6,1.9v-1.4v-0.3c0-0.1-0.1-0.2-0.1-0.3l0,0l0,0c-0.1-0.1-0.3-0.1-0.4,0l-0.1,0.1l0,0
				l-2.6,1.9v-1.4v-0.3c0-0.1-0.1-0.2-0.1-0.3l0,0l0,0c-0.1-0.1-0.3-0.1-0.4,0l-3.3,2.4c-0.1,0.1-0.1,0.2-0.1,0.3v3.8
				c0.2,0.2,0.5,0.3,0.7,0.5v-4.2H-165.8z"/>
			<path class="st0" d="M-168.9,269.8l0.4,0.2l0.4-0.7l-0.4-0.2c-0.4-0.2-0.8-0.4-1.2-0.6l-0.4-0.2l-0.4,0.8l0.4,0.2
				C-169.7,269.4-169.3,269.6-168.9,269.8z"/>
			<path class="st0" d="M-153.4,276.3l0.4-0.1l-0.2-0.8l-0.4,0.1c-0.4,0.1-0.8,0.1-1.2,0.2h-0.4l0.1,0.9h0.4
				C-154.2,276.4-153.8,276.3-153.4,276.3z"/>
			<path class="st0" d="M-163,274l0.5-0.7l-1-0.7c0,0-0.2-0.1-0.4-0.3l-0.3-0.2l-0.5,0.7l0.3,0.2c0.2,0.2,0.4,0.3,0.4,0.3L-163,274z
				"/>
			<path class="st0" d="M-166.7,271.3c0.1,0.1,0.3,0.2,0.6,0.4l0.3,0.3l0.5-0.7l-0.3-0.3c-0.2-0.2-0.4-0.3-0.6-0.4
				c-0.1-0.1-0.3-0.2-0.5-0.3l-0.3-0.3l-0.5,0.7l0.3,0.3C-167,271.1-166.9,271.2-166.7,271.3z"/>
			<path class="st0" d="M-156.5,276.5l0.1-0.9h-0.4c-0.4,0-0.8-0.1-1.2-0.2l-0.4-0.1l-0.3,0.8l0.4,0.1c0.5,0.1,0.9,0.2,1.3,0.2
				L-156.5,276.5z"/>
			<path class="st0" d="M-160,275.7l0.3-0.8l-0.3-0.2c-0.4-0.2-0.8-0.4-1.1-0.6l-0.4-0.2l-0.4,0.7l0.4,0.2c0.4,0.2,0.8,0.4,1.2,0.6
				L-160,275.7z"/>
			<path class="st0" d="M-135.3,287.8c0.6,3.4,3.9,5.4,4.2,5.5c0.1,0,0.4,0.2,0.9,0.5c-0.3-0.4-0.5-0.9-0.6-1.4
				c-0.7-0.4-3-2.1-3.5-4.7c-0.3-1.7,0.3-3.6,1.7-5.4c0-0.1,0-0.3,0-0.4c0-0.3,0-0.6-0.1-1c-0.2,0.1-0.3,0.2-0.3,0.2l0,0
				C-134.9,283.4-135.7,285.6-135.3,287.8z"/>
			<path class="st0" d="M-138.3,309.4c-0.1,0-0.1,0-0.2,0c-0.2-0.2-0.8-1.1-1.3-1.9c-0.6-0.9-1.3-1.9-1.8-2.7
				c0.4-0.3,0.6-0.9,0.5-1.6c0,0-0.2-1.7-0.9-1.8c-0.2,0-0.4,0.1-0.6,0.4l0,0c-0.2,0.4-0.4,1-0.8,1.3c-0.1-0.1-0.3-0.1-0.4-0.1
				c0.3-0.6,0.4-1.3-0.2-2.1l0,0c-0.1-0.2-0.3-0.2-0.4-0.2c-0.2,0-0.3,0.1-0.4,0.2c0,0.1-0.1,0.2-0.1,0.3c-0.1,0.3-0.3,0.7-1,1
				c-0.7,0.3-1,0.8-1.1,1.5c-0.3-0.1-0.5-0.3-0.8-0.3c-0.4-0.1-0.9,0-1.3,0.3c-0.3,0.2-0.4,0.4-0.4,0.7c0,0.3,0.2,0.7,0.6,1
				c-0.4,0.1-0.8,0.1-1.1,0.2c-0.2,0.3-0.4,0.7-0.7,0.9c0.9-0.1,1.9-0.2,3-0.5c0.2,0,0.3-0.2,0.3-0.4c0-0.2-0.1-0.4-0.2-0.4
				c-0.4-0.2-0.8-0.6-1-0.8c0.1-0.1,0.4-0.3,0.7-0.2c0.4,0.1,1,0.4,1.1,0.7l0,0c0.2,0.4,0.5,0.3,0.6,0.2c0,0,0.4-0.2,0.2-0.6
				c-0.4-1.1,0.3-1.5,0.5-1.6c0.6-0.3,0.9-0.6,1.1-0.8c-0.1,0.6-0.6,1-0.7,1.1c-0.2,0.1-0.2,0.4-0.1,0.6c0.1,0.2,0.4,0.2,0.6,0.1
				c0,0,0.5-0.3,0.9-0.1c0.2,0.2,0.4,0.1,0.5,0.1c0.5-0.3,0.9-0.7,1.1-1.2c0.1,0.3,0.1,0.7,0,1.1c0.1,0.3,0,0.3-0.1,0.4
				c-0.1,0-0.3,0.1-0.4,0.4c0,0.2,0,0.3,0.1,0.4c0.6,0.7,1.4,1.9,2.1,3c1,1.5,1.3,2,1.6,2.2c0.1,0.1,0.2,0.1,0.4,0.1
				c0.1,0,0.1,0,0.2,0c0.1,0.3-0.1,0.8-0.2,1.2h-0.1c-0.1,0-0.2,0.1-0.2,0.2c-0.2,0.3-0.6,0.8-0.7,0.9c-0.3,0.2-0.6,0.1-1.2-0.2
				c-0.2-0.1-0.4-0.2-0.6-0.2c-0.9-0.2-2-0.4-3.3-0.1c-0.6,0.1-1.2,0.3-1.8,0.6c-0.7,0.4-1.1,2-1.2,2.7c0,0.2,0.1,0.5,0.3,0.5h0.1
				c0.2,0,0.4-0.1,0.4-0.4c0.2-1,0.6-1.9,0.8-2.1c0.5-0.3,1.1-0.5,1.6-0.6c1.1-0.2,2.1-0.1,2.9,0.1c0.1,0,0.3,0.1,0.4,0.2
				c0.5,0.3,1.4,0.7,2.1,0c0.2-0.2,0.6-0.7,0.8-0.9h0.1c0.1,0,0.2-0.1,0.3-0.2c0.1-0.2,0.8-1.5,0.3-2.4
				C-137.7,309.5-138,309.4-138.3,309.4z"/>
			<path class="st0" d="M-136.6,299.8c-1.3,0-2.6,0.6-3.4,1.5l0,0l0,0c-0.1,0.1-0.2,0.2-0.3,0.3l0.2,0.4c1.1,0.2,2.2,1.3,2.2,1.3
				l0.2,0.2l0.2-0.1c0.2-0.1,0.5,0,0.8,0.1l-1.2,2.2c-0.2,0-0.3,0-0.5,0c-0.1,0-0.2,0-0.3,0c-0.2,0-0.4,0-0.7,0c-0.3,0-0.5,0-0.8,0
				l0.8,1.1c0.4,0,1.1,0,1.5,0h0.1c0.4,0,0.8,0.1,1.2,0.1c1,0.1,1.9,0.4,2.8,0.6c0.2-0.3,0.4-0.6,0.6-0.9c-1.2-0.4-2.6-0.7-4-0.9
				l1-1.9c0.2,0.2,0.4,0.3,0.4,0.5l0.1,0.4l0.4-0.1c0.4-0.1,1,0.1,1.7,0.8l0,0l0,0c0.1,0.1,0.2,0.2,0.3,0.3l0.3,0.1
				c0.4-0.6,0.6-1.4,0.6-2.1C-132.2,301.6-134.2,299.8-136.6,299.8z M-133.1,304.8c-0.6-0.6-1.3-0.9-1.9-0.8
				c-0.5-0.8-1.7-1.4-2.5-1.3c-0.3-0.3-0.9-0.8-1.6-1.1c0.7-0.6,1.6-1,2.6-1c2,0,3.6,1.5,3.6,3.3C-133,304.2-133,304.5-133.1,304.8z
				"/>
			<path class="st0" d="M-147.3,311c0.3-0.2,0.6-0.1,0.8-0.1c0.2,0.1,0.4,0,0.5-0.2c0.1-0.1,0.1-0.3,0.1-0.5
				c-0.1-0.3-0.3-0.5-0.5-0.7c-0.3-0.2-0.6-0.3-1-0.3c-0.8-0.9-1.7-1.6-2.4-1.7c0,0-0.4-0.1-0.7-0.1c-0.7,0.1-1.4,0.3-1.9,0.8
				s-1,1.1-1.2,1.8l0,0c-0.1,0.2-0.1,0.6-0.2,0.8c-0.1,0.7,0.1,1.4,0.4,2.2l0.2,0.4c0.4,0.7,0.9,1.4,1.4,1.8c0.4,0.3,0.7,0.4,1,0.4
				c0.1,0,0.2,0,0.3-0.1c0.5-0.2,0.7-1,0.6-2.1l0,0c0-0.3-0.2-1.2-0.3-1.5c-0.1-0.3-0.1-0.5-0.2-0.8c0,0-0.1-1.1,0.4-1.2
				c0.5-0.1,0.9,0,1,0.3c0,0.1-0.1,0.2-0.1,0.4c-0.1,0.3,0,0.8,0.4,1.3c0.1,0.2,0.4,0.2,0.6,0.1c0.2-0.1,0.3-0.3,0.3-0.5
				C-147.7,311.3-147.6,311.1-147.3,311z M-150.7,315c-0.1,0-0.3,0-0.6-0.3c-0.4-0.3-0.8-0.8-1.2-1.4c0.4-0.4,1-0.8,1.8-0.6
				c0.1,0.3,0.1,0.8,0.1,0.9l0,0C-150.4,314.3-150.5,314.9-150.7,315z M-152.2,311.7c0.1-0.1,0.2-0.1,0.3-0.1c0,0,0.2,0,0.3,0
				c0,0.1,0,0.3,0,0.6c-0.1,0-0.1,0-0.2,0.1C-152.1,312-152.2,311.8-152.2,311.7z M-148.3,311.1c0-0.3,0.1-0.5,0.1-0.5
				c0.1-0.1,0.1-0.2,0-0.3c-0.1-0.3-0.4-0.6-0.7-0.7c-0.4-0.2-0.8-0.2-1.2-0.1c-0.3,0.1-0.5,0.3-0.7,0.6c-0.3,0.5-0.3,1.2-0.1,2
				c-0.1,0-0.1,0-0.2,0c0-0.3,0-0.6,0-0.7c0-0.2-0.1-0.3-0.3-0.4c-0.4-0.1-0.8,0-0.8,0s-0.4,0.1-0.7,0.4c-0.2,0.3,0,0.7,0.1,0.9
				c0,0,0.1,0.1,0.1,0.2s0.1,0.1,0.1,0.2c-0.1,0.1-0.2,0.1-0.3,0.2c-0.2-0.5-0.3-1.1-0.3-1.7l0,0c0-0.1,0.1-0.4,0.1-0.6v-0.1l0,0
				c0.2-0.6,0.5-1.2,1-1.5c0.4-0.3,0.9-0.5,1.6-0.6c0.9-0.1,2.1,1.1,2.5,1.6c0.1,0.1,0.2,0.2,0.3,0.1c0.4,0,0.6,0.1,0.8,0.2l0,0
				c-0.2,0-0.5,0-0.8,0.2C-147.9,310.5-148.2,310.8-148.3,311.1z"/>
			<path class="st0" d="M-151.2,313.7c-0.1-0.1-0.2-0.1-0.3,0c-0.1,0-0.2,0.1-0.3,0.2c-0.1,0.1-0.1,0.2,0,0.3c0,0.1,0.1,0.2,0.2,0.3
				c0.1,0,0.1,0.1,0.2,0.1h0.1c0.1,0,0.2-0.1,0.3-0.2s0.1-0.2,0-0.3C-151,313.9-151.1,313.8-151.2,313.7z"/>
			<rect x="-160.5" y="268.9" class="st0" width="2.3" height="0.9"/>
			<rect x="-160.5" y="270.3" class="st0" width="2.3" height="0.9"/>
			<path class="st0" d="M-153.9,265h-0.9c-0.1,0-0.1,0.1-0.1,0.1v0.8h-0.8c-0.1,0-0.1,0.1-0.1,0.1v0.9c0,0.1,0.1,0.1,0.1,0.1h0.8
				v0.8c0,0.1,0.1,0.1,0.1,0.1h0.9c0.1,0,0.1-0.1,0.1-0.1V267h0.8c0.1,0,0.1-0.1,0.1-0.1V266c0-0.1-0.1-0.1-0.1-0.1h-0.8v-0.8
				C-153.8,265.1-153.8,265-153.9,265z"/>
			<path class="st0" d="M-153.1,272.6v-1.8h0.5v-0.5h-0.7h-2h-0.7v0.5h0.5v2.3c0.2,0,0.3,0,0.5,0v-2.2h1.5v2
				C-153.4,272.7-153.3,272.7-153.1,272.6z"/>
			<path class="st0" d="M-157.6,263.6v3.8h-3.8c-0.2,0-0.4,0.2-0.4,0.4v3.1c0.2,0.2,0.5,0.3,0.7,0.5v-3.2h3.5v4.7
				c0.2,0.1,0.5,0.1,0.7,0.1v-9h5v7.8l0.7-0.5v-3.1h3.5v1.5l0.2,0.1c0.1-0.2,0.3-0.3,0.6-0.3v-1.7c0-0.2-0.2-0.4-0.4-0.4h-3.8v-3.8
				c0-0.2-0.2-0.4-0.4-0.4h-5.8C-157.4,263.3-157.6,263.4-157.6,263.6z"/>
			<path class="st0" d="M-154.7,298l-0.1,2.7c0.1,0,0.3,0,0.4,0.1c0.1,0,0.3,0.1,0.4,0.2l1.3-2.4
				C-152.7,298.5-153.4,297.7-154.7,298z"/>
			<path class="st0" d="M-155.4,300.9l-0.8-2.6c0,0-1.2-0.1-1.8,1.1l1.9,2C-155.9,301.1-155.7,301-155.4,300.9z"/>
			<path class="st0" d="M-159.5,302.6l2.8,0.1c0-0.1,0-0.3,0.1-0.5c0-0.1,0.1-0.3,0.2-0.4l-2.6-1.2
				C-159,300.6-159.8,301.3-159.5,302.6z"/>
			<path class="st0" d="M-158.2,306l2-1.9c-0.2-0.2-0.4-0.5-0.5-0.7l-2.6,0.8C-159.3,304.2-159.3,305.3-158.2,306z"/>
			<path class="st0" d="M-156.9,306.9L-156.9,306.9L-156.9,306.9L-156.9,306.9L-156.9,306.9C-156.9,307-156.9,307-156.9,306.9
				C-156.8,307-156.8,307-156.9,306.9c0.1,0.1,0.1,0.1,0.1,0.1l0,0c0,0,0,0,0.1,0l0,0c0,0,0,0,0.1,0l0,0c0,0,0,0,0.1,0l0,0h0.1l0,0
				h0.1l0,0h0.1l0,0h0.1l0,0h0.1l0,0h0.1l0,0h0.1l0,0c0,0,0.1,0,0.2,0l0,0h0.1l0,0h0.1l0,0h0.1l0,0h0.1l0,0v-0.1l0.1-2.7l0,0
				c-0.1,0-0.3,0-0.4-0.1c-0.1,0-0.3-0.1-0.4-0.2l-1.1,2.1L-156.9,306.9L-156.9,306.9L-156.9,306.9z"/>
			<path class="st0" d="M-151.5,306.1l-1.9-2c-0.2,0.2-0.5,0.4-0.7,0.4l0.8,2.6C-153.4,307.2-152.2,307.2-151.5,306.1z"/>
			<path class="st0" d="M-150.1,302.8l-2.8-0.1c0,0.1,0,0.3-0.1,0.4c0,0.1-0.1,0.3-0.2,0.4l2.5,1.3
				C-150.6,304.9-149.8,304.1-150.1,302.8z"/>
			<path class="st0" d="M-150.3,301.3c0,0,0.1-1.2-1.1-1.8l-2,1.9c0.2,0.2,0.4,0.5,0.4,0.8L-150.3,301.3z"/>
			<path class="st0" d="M-153.4,302.7c0-0.8-0.6-1.4-1.4-1.4s-1.4,0.6-1.4,1.4c0,0.8,0.6,1.4,1.4,1.4S-153.4,303.5-153.4,302.7z"/>
			<rect x="-154.7" y="287.3" class="st0" width="0.9" height="0.9"/>
			<rect x="-154.7" y="288.8" class="st0" width="0.9" height="0.9"/>
			<rect x="-145.5" y="287.3" class="st0" width="0.9" height="0.9"/>
			<rect x="-145.5" y="288.8" class="st0" width="0.9" height="0.9"/>
			<rect x="-143.6" y="274.8" class="st0" width="0.9" height="0.9"/>
			<rect x="-148.7" y="272.1" class="st0" width="0.9" height="0.9"/>
			<path class="st0" d="M-177,299.1c2.8,0.6,5.8,2.2,7.3,4l1-0.3c-1.6-2.1-4.9-3.8-8.1-4.6c-2.8-0.7-6.3-0.5-9.1,0.8v1.1
				C-183.1,298.5-179.7,298.4-177,299.1z"/>
			<path class="st0" d="M-175.7,297.4L-175.7,297.4c3,0.7,6.5,2.9,8,4.8l1-0.3l0,0c-1.5-2-4.9-4.3-8-5.2c0.2-0.1,0.5-0.3,0.5-0.3
				c0.1-0.1,0.3-0.2,0.4-0.4c3,0.9,6.7,3.5,8,5.5l0,0l0.9-0.3c0-0.1-0.1-0.2-0.1-0.3c-0.3-0.4-0.7-0.9-1.2-1.4
				c0.2-0.2,0.8-0.6,1-0.7c2.3-1.3,8.3-3.2,11.4-2.4c0.1,0.1,0.2,0.1,0.2,0.1c0.8,0.6,2.1,1,3.4,1.1c0.1,0,0.1,0,0.2,0
				c0.2,0,0.4,0,0.6,0c0,0.1,1.4-0.2,1.8-0.4c0.1,0,0.1,0,0.2-0.1c0.5-0.2,1.1-0.3,1.7-0.1c0.3,0.1,0.5,0.2,0.8,0.4
				c0,0,0.1,0,0.1,0.1c0.1,0.1,0.2,0.2,0.3,0.2c1,0.8,2.1,1.5,3.5,1.7c0.8,0.1,1.7,0,2.5-0.2c0.1,0,0.3-0.1,0.4-0.1
				c0.5-0.1,0.8-0.4,1.3-0.5c0.7-0.1,1.7-0.2,2.5,0.1c-0.2-0.4-0.4-0.7-0.4-1.1c-0.6,0,0,0-0.7,0c-1-0.1-1.7,0-2.8,0.4
				c0,0-0.2,0.1-0.4,0.1c-0.5,0.1-1.2,0.3-1.7,0.3h-0.1c-1-0.1-2.1-0.5-3-1.1c-0.1,0-0.1-0.1-0.2-0.1c-0.3-0.2-0.6-0.5-0.9-0.7
				c-0.2-0.1-0.4-0.2-0.6-0.3c-0.9-0.3-1.9-0.3-2.7,0.1c-0.6,0.3-1.4,0.4-2.2,0.4c-1.5-0.1-3.3-1.3-3.3-1.3
				c-1.1-0.9-2.4-1.7-3.9-2.3l0,0l0,0c1.3-0.7,2.9-1.3,4.5-1.6c0.3-0.1,0.6-0.1,0.9-0.1s0.7-0.1,1-0.1c0.4,0,2,0,2,0
				c0.4,0,0.9,0,1.3,0c2.9,0.2,5.6,1.1,7.7,2.7c0.1-0.4,0.4-0.8,0.6-1c-1.1-0.8-2.4-1.4-3.8-1.9v-4.9c0-0.1,0-0.2-0.1-0.3
				c-0.1-0.1-0.2-0.1-0.3-0.1h-2.3v-0.2c0-0.2-0.1-0.3-0.2-0.4l-3-1.9v-0.5h2.3c0.1,0,0.2,0,0.3-0.1s0.1-0.2,0.1-0.3V281
				c0-0.1,0-0.2-0.1-0.3s-0.2-0.1-0.3-0.1l0,0h-2.7c-0.1,0-0.2,0-0.3,0.1c-0.1,0.1-0.1,0.2-0.1,0.3v2.3l-3,1.9
				c-0.1,0.1-0.2,0.2-0.2,0.4v0.2h-2.3c-0.1,0-0.2,0-0.3,0.1c-0.5,0.1-0.5,0.2-0.5,0.3v5c-0.1,0-0.1,0-0.1,0.1
				c-0.2,0.1-0.5,0.2-0.7,0.3c-0.1,0-0.1,0.1-0.2,0.1c-0.3-0.4-0.6-0.8-0.8-1.3c-0.2-0.3-0.3-0.7-0.4-1c-0.1-0.4-0.1-0.7-0.1-1.1
				c0-0.4,0.1-0.8,0.2-1.1l0.4-1.2c-0.5,0-0.9-0.1-1.4-0.1c0-0.2,0-0.4,0-0.6c0-0.1,0-0.3,0-0.4s0-0.1,0-0.2v-0.1v-0.1
				c0-0.1,0.1-0.3,0.1-0.4s0-0.1,0.1-0.2v-0.1v-0.1c0.1-0.1,0.1-0.3,0.2-0.4c0,0,0-0.1,0.1-0.1c0,0,0,0,0-0.1s0.1-0.1,0.1-0.2
				c0.1-0.1,0.2-0.2,0.3-0.3l0.1-0.1c0,0,0,0,0.1,0c0,0,0,0,0.1,0c0.1-0.1,0.2-0.1,0.3-0.2l0.1-0.1h0.1h0.1c0.2-0.1,0.4-0.1,0.6-0.2
				h0.1l0,0h0.1c0.1,0,0.2,0,0.3,0c0.1,0,0.2,0,0.3,0c0.1,0,0.1,0,0.2,0h0.1l0,0c0.3,0,0.5,0.1,0.8,0.2c0.1,0,0.1,0,0.2,0.1h0.1
				c0,0,0,0-0.1,0l0,0c0.1,0,0.1,0.1,0.2,0.1c0.1,0.1,0.3,0.2,0.4,0.2c0.8,0.3,1.7,0,2.6-0.2c0.2,0,0.3-0.1,0.5-0.1v-0.9
				c-0.1,0-0.2,0-0.4,0.1c-0.3,0.1-0.7,0.1-1,0.2c-0.1,0-0.2,0-0.3,0.1h-0.1c0,0,0,0-0.1,0c-0.1,0-0.1,0-0.2,0s-0.3,0-0.4,0h-0.1
				l0,0l0,0h-0.1h-0.1l0,0c-0.1,0-0.1-0.1-0.2-0.1c-0.2-0.1-0.4-0.2-0.6-0.3c-0.5-0.2-1-0.3-1.6-0.3c-1.1,0-2.2,0.4-2.9,1.2
				c-0.5,0.5-0.9,1.1-1.1,1.8c0.1,0.6,0.1,1.2,0.1,1.8c-0.4,0-0.8,0-1.2,0c0-0.9,0.1-1.8,0.4-2.7c0.1-0.2,0.1-0.4,0.3-0.6
				c0.1-0.1,0.1-0.2,0.2-0.3l0.1-0.1c0,0,0,0,0.1-0.1l0,0c0.1-0.2,0.3-0.3,0.5-0.5l0.1-0.1c0,0,0,0,0.1-0.1c0,0-0.1,0,0,0
				c0.1-0.1,0.2-0.1,0.3-0.2c0.2-0.1,0.4-0.2,0.6-0.3c0,0,0.1,0,0.1-0.1h0.1c0.1,0,0.2-0.1,0.3-0.1c0.4-0.1,0.9-0.2,1.4-0.3
				s1-0.2,1.4-0.6c0.4-0.3,0.6-0.7,1-1c0.1-0.1,0.1-0.1,0.2-0.2s0.2-0.1,0.3-0.2s0.2-0.1,0.3-0.2c0,0,0,0,0.1,0l0,0l0,0
				c0.1,0,0.1-0.1,0.2-0.1c0.4-0.2,0.9-0.3,1.3-0.4h0.1c0.7-0.2,1.5-0.2,2.4-0.2c1.6,0.1,3.3,0.4,4.8,0.8c1.4,0.3,2.9,0.7,4.3,0.8
				c0.1,0,0.3,0,0.4,0c1.5,0,3.2-0.6,4.3-1.6c-0.2-0.2-0.4-0.4-0.7-0.6c-1,0.8-2.4,1.3-3.5,1.3v-2.9c0-0.1-0.1-0.2-0.1-0.3l-0.6-0.5
				v-1.6c0-0.2-0.2-0.3-0.3-0.3h-1c-0.2,0-0.3,0.2-0.3,0.3v0.4l-1-0.6c-0.1-0.1-0.3-0.1-0.4,0l-1.3,0.9v-0.9c0-0.1-0.1-0.2-0.1-0.3
				l-0.6-0.5v-1.6c0-0.2-0.2-0.3-0.3-0.3h-1c-0.2,0-0.3,0.2-0.3,0.3v0.4l-1-0.6c-0.1-0.1-0.3-0.1-0.4,0l-3.3,2.4
				c-0.1,0.1-0.1,0.1-0.1,0.2c-2.4,0.9-4.4,1.1-6.2,0.6c-2.3-0.6-4.2-2-6-3.4l-0.1-0.1c-1.6-1.3-3.1-2.5-4.9-3.3
				c-0.2,0.2-0.5,0.4-0.7,0.6l0,0c1.8,0.8,3.4,2,5,3.2c1.9,1.5,3.9,3,6.3,3.7c1.9,0.6,4.2,0.4,6.6-0.4v2.3l0.7-0.2V273l2.9-2.1
				l1.3,0.9c0.1,0.1,0.2,0.1,0.4,0c0.1-0.1,0.2-0.2,0.2-0.3v-0.7h0.3v1.3c0,0.1,0.1,0.2,0.1,0.3l0.6,0.5v1.2l-1.3,1
				c-0.1,0.1-0.1,0.2-0.1,0.3v1.6c-1.6-0.3-3.3-0.4-4.9-0.1h-0.1c-0.6,0.2-1.1,0.3-1.7,0.5c-2.4,0.7-5,0.4-7.3-0.6
				c-2.4-1.1-4.4-2.9-6.5-4.4c-2.4-1.7-5-3.3-8-3.4c-2.1-0.1-4.1,0.1-6.2,0.1v0.8c1.9,0,3.8-0.1,5.8-0.1c1.1,0,2.2,0.1,3.3,0.6
				c1.7,0.7,3.3,1.7,4.7,2.8c1.7,1.2,3.3,2.6,5.1,3.7c-1.3-0.1-2.6-0.1-3.9,0.1c-1.8,0.2-3.5,0.7-5,1.5c-0.8,0.5-1.6,1-2.3,1.7
				l0.6,0.6c0.1-0.1,0.3-0.3,0.4-0.4c0.1-0.1,0.1-0.1,0.2-0.2l0.1-0.1l0,0h0.1c0.3-0.2,0.7-0.5,1-0.7c0.4-0.2,0.7-0.4,1.1-0.6
				c0,0,0.1,0,0.1-0.1h0.1c0.1,0,0.2-0.1,0.3-0.1c0.2-0.1,0.4-0.1,0.6-0.2c1.7-0.6,3.5-0.7,5.3-0.7c1.1,0,2.2,0.1,3.2,0.2
				c0,0,0,0,0.1,0c1.7,0.7,3.5,1,5.3,0.8c-0.1,0.1-0.2,0.2-0.3,0.4c-0.1,0.1-0.2,0.2-0.3,0.2l0,0c0,0,0,0-0.1,0s-0.1,0.1-0.2,0.1
				l0,0c0,0,0,0-0.1,0c-0.1,0-0.1,0-0.2,0.1c-0.1,0-0.2,0.1-0.4,0.1c-0.5,0.1-0.9,0.1-1.4,0.3c-0.5,0.1-0.9,0.3-1.3,0.6
				c-0.9,0.5-1.6,1.3-2,2.3c-0.4,1.1-0.5,2.2-0.6,3.3c-0.2,0-0.3,0-0.3,0c-0.3,0-0.7,0.1-1,0.1c0,0,0.3,1.1,0.3,1.2
				c0.1,0.3,0.1,0.7,0.1,1c0,0.7-0.2,1.4-0.5,2c-0.2,0.4-0.4,0.7-0.7,1.1c-0.2,0.2-0.3,0.4-0.5,0.5c-0.1,0-0.1,0-0.2,0s-0.2,0-0.3,0
				c-0.3,0-0.5,0-0.8,0c-0.2,0-0.3,0-0.5,0c-0.2,0-0.4,0-0.5,0.1v-1.8h1c0.1,0,0.6-0.1,0.8-0.2c0.1-0.1,0.3-0.3,0.3-0.3
				c0.4-0.4,0.6-0.9,0.6-1.5c0-0.2-0.2-0.3-0.3-0.3h-1.1c-0.5,0-0.9,0.2-1.3,0.4v-0.7c0.3,0.1,0.7,0.1,0.9-0.1
				c0.3-0.2,0.5-0.4,0.6-0.7c0.4,0.1,0.8,0,1.1-0.3c0.3-0.3,0.4-0.7,0.3-1.1c0.4-0.1,0.7-0.4,0.8-0.9c0.1-0.4,0-0.8-0.3-1.2
				c0.3-0.3,0.4-0.7,0.3-1.2c-0.1-0.4-0.4-0.7-0.8-0.9c0.1-0.4,0-0.8-0.3-1.1c-0.3-0.3-0.7-0.4-1.1-0.3c-0.1-0.4-0.4-0.7-0.9-0.8
				c-0.4-0.1-0.8,0-1.2,0.3c-0.3-0.3-0.7-0.4-1.2-0.3c-0.4,0.1-0.7,0.4-0.9,0.8c-0.4-0.1-0.8,0-1.1,0.3c-0.3,0.3-0.4,0.7-0.3,1.1
				c-0.4,0.1-0.7,0.4-0.8,0.9c-0.1,0.4,0,0.8,0.3,1.2c-0.3,0.3-0.4,0.7-0.3,1.2c0.1,0.4,0.4,0.7,0.8,0.9c-0.1,0.4,0,0.8,0.3,1.1
				c0.3,0.3,0.7,0.4,1.1,0.3c0.1,0.3,0.3,0.6,0.6,0.7s0.7,0.2,1,0v0.8c-0.4-0.3-0.8-0.5-1.3-0.5h-1.1c-0.2,0-0.3,0.2-0.3,0.3
				c0,0.6,0.2,1.1,0.6,1.5c0,0,0.3,0.4,0.8,0.5c0.3,0.1,1.1,0,1.4,0v1.9c-1.7,0.3-3.4,0.9-4.8,1.7c0-0.1,0-0.1,0-0.1l0,0
				c0,0,0-0.1,0-0.3c0.2-0.1,0.3-0.1,0.5-0.2c0.5-0.2,0.9-0.4,1.1-0.5c0.2-0.1,0.4-0.2,0.5-0.4l0,0c0.1-0.2,0.1-0.4,0.1-0.7l0,0
				c0,0,0-0.1,0-0.2l0,0v-0.1c0-0.1,0-0.2-0.1-0.4c0-0.1-0.1-0.3-0.1-0.4v-0.1l-0.1-0.2l0,0c-0.1-0.2-0.2-0.3-0.3-0.4l-0.1-0.1l0,0
				h-0.1l0,0c-0.2-0.1-0.4-0.1-0.6-0.1c-0.2,0-0.7,0.1-1.2,0.2c-0.2,0-0.4,0.1-0.5,0.1c0-0.1-0.1-0.1-0.1-0.2l-0.1-0.1l0,0l0,0
				c0,0-0.1-0.1-0.2-0.2c0.1-0.1,0.2-0.3,0.3-0.5c0.3-0.4,0.5-0.9,0.6-1c0.1-0.2,0.2-0.4,0.2-0.7l0,0c0-0.2-0.1-0.4-0.3-0.6l0,0
				c0,0-0.1-0.1-0.2-0.1l0,0l-0.1-0.1c-0.1-0.1-0.2-0.2-0.3-0.3l-0.6-0.4l0,0c-0.2-0.2-0.5-0.2-0.8-0.2c-0.2,0-0.4,0.1-0.5,0.3
				c-0.1,0.1-0.5,0.4-0.9,0.8c-0.1,0.1-0.3,0.3-0.4,0.4c-0.1,0-0.1-0.1-0.2-0.1c-0.1,0-0.1,0-0.2-0.1l-0.2-0.1h-0.1h-0.1
				c0-0.2,0-0.4,0-0.5c0-0.3,0-0.5-0.1-0.9V285c0-0.2,0-0.4-0.2-0.5c-0.2-0.2-0.4-0.4-0.7-0.4c-0.1,0-0.2,0-0.3,0h-0.1
				c-0.1,0-0.3,0-0.4,0c-0.2,0-0.4,0-0.6,0h-0.2c-0.3,0-0.6,0.1-0.8,0.3c-0.1,0.1-0.2,0.3-0.2,0.5c0,0.1,0,0.2-0.1,0.3
				c-0.1,0.3-0.1,0.6-0.1,0.8c0,0.2-0.1,0.4-0.1,0.5l0,0h-0.1h-0.2c-0.1,0-0.1,0-0.3,0.1h-0.1c-0.1-0.1-0.2-0.3-0.3-0.4
				c-0.3-0.4-0.7-0.8-0.8-0.9c-0.1-0.2-0.3-0.3-0.5-0.3c-0.3-0.1-0.6,0-0.8,0.1l-0.6,0.4l-0.6,0.4c-0.1,0.1-0.1,0.1-0.2,0.2v1.4
				c0.1,0.2,0.2,0.5,0.4,0.8c0.1,0.2,0.2,0.3,0.3,0.5l-0.1,0.1c-0.1,0.1-0.1,0.1-0.2,0.2l0,0h0.3c0,0,0,0-0.1,0.1l0,0l0,0
				c-0.1,0-0.1,0-0.2-0.1v1.2c0.1,0,0.2,0.1,0.3,0.1l0.5,0.2l0.2-0.5c0.1-0.1,0.1-0.2,0.2-0.2l0.1-0.1l0.1-0.1l0,0c0,0,0,0,0-0.1
				l0,0c0.1-0.1,0.2-0.2,0.3-0.3l0.4-0.4l-0.2-0.5v-0.1c0,0,0,0,0-0.1c-0.1-0.2-0.3-0.5-0.4-0.7c-0.2-0.4-0.4-0.7-0.4-0.9l0.4-0.3
				l0.4-0.2c0.1,0.2,0.4,0.5,0.7,0.8c0.2,0.3,0.4,0.5,0.5,0.6l0,0c0,0,0,0.1,0.1,0.1l0.3,0.4l0.4-0.2c0,0,0,0,0.1,0l0,0
				c0.2-0.1,0.3-0.1,0.4-0.2l0,0h0.1h0.2h0.1l0,0c0.1,0,0.2,0,0.3-0.1l0.6-0.1v-0.5c0-0.1,0-0.5,0.1-0.9c0-0.3,0.1-0.5,0.1-0.8
				c0-0.1,0-0.2,0-0.2h0.1c0.1,0,0.3,0,0.4,0c0.2,0,0.3,0,0.4,0l0,0c0,0,0,0,0.1,0v0.2c0,0.3,0.1,0.5,0.1,0.8c0,0.4,0,0.7,0,0.9v0.5
				l0.6,0.2c0.1,0,0.1,0,0.1,0h0.1h0.1l0.2,0.1c0,0,0.1,0,0.2,0.1c0,0,0.1,0.1,0.2,0.1c0.1,0,0.1,0.1,0.2,0.1c0,0,0,0,0.1,0l0.4,0.2
				l0.3-0.4l0.1-0.1c0.2-0.2,0.3-0.4,0.5-0.6c0.3-0.3,0.6-0.6,0.7-0.7l0.5,0.3c0.1,0,0.1,0.1,0.2,0.2l0.1,0.1c0,0,0,0,0.1,0.1
				c-0.1,0.2-0.3,0.5-0.5,0.9c-0.2,0.3-0.4,0.6-0.5,0.8l-0.3,0.4l0.3,0.4c0,0,0,0,0,0.1l0,0c0.2,0.2,0.3,0.4,0.3,0.5l0,0l0,0l0,0
				l0,0l0,0c0,0.1,0.1,0.2,0.3,0.4c0,0,0,0,0,0.1l0,0l0,0l0.2,0.4l0.5-0.1c0.2,0,0.5-0.1,0.9-0.2c0.4-0.1,0.8-0.1,1-0.1
				c0,0,0,0,0,0.1l0.1,0.4c0,0.2,0.1,0.3,0.1,0.4v0.1c-0.2,0.1-0.6,0.3-0.9,0.4s-0.7,0.2-0.9,0.3l-0.4,0.1v0.5c0,0,0,0,0,0.1l0,0
				c0,0.3,0,0.4,0,0.6l0,0c0,0,0,0.3-0.1,0.6l0,0c0,0,0,0,0,0.1v0.3c-0.3,0.2-0.6,0.5-0.9,0.7c0,0-0.8,0.5-1.8,0.9
				c-2.2-0.5-5.5-0.5-8.2,0.4h0.1c-0.1-0.1-0.1-0.2-0.3-0.4l0,0v-0.1l-0.2-0.4l-0.4,0.1v2.3C-182.9,296.6-178.4,296.7-175.7,297.4z
				 M-144.2,286.6v4.1c-0.6-0.2-1.2-0.3-1.8-0.4v-3.7H-144.2z M-149.4,290.1c-0.4,0-0.7,0-1.1,0v-1.4c0-0.4,0.3-0.8,0.8-0.8
				c0.4,0,0.8,0.3,0.8,0.8v1.4C-149,290.1-149.2,290.1-149.4,290.1z M-147.4,281.4v0.5h-1.8v-0.5H-147.4z M-149.7,284l2.8,1.7v4.5
				c-0.3,0-0.5-0.1-0.8-0.1c-0.2,0-0.5,0-0.7,0v-1.4c0-0.7-0.6-1.3-1.3-1.3s-1.3,0.6-1.3,1.3v1.4h-0.1c-0.4,0-0.9,0.1-1.3,0.1v-4.5
				L-149.7,284z M-153.3,286.7v3.8c-0.1,0-0.1,0-0.2,0c-0.6,0.1-1.2,0.3-1.7,0.4v-4.3L-153.3,286.7z M-146.1,275.5l2.9-2.1l1.3,0.9
				c0.1,0.1,0.2,0.1,0.4,0c0.1-0.1,0.2-0.2,0.2-0.3v-0.7h0.3v1.5c0,0.1,0.1,0.2,0.1,0.3l0.6,0.5v2.7c-1.4-0.2-2.8-0.4-4-0.7
				c-0.6-0.1-1.2-0.3-1.8-0.4C-146.1,277.2-146.1,275.5-146.1,275.5z M-168.6,297.6c-0.3-0.2-0.7-0.5-1-0.7c0.2-0.2,0.4-0.3,0.7-0.5
				c2.1-1.4,6-2.7,8.8-3c0.1,0,0.2,0,0.3,0.1c0.4,0.1,0.9,0.2,1.3,0.4h0.1c-3.1,0.3-7.2,1.7-9.3,3.1c-0.2,0.2-0.4,0.3-0.6,0.5
				C-168.4,297.4-168.5,297.5-168.6,297.6z M-156.5,294.6c0.5,0.2,0.9,0.5,1.3,0.8c-3.1-0.1-8.2,1.2-10.7,2.7
				c-0.2,0.1-0.5,0.3-0.7,0.4c0,0-0.2,0.2-0.4,0.3c-0.3-0.2-0.6-0.5-0.9-0.7c0,0,0,0,0.1,0c0.2-0.2,0.5-0.3,0.7-0.5
				C-164.7,296.2-159.5,294.5-156.5,294.6z M-162.8,291.4c0.2-0.3,0.4-0.7,0.6-1c0.3-0.7,0.4-1.4,0.5-2.1c0-0.4,0-0.9-0.1-1.3
				c0.7-0.1,1.5-0.1,2.3-0.1c0.2,0,0.3,0,0.5,0c-0.1,0.4-0.2,0.9-0.2,1.3c0,0.6,0.1,1.1,0.2,1.7c0.1,0.3,0.2,0.7,0.4,1
				c0,0.1,0.1,0.1,0.1,0.2c0.2,0.4,0.4,0.7,0.7,1c-0.2,0.1-0.5,0.3-0.7,0.4c0,0,0,0-0.1,0c-0.1,0-0.3-0.1-0.4-0.1
				c-0.7-0.2-1.3-0.3-2-0.4c-0.4-0.1-0.9-0.1-1.3-0.1c-0.3,0-0.5,0-0.8,0C-163.1,291.8-162.9,291.6-162.8,291.4z M-165.6,288.6h0.8
				c-0.2,0.6-0.7,1-1.3,1h-0.7v-0.2C-166.7,288.9-166.2,288.6-165.6,288.6z M-166.1,286.7c-0.1,0.1-0.2,0.2-0.3,0.3l0,0
				c-0.1,0-0.3,0-0.4-0.1c-0.1-0.1-0.2-0.2-0.2-0.3v-0.7c0.2,0,0.3-0.1,0.5-0.1l0.4,0.6C-166,286.4-166,286.5-166.1,286.7z
				 M-164.7,286L-164.7,286c-0.1,0.1-0.3,0.1-0.4,0.1c-0.1,0-0.3-0.1-0.3-0.2l-0.4-0.6c0.1-0.1,0.2-0.2,0.3-0.3l0.6,0.4
				c0.1,0.1,0.2,0.2,0.2,0.3C-164.6,285.7-164.6,285.9-164.7,286z M-163.8,284.3L-163.8,284.3c0,0.1-0.1,0.3-0.3,0.3
				c-0.1,0.1-0.3,0-0.4,0l-0.6-0.4c0.1-0.2,0.1-0.3,0.1-0.5h0.7c0.1,0,0.3,0.1,0.3,0.2C-163.8,284-163.7,284.2-163.8,284.3z
				 M-164.4,282.1L-164.4,282.1c0.1-0.1,0.3-0.1,0.4,0s0.2,0.2,0.3,0.3l0,0c0,0.1,0,0.3-0.1,0.4c-0.1,0.1-0.2,0.2-0.3,0.2h-0.7
				c0-0.2-0.1-0.3-0.1-0.5L-164.4,282.1L-164.4,282.1z M-165.4,280.8c0.1-0.1,0.2-0.2,0.3-0.2c0.1,0,0.3,0,0.4,0.1l0,0
				c0.1,0.1,0.1,0.2,0.1,0.4c0,0.1-0.1,0.3-0.2,0.3l-0.6,0.4c-0.1-0.1-0.2-0.2-0.3-0.3L-165.4,280.8z M-166.9,280.2
				c0-0.1,0.1-0.3,0.2-0.3c0.1-0.1,0.3-0.1,0.4-0.1l0,0c0.1,0,0.2,0.1,0.3,0.3c0.1,0.1,0,0.3,0,0.4l-0.5,0.6
				c-0.2-0.1-0.3-0.1-0.5-0.1v-0.8H-166.9z M-168.6,280.1c0.1-0.1,0.2-0.2,0.3-0.3l0,0c0.1,0,0.3,0,0.4,0.1c0.1,0.1,0.2,0.2,0.2,0.3
				v0.7c-0.2,0-0.3,0.1-0.5,0.1l-0.4-0.6C-168.6,280.3-168.6,280.2-168.6,280.1z M-169.9,280.8L-169.9,280.8
				c0.1-0.1,0.2-0.2,0.4-0.1c0.1,0,0.3,0.1,0.3,0.2l0.4,0.6c-0.1,0.1-0.2,0.2-0.3,0.3l-0.6-0.4c-0.3,0-0.3-0.1-0.4-0.3
				C-170.1,281-170,280.9-169.9,280.8z M-170.9,282.4L-170.9,282.4c0-0.1,0.1-0.3,0.3-0.3c0.1-0.1,0.3,0,0.4,0l0.6,0.4
				c-0.1,0.2-0.1,0.3-0.1,0.5h-0.7c-0.1,0-0.3-0.1-0.3-0.2C-170.9,282.7-170.9,282.5-170.9,282.4z M-170.2,284.6
				c-0.1,0.1-0.3,0.1-0.4,0c-0.1-0.1-0.2-0.2-0.3-0.3l0,0c0-0.1,0-0.3,0.1-0.4c0.1-0.1,0.2-0.2,0.3-0.2h0.7c0,0.2,0.1,0.3,0.1,0.5
				L-170.2,284.6L-170.2,284.6z M-169.2,285.9c-0.1,0.1-0.2,0.2-0.3,0.2s-0.3,0-0.4-0.1l0,0c-0.1-0.1-0.1-0.2-0.1-0.4
				c0-0.1,0.1-0.3,0.2-0.3l0.6-0.4c0.1,0.1,0.2,0.2,0.3,0.3L-169.2,285.9z M-169,283.4c0-0.9,0.7-1.6,1.6-1.6c0.9,0,1.6,0.7,1.6,1.6
				c0,0.9-0.7,1.6-1.6,1.6C-168.2,285-169,284.3-169,283.4z M-167.9,286.8c-0.1,0.1-0.2,0.1-0.4,0.1l0,0c-0.1,0-0.2-0.1-0.3-0.3
				c-0.1-0.1,0-0.3,0-0.4l0.4-0.6c0.2,0.1,0.3,0.1,0.5,0.1v0.7C-167.7,286.6-167.8,286.8-167.9,286.8z M-168.5,289.6
				c-0.6,0-1.2-0.4-1.3-1h0.8c0.6,0,1.1,0.4,1.3,1v0.1h-0.8V289.6z M-171.6,294.6c1.4-0.7,3-1.2,4.7-1.4c0.4-0.1,0.8-0.1,1.2-0.1
				h0.1c0.4,0,1.1,0,1.5,0c0.2,0,0.4,0,0.4,0c0.2,0,0.4,0,0.6,0c-2.4,0.6-5,1.7-6.5,2.8c-0.2,0.2-0.5,0.4-0.6,0.5l-0.1,0.1
				c-0.8-0.4-1.6-0.8-2.4-1.1C-172.5,295-172.1,294.8-171.6,294.6z"/>
			<path class="st0" d="M-176.9,334.5l-0.4,0.6c-0.4-0.1-0.9-0.4-1.3-0.6l0.7-0.9l0.4-0.6c-0.1-0.1-0.5-0.4-0.5-0.4
				c-1.4-1.1-4.2-2.7-6.2-3l0,0c-0.3,0-1.3-0.1-1.5-0.1v1.1v0.4v0.7v-0.1c0.3,0,0.6,0.1,1,0.1c2.1,0.4,4.1,1.4,5.3,2.8
				c0,0.1,0.2,0.2,0.2,0.2c0.5,0.4,1.2,0.8,1.9,1c-0.2,0.8-0.4,1.2-0.8,1.6c-0.1-0.2-0.3-0.3-0.5-0.5c-0.5-0.4-1.2-0.5-1.7-0.4
				c0,0-1,0-1.5-0.2c-0.6-0.2-1.2-0.7-1.6-1.3c-0.3-0.3-0.5-0.7-0.8-1c-0.4-0.3-0.9-0.5-1.4-0.5v0.7c0.3,0,0.6,0.1,0.9,0.3
				c0.2,0.1,0.8,0.9,1,1.3c0,0,0.9,0.8,1.4,1c0.3,0.2,1.5,0.5,1.9,0.4l0,0l0,0h0.1l0,0c0.4,0,0.7,0,1.1,0.2c0.1,0,0.3,0.2,0.4,0.4
				l0,0l0.4,0.6c0,0,0.1,0,0.1-0.1l0,0l0,0l0.1-0.1c0.1-0.1,0.3-0.2,0.4-0.3c0,0,0,0-0.1-0.1c0.6-0.6,0.9-1.2,1.1-2v-0.2
				c0-0.1,0.1-0.5,0.1-0.5c-0.1,0-0.2,0-0.4,0l0.3-0.4l0.3-0.4l0.3-0.4l-1.6-0.3L-176.9,334.5z M-184.7,331.2
				c-0.2-0.1-0.5-0.1-0.7-0.1l0.7-0.9c0.1,0,0.2,0,0.4,0c0.3,0,0.6,0.1,0.9,0.2l-0.7,0.9C-184.4,331.3-184.5,331.2-184.7,331.2z
				 M-183.6,331.5l0.7-0.9c0.5,0.2,1,0.4,1.5,0.6l-0.7,0.9C-182.6,331.8-183.1,331.6-183.6,331.5z M-181.6,332.3l0.7-0.8
				c0.3,0.2,0.7,0.4,1,0.6l-0.7,0.8C-180.9,332.7-181.2,332.5-181.6,332.3z M-180.1,333.2l0.7-0.8c0.4,0.3,0.7,0.5,1,0.7l-0.7,0.9
				C-179.5,333.8-179.8,333.5-180.1,333.2z"/>
			<path class="st0" d="M-178.9,324.7c1.6,0.2,2.9,1.1,3.5,1.7l0.5-0.9c-0.7-0.6-1.7-1.5-3.5-1.7L-178.9,324.7z"/>
			<path class="st0" d="M-180.8,328.1c1.6,0.2,2.9,1.2,3.5,1.7l0.5-0.9c-0.7-0.6-1.7-1.5-3.5-1.8L-180.8,328.1z"/>
			<path class="st0" d="M-179.9,326.3c1.6,0.2,2.9,1.2,3.5,1.7l0.5-0.9c-0.7-0.6-1.7-1.5-3.5-1.7L-179.9,326.3z"/>
			<path class="st0" d="M-181.4,324.4c-0.4-0.4-1.2-0.8-2.2-1.2l0,0c0.1-0.1,0.4-0.5,0.2-0.6c-0.1-0.1-0.4,0-0.5,0.1
				c0-0.2-0.1-0.4-0.2-0.4c-0.1,0-0.3,0.4-0.3,0.5l0,0c-0.5-0.2-1-0.3-1.5-0.4v0.6v0.5c1.6,0.2,3.4,1.2,4,1.7L-181.4,324.4z"/>
			<path class="st0" d="M-185.9,325.6L-185.9,325.6c1.4,0.4,2.5,1.1,3,1.5l0.5-0.9c-0.6-0.5-2-1.3-3.4-1.7
				C-185.9,324.8-185.9,325.5-185.9,325.6z"/>
			<path class="st0" d="M-180.2,322.4c-0.1,0-0.1-0.1-0.2-0.1c-0.2-0.1-0.4-0.2-0.6-0.3c0.1,0,0.2-0.1,0.3-0.1
				c0.1-0.1,0.4-0.5,0.2-0.6c-0.1-0.1-0.4,0-0.6,0.1c0-0.2-0.1-0.4-0.2-0.4c-0.1,0-0.3,0.4-0.3,0.5c0,0.1,0,0.1,0,0.2
				c-0.9-0.4-1.9-0.7-2.9-1c0.1-0.1,0.1-0.1,0.1-0.2c0-0.1,0.1-0.6,0-0.6c-0.2,0-0.4,0.2-0.5,0.4c-0.1-0.2-0.3-0.4-0.5-0.4
				c-0.2,0-0.1,0.5,0,0.6c0,0,0,0,0,0.1c-0.2,0-0.4-0.1-0.7-0.1v1c1.9,0.3,3.7,1,5.1,1.8L-180.2,322.4z"/>
			<path class="st0" d="M-179,338.4c-0.2-0.2-0.3-0.4-0.6-0.6c-0.5-0.4-1.2-0.5-1.7-0.4c0,0-1,0-1.5-0.2c-0.6-0.2-1.2-0.7-1.6-1.3
				c-0.3-0.3-0.5-0.7-0.8-1c-0.2-0.2-0.4-0.3-0.6-0.4v0.7c0.1,0,0.1,0.1,0.2,0.1c0.2,0.1,0.8,0.9,1,1.3c0,0,0.9,0.8,1.4,1
				c0.5,0.3,1.7,0.5,2,0.5l0,0l0,0h0.1l0,0c0.4,0,0.7,0,1.1,0.2c0.1,0,0.3,0.2,0.4,0.4l0,0l0.4,0.6c0,0,0.1,0,0.1-0.1
				c0.2-0.1,0.4-0.2,0.5-0.4l-0.1-0.1C-178.7,338.6-178.8,338.5-179,338.4z"/>
			<path class="st0" d="M-172.9,311.3c0-0.3-0.2-0.5-0.5-0.5c-0.3,0-0.5,0.2-0.5,0.5c0,0.3,0.2,0.5,0.5,0.5
				C-173.1,311.7-172.9,311.5-172.9,311.3z"/>
			<circle class="st0" cx="-174.7" cy="310.7" r="0.5"/>
			
				<rect x="-168.2" y="309.7" transform="matrix(-0.4786 0.878 -0.878 -0.4786 25.5397 605.0068)" class="st0" width="2.7" height="0.7"/>
			
				<rect x="-166.8" y="310.6" transform="matrix(-0.4786 0.878 -0.878 -0.4786 28.4046 604.9989)" class="st0" width="2.7" height="0.7"/>
			
				<rect x="-165.3" y="311.3" transform="matrix(-0.4786 0.878 -0.878 -0.4786 31.2649 604.8218)" class="st0" width="2.7" height="0.7"/>
			<path class="st0" d="M-157,317.4c-0.3-0.1-0.7-0.1-1.1-0.1c-0.7,0.1-1.3,0.3-1.9,0.5c-0.4,0.1-0.8,0.3-1.3,0.4
				c-0.4,0.1-0.8,0.2-1.2,0.2c-0.1,0-0.2,0-0.3,0h-0.1c0,0,0,0-0.1,0l0,0c-0.2,0-0.4-0.1-0.6-0.1c-0.4-0.1-0.7-0.2-1.1-0.4
				c-0.4-0.2-0.7-0.4-1-0.7c-0.3-0.2-0.7-0.5-1.1-0.7c-0.4-0.2-0.9-0.3-1.3-0.3c-0.5,0-0.9,0.1-1.4,0.2c-0.4,0.1-0.7,0.2-1.1,0.3
				c-0.2,0-0.3,0.1-0.5,0.1c-0.1,0-0.1,0-0.2,0h-0.1l0,0l0,0c-0.3,0-0.6,0-0.9,0c-0.1,0-0.3,0-0.4,0l0,0l0,0h-0.1
				c-0.1,0-0.2,0-0.2,0c-0.3-0.1-0.6-0.2-0.9-0.3h-0.1c0,0-0.1,0-0.1-0.1c-0.1,0-0.2-0.1-0.3-0.1c-0.2-0.1-0.4-0.2-0.5-0.3
				c-0.1-0.1-0.2-0.1-0.4-0.2l0,0l0,0c-0.1,0-0.1-0.1-0.2-0.1c-1.5-1.2-3.2-2.1-5-2.7c-1.5-0.7-3-0.9-4.5-1c-0.3,0-0.6,0-0.9,0v0.9
				c0.2,0,0.4,0,0.6,0c0.3,0,0.6,0,0.9,0.1c0.2,0,0.3,0,0.5,0.1h0.1c-0.1,0,0,0,0,0c0.1,0,0.2,0,0.3,0c0.8,0.1,1.5,0.3,2.2,0.5
				c0.4,0.1,0.8,0.3,1.2,0.4c0.1,0,0.2,0.1,0.3,0.1h0.1l0,0h0.1c0.2,0.1,0.4,0.2,0.6,0.3c0.5,0.2,0.9,0.5,1.4,0.8
				c0.5,0.3,0.9,0.6,1.3,1l0,0l0,0c-0.3,0.3-0.7,0.6-0.9,0.9c-0.4-0.2-0.7-0.4-1.1-0.6c0.1,0,0.2,0,0.3-0.1c0.1-0.1,0.4-0.5,0.2-0.6
				c-0.1-0.1-0.4,0-0.6,0.1c0-0.2-0.1-0.4-0.2-0.4c-0.1,0-0.3,0.4-0.3,0.5c0,0.1,0,0.2,0,0.2c-1-0.4-2-0.7-3.1-1l0.1-0.1
				c0.1-0.1,0.3-0.5,0.1-0.6c-0.1-0.1-0.4,0.1-0.5,0.2c-0.1-0.2-0.2-0.4-0.3-0.4c-0.2,0-0.2,0.4-0.2,0.6c0,0.1,0,0.1,0,0.2
				c-0.7-0.1-1.4-0.2-2.1-0.3c0,0,0.1-0.1,0.1-0.2s0.1-0.6,0-0.6c-0.2,0-0.4,0.2-0.5,0.4c0.3,0,0.1-0.3-0.1-0.2
				c-0.2,0-0.1,0.5,0,0.6v0.1h-0.1c-0.1,0-0.3,0-0.4,0v1.2h0.1c0.1,0,0.2,0,0.3,0c2.8,0.1,5.4,0.8,7.6,1.9c-0.3,0.4-0.5,0.7-0.7,1.1
				c-0.4-0.2-0.8-0.4-1.2-0.5l0.1-0.1c0.1-0.1,0.4-0.5,0.2-0.6c-0.1-0.1-0.4,0-0.6,0.1c0-0.2-0.1-0.4-0.2-0.4
				c-0.1,0-0.3,0.4-0.3,0.5v0.1c-0.6-0.2-1.3-0.4-2-0.6l0,0c0.1-0.1,0.3-0.5,0.1-0.6c-0.1-0.1-0.4,0.1-0.5,0.2
				c-0.1-0.2-0.2-0.4-0.3-0.4c-0.2,0-0.2,0.4-0.2,0.6l0,0c-0.5-0.1-0.9-0.1-1.4-0.2c0,0,0-0.1,0.1-0.1c0-0.1,0.1-0.6,0-0.6
				c-0.2,0-0.4,0.2-0.5,0.4c-0.1-0.2-0.3-0.4-0.5-0.4s-0.1,0.5,0,0.6v0.1c-0.1,0-0.3,0-0.4,0v1.1c0.1,0,0.3,0,0.4,0
				c4,0.1,7.7,1.8,9.8,4.2c-1.2-0.5-2.7-1.1-2.8-1.1l-0.4-0.1l0,0l-3.9,6.9c-0.7-0.5-1.6-1.1-3-1.4c0,0,0,0,0,0.1v0.5
				c0,0.1,0,0.2,0,0.3c1.2,0.3,2.1,0.7,2.8,1.5l0,0l0,0l0,0l0,0l0.5,0.2c0,0,2.1,0.8,2.7,1.2c0.6,0.3,2.3,1.5,2.4,1.5l0.4,0.3
				l4.2-7.9l-0.3-0.3c0,0,0,0-0.3-0.3l-0.1-0.2c-0.5-1.1-1.3-2.1-2.3-3c0.4-0.6,0.9-1.2,1.5-1.8v-1.3c-1,0.8-1.7,1.5-2.4,2.4
				c-0.3-0.2-0.5-0.4-0.8-0.5l0.1-0.1c0.1-0.2,0.4-0.8,0.5-1c0.2-0.3,0.5-0.6,0.8-0.9c0.3-0.3,0.6-0.6,1-0.9c1,0.5,2,0.8,3.1,0.8
				c0.6,0,1.2-0.1,1.8-0.3c0.4-0.1,0.8-0.2,1.2-0.3h0.1l0,0h0.1c0.1,0,0.2,0,0.3,0c0.2,0,0.4,0,0.6,0.1c0.8,0.2,1.4,0.8,2.1,1.2
				c0.7,0.4,1.5,0.8,2.4,0.9c0.4,0.1,0.9,0.1,1.3,0.1c0.5,0,0.9-0.2,1.3-0.3c0.4-0.1,0.8-0.2,1.1-0.3s0.6-0.2,0.9-0.3
				c0.2,0,0.3-0.1,0.5-0.1l0,0l0,0c0,0,0,0,0.1,0h0.1c0.1,0,0.2,0,0.3,0h0.1l0,0l0,0c0.1,0,0.2,0,0.2,0.1l0,0l0,0c0,0,0.1,0,0.1,0.1
				c0.1,0,0.1,0.1,0.2,0.1l0.1,0.1c0.5,0,1,0,1.5-0.1c-0.3-0.2-0.6-0.4-0.8-0.5C-156.5,317.7-156.7,317.5-157,317.4z M-178.3,316.4
				L-178.3,316.4C-178.3,316.5-178.3,316.5-178.3,316.4C-178.3,316.5-178.3,316.5-178.3,316.4z M-175,323.8c0.5,0.3,1,0.7,1.2,0.9
				l-3.5,6.7c-0.6-0.4-1.8-1.2-2.3-1.5c-0.5-0.3-2-0.9-2.7-1.1l3.7-6.6c0.5,0.2,1.7,0.6,2.5,1C-175.7,323.3-175.3,323.6-175,323.8z"
				/>
			<path class="st0" d="M-150.4,316.4c-0.3,0.1-0.6,0.2-0.9,0.2c-0.2,0.1-0.4,0.1-0.6,0.1l0,0c0,0,0,0-0.1,0s-0.1,0-0.2,0
				c-0.1,0-0.2,0-0.3,0c0.1,0-0.1,0-0.1,0c-0.1,0-0.1,0-0.2,0c-0.2,0-0.3-0.1-0.5-0.1c-0.3-0.1-0.6-0.2-0.8-0.3
				c-0.1-0.1-0.3-0.1-0.4-0.2h-0.1l0,0l0,0c-0.1,0-0.1-0.1-0.2-0.1c-0.1-0.1-0.3-0.1-0.4-0.2l0.5-7.9c-0.2,0.1-0.5,0.1-0.7,0.1h-0.1
				l-0.2,3.6l-0.7-0.2l0.9-3.5c-0.3,0-0.6-0.1-0.8-0.2l-0.9,3.5l-0.9-0.1l1.5-3.3c-0.4-0.2-0.6-0.4-0.7-0.5l-3.9,8.4
				c-0.1,0.2-0.1,0.3-0.2,0.4l0,0c-0.1,0-0.2,0-0.3,0c-0.2,0-0.3,0-0.5,0c-0.1,0-0.1,0-0.2,0c-0.1,0-0.2,0-0.3,0
				c-0.4-0.1-0.7-0.2-1.1-0.3l0,0l0,0h-0.1c-0.1,0-0.2-0.1-0.3-0.1c-0.2-0.1-0.3-0.2-0.5-0.3c-0.3-0.2-0.6-0.4-0.9-0.6
				c-0.7-0.5-1.4-0.8-2.2-0.8s-1.5,0.3-2.2,0.4c-0.3,0.1-0.5,0.1-0.8,0.2c-0.1,0-0.1,0-0.2,0l0,0l0,0h-0.1c-0.1,0-0.3,0-0.4,0
				c-0.3,0-0.6,0-0.8,0l0,0l0,0h-0.1l0,0c1-1.2,1.6-2.6,1.7-4v-0.3c0-0.1,0-0.3,0-0.4l0,0v-0.3c-0.2,0-0.5,0-0.8,0
				c-0.4,0-1-0.2-1.5-0.4l11.4-6.2l-1,1.8c-0.1,0.2,0,0.4,0.1,0.5l0,0l0.1,0.1c0.4,0.2,0.6,0.7,0.3,1.1c-0.2,0.4-0.7,0.6-1.1,0.3
				c-0.4-0.2-0.6-0.7-0.3-1.1l-0.6-0.3c-0.2,0.4-0.2,0.9-0.1,1.3l-3.2,0.5l-0.2-0.1c-0.2-0.1-0.4,0-0.5,0.1l0,0l-1.9,3.9
				c-0.1,0.2,0,0.4,0.1,0.5l0,0l6.3,3.4c0.2,0.1,0.4,0,0.5-0.1l0,0l2.2-4.1c0.1-0.2,0-0.4-0.1-0.5l0,0l-0.5-0.3l-0.9-2.6
				c0.8,0,1.5-0.7,1.4-1.5c0-0.5-0.3-0.9-0.6-1.2l1.4-2.5l0,0l-0.4-1.4l-14.6,5.2l0,0l0.5-1c-0.2-0.1-0.3-0.1-0.3-0.1
				c-0.2-0.2-0.4-0.3-0.6-0.4c-0.6-0.4-1.3-0.8-2-1.1l0.6-1l0.5-0.9l0.6-1l-3.6-0.2l2,1.8l-0.7,1.2c-1.8-1-3.8-1.4-5.8-1.4l0,0
				c-0.4,0-0.8,0-1.2,0l-0.6,1.1l0,0v2.6c0.7,0,1.4,0,2.2,0c3.3,0.3,6.4,1.5,8.5,3.4c0.1,0.1,0.4,0.3,0.4,0.3c0.8,0.6,1.9,1,3.1,1.1
				c-0.2,1.9-0.7,2.6-1.8,3.7c-0.2,0-0.4,0-0.6-0.1c-0.4-0.2-0.8-0.4-1.1-0.6c-1.5-1.2-3.2-2.1-5-2.7c-1.4-0.5-2.9-0.7-4.4-0.8
				c-0.5,0-1,0-1.4,0v0.9c0.4,0,0.8,0,1.2,0c0.3,0,0.6,0,0.9,0.1c0.2,0,0.3,0,0.5,0.1h0.1c-0.1,0,0,0,0,0c0.1,0,0.2,0,0.3,0
				c0.8,0.1,1.5,0.3,2.2,0.5c0.4,0.1,0.8,0.3,1.2,0.4c0.1,0,0.2,0.1,0.3,0.1h0.1l0,0h0.1c0.2,0.1,0.4,0.2,0.6,0.3
				c0.5,0.2,0.9,0.5,1.4,0.8s0.9,0.6,1.3,1l0,0c0,0,0,0,0.1,0.1c1.1,0.7,2.3,1.3,3.6,1.4c0.5,0,1.1,0,1.6-0.1
				c0.3-0.1,0.6-0.1,0.8-0.2c0.4-0.1,0.8-0.2,1.1-0.3c0.7-0.1,1.4,0,1.9,0.4c0.3,0.2,0.6,0.4,0.9,0.6c0.3,0.2,0.6,0.4,1,0.6
				c0.7,0.3,1.4,0.6,2.2,0.6c0.7,0.1,1.3-0.1,1.9-0.2c0.1,0,0.3-0.1,0.4-0.1c0.3-0.1,0.7-0.2,1-0.3c0.1,0,0.1,0,0.2-0.1h0.1
				c0.2,0,0.3-0.1,0.5-0.1c0.1,0,0.1,0,0.2,0c0,0,0,0,0.1,0h0.1h0.1c0.1,0,0.3,0,0.4,0s0.2,0,0.3,0c0,0,0,0,0.1,0c0.1,0,0.1,0,0.2,0
				c0.2,0,0.4,0.1,0.7,0.2c0,0,0,0,0.1,0c0.1,0.1,0.3,0.1,0.4,0.2c0.1,0,0.1,0.1,0.2,0.1h0.1h0.1l0,0c0.3,0.1,0.5,0.2,0.8,0.3
				c0.5,0.2,1.1,0.4,1.7,0.5c0.5,0.1,1,0.1,1.4,0c0.2-0.1,0.5-0.1,0.7-0.2c0.1,0,0.3-0.1,0.4-0.1c0.1,0,0.1,0,0.2,0h0.1
				c0.1,0,0.1,0,0.2,0c0,0,0,0,0.1,0h0.1c0.1,0,0.3,0.1,0.4,0.1c0.4-0.1,0.7-0.2,1.1-0.3c-0.4-0.4-0.9-0.6-1.4-0.7
				C-149.9,316.3-150.2,316.3-150.4,316.4z M-163.4,307.2l0.9,2.3l-3.6-1.9L-163.4,307.2z M-161.7,310.7l-1.9,3.5l-5.7-3.1l1.9-3.5
				L-161.7,310.7z M-161.8,302.1l-4.3,2.3l-1.3-0.4L-161.8,302.1z M-168.5,304.6l1.3,0.4l-1.7,0.9L-168.5,304.6z M-169.4,304.8
				l-0.5,1.5l-1.9-0.6L-169.4,304.8z M-176.8,306.5L-176.8,306.5c-2.1-1.1-4.5-1.8-6.7-2c-0.7,0-1.3-0.1-1.9,0l0.9-1.6
				c0.2,0,0.4,0,0.5,0c3,0,5.8,0.9,8,2.3L-176.8,306.5z M-174.2,308.3c-0.3-0.2-0.5-0.3-0.5-0.3c-0.4-0.3-0.8-0.6-1.3-0.9V307
				l2.4-0.8L-174.2,308.3z M-172.6,306.2l2,0.7l-2.7,1.5L-172.6,306.2z M-158.4,315.4c-0.4,0.1-0.7,0.2-1,0.3
				c-0.3,0.1-0.6,0.2-0.9,0.3l1.8-4l0.9,0.2L-158.4,315.4z M-156.1,315.5c-0.5-0.2-1-0.2-1.5-0.2l0.8-3l0.9,0.2L-156.1,315.5z"/>
		</g>
		<g>
			<path class="st0" d="M-141.8,295C-141.8,295-141.8,294.9-141.8,295c-0.1-0.3-0.2-0.5-0.3-0.7c0.1-0.1,0.1-0.2,0.1-0.3
				c0-0.1-0.1-0.2-0.3-0.3c0,0-0.1,0-0.1-0.1s0-0.1-0.1-0.2c-0.2-0.2-0.4-0.4-0.5-0.6c-0.1-0.1-0.2-0.1-0.3,0
				c-0.1,0-0.1,0.1-0.1,0.2c0,0.1,0,0.2,0.1,0.2l0.1,0.1c0.1,0.1,0.2,0.2,0.4,0.4c0,0,0,0,0,0.1c-0.1,0.1-0.1,0.1-0.1,0.2
				c0,0.1,0,0.2,0.1,0.3c0.1,0.1,0.2,0.1,0.2,0.1c0.1,0.2,0.2,0.4,0.3,0.6l0.1,0.1c0.1,0,0.2,0,0.2,0h0.2L-141.8,295z"/>
			<path class="st0" d="M-143.5,297.1c0.1,0.1,0.3,0.2,0.4,0.3c0-0.1,0-0.1,0-0.2c0.1-0.4,0.3-0.8,0.6-1.2c0,0,0,0,0-0.1h0.1
				l1.8,0.1h0.1c0,0,0,0,0,0.1c0.2,0.4,0.4,0.8,0.5,1.2c0,0.2,0,0.5,0,0.7v0.2c0.3,0,0.5-0.1,0.8-0.1V298c0-0.3,0-0.6,0-0.8
				c-0.1-0.5-0.3-1.1-0.6-1.5c-0.1-0.1-0.2-0.2-0.3-0.3c-0.2-0.1-0.3-0.1-0.5-0.1l-1.8-0.1c-0.1,0-0.3,0-0.5,0.1
				c-0.1,0.1-0.2,0.2-0.3,0.3c-0.3,0.4-0.6,0.9-0.7,1.4l0,0C-143.6,297.1-143.6,297.1-143.5,297.1z"/>
		</g>
	</g>
</g>
</svg>
